<svg id="Layer_1" data-name="Layer 1" xmlns="http://www.w3.org/2000/svg" viewBox="0 0 589.53 416.57"><defs><style>.cls-1{fill:#15351c;}</style></defs><title>about-splatter2</title><path id="Path_261" data-name="Path 261" class="cls-1" d="M139.41,166.77c1.39,6.23,5.69,10.3,10.63,14.82.08-3.74,1-5.82,4.72-5.49,1,.09,2.89-1.62,3.28-2.84a83.41,83.41,0,0,0,2.63-11.46,96,96,0,0,0,.87-9.59c.13-1.88.49-3.92-.09-5.59-.34-1-2.25-1.58-3.54-2.12-4.28-1.79-8.26-3.88-10.93-7.91-6-9-5.4-18.37.32-26.69,8.77-12.76,21.34-19.74,37.16-19.06,7.51.33,13.26,4.53,17,11.18.71,1.25,1.33,2.55,2.26,4.37,2.47-3,6.7-3.66,7.72-7.85.1-.42,1.31-1,1.86-.82a46.84,46.84,0,0,0,6.35,1.51c-1-4,0-8.42-4.27-10.89-.43-.26-.3-1.67-.26-2.54.08-1.56.61-3.17.38-4.67-.69-4.46-1.71-8.87-2.48-13.33-1-6,1.38-10.68,6.9-13.3,4.41-2.11,8.91-4,13.29-6.2,3.67-1.82,7-4.09,8.69-8.16l.83.11c-.2,3.61,0,7.29-.67,10.8-1.73,9-4.08,17.86-5.75,26.87-1.35,7.35-2.1,14.81-3.06,22.23a21,21,0,0,0,.1,3.27l7.12-3.65a34.77,34.77,0,0,1,.76-3.76A4.33,4.33,0,0,1,246,92.79c1.8.08,3.59.26,4.86.36l-4.56,9.62A12.55,12.55,0,0,1,248.67,117l.79.27c.66-.64,1.35-1.26,2-1.93.78-.82,1.36-2.09,2.3-2.46,2.44-1,3.32-2.47,2.21-5.39l3.7,3.86c.7-3.58.53-6.83,2-9,1.28-1.85,4.4-2.44,7.11-3.8,1.6,3.36,3.4,5.9,4,8.7.43,2.11.08,4.37,1.64,6.16.67.77,1.43,1.81,2.31,2,6.84,1.48,6.85,1.43,10.66,6.14l6.21-16-3.13.1a80.73,80.73,0,0,1,0-8.52c.07-.67,1.69-1.52,2.71-1.71,3.35-.64,5.27,1.85,5.71,7.27l6.95-1.31c-2.37-1.88-1.27-6.07-5.87-6.18-1.85,0-2.11-2.36-1.36-4.08a14,14,0,0,1,1.93-2.47l-7.41-6.27a9.11,9.11,0,0,1-.18,2.6,3,3,0,0,1-1.3,1.26,34,34,0,0,1-4.83-3.95c-.15-.15,1.32-1.87,2-2.87l3.28,2.7c.12-.9.69-2.29.38-3.43a13.05,13.05,0,0,1,.67-9.12,10.32,10.32,0,0,1,13.66-5.15l.22.11c8.8,4.15,11.16,17.37,1.73,22.81-1.62.94-3.58,1.31-5.86,2.11a27.8,27.8,0,0,1,2.93,3.83c1.08,2.08,2.67,4.35,2.56,6.47s-1.85,4.44-3.13,6.5a15,15,0,0,1-3.19,3.37c-2.17,1.79-4.7,3.3-2.81,6.82a10.7,10.7,0,0,1-2.8,2c-.71.34-2.1-.09-2.41.36-2.2,3.13-4.2,6.39-6.22,9.63-.11.17.14.56.35,1.32l8.25-4.3,2.39,1.76-2.79-.54,1-.49,4.51,7-.44.79a33.27,33.27,0,0,0,1.48-3.14c2-5.79,3.95-11.6,5.92-17.41.75-2.22,1.79-4.25.89-6.86A3.58,3.58,0,0,1,311.7,102a5.15,5.15,0,0,0,2.21-2.29,40.24,40.24,0,0,0,2.84-6.23,36.76,36.76,0,0,0,1-5.64c4.5-.81,4.14-6.42,6.72-9.79a1.7,1.7,0,0,0-.29-1.61c-1.26-1.22-2.76-2.59-1-4.1.94-.81,2.84-.52,4.86-.81,3.7-5.55,7.62-11.92,12-18,12.52-17.2,26.69-32.75,45.4-43.51A79.06,79.06,0,0,1,405,1.71c-6.29,3-12.71,5.64-18.73,9-13.74,7.68-24.52,18.82-34.65,30.65a235.2,235.2,0,0,0-33,50.54c-.53,1.1-1,2.26-1.16,2.68L319.53,98l-3.41,1.17c-1.56,1.2-2.51,2.84-1,5.25,1.41,2.19.13,4.39-2.64,5-1.49.36-2.37.73-1.68,2.46a1.31,1.31,0,0,1-.23,1.16c-2.3,2.36-7.06,15.59-7.05,19.8L309,135l4.64-5.93-1.07-.11-.4-5.29,4.68,1.59c5-3.77,10.6-8.25,16.49-12.27a68,68,0,0,1,10.7-5.51,7.54,7.54,0,0,1,4.28-.38c2.73.52,4.94,1.5,7.77-.94,2.32-2,4.64.81,6.36,3.47,2.68-1.5,5.23-3,7.88-4.36,3-1.5,5.94-4,9.38-.8.25.22,1-.2,1.44-.07,1.1.31,2.67.48,3.11,1.24a5.56,5.56,0,0,1,.45,4c-.63,2-2.63,2.21-4.17.73-4.4-4.26-10.2-4.79-14.57-.43-3.41,3.39-5.86,7.74-8.78,11.62-2.25,3-4.45,6-6.95,8.79-1.32,1.46-3.25,2.39-5.49,4-.27-2.08-.4-3.37-.62-4.64-.34-2-1.47-3-3.51-2.49a15.65,15.65,0,0,0-4.34,1.66c-9.75,6.11-17.37,14.49-24.54,23.33a8.21,8.21,0,0,0-.66,1.72c1.87.28,3.52.6,5.18.73s3.3.07,5,.11c.31,0,.69.19.91.07a52.55,52.55,0,0,0,7-4.24c4.88-4,8.51-5.34,13.24-2.48,5.11,3.07,9-.05,12.23-2.06l3-15.24a17.79,17.79,0,0,0,3.87,0c6.38-1.52,9.39-.69,12.51,4.54,1.28,2.13,2.26,1.91,3.94.89,0-1.9,0-3.86.15-5.79.36-4.12,2.94-7.45,6.17-8.15s8.05,1.24,9,5.14c1.33,5.45,4.58,4.75,8.47,4.41,4.2-.37,8.44-.29,13.05-.42-.87-7.78-2.3-15.08-8.8-20.26-1.92-1.54-3.82-3.12-5.84-4.52a3.2,3.2,0,0,0-2.56-.61c-2.58,1.3-2.82-.27-2.78-2.19-5.38,1.62-7.14,1-8.07-2.65-1.17-4.62-.13-7.86,2.72-8.42,3.76-.73,6.48,1.75,7.47,7,7.64-.32,11,5.17,13.33,11s3.67,12.31,5.15,18.55a3.69,3.69,0,0,0,3,3.18c6.59,2.14,13.1,4.59,19.56,7.12,2.46,1,4.36,2.6,7.13-.05,1-.95,4.34-.06,6.29.75,2.84,1.2,5.6,2.74,7.12,5.85.36.73,2.69,1.34,3.42.89a48.69,48.69,0,0,0,8.59-6.4c2.65-2.6,4.6-5.9,7.1-8.68,3.17-3.55,5.37-3.68,9.71-1.78,1.79.78,4,.64,5.93,1.06a31.2,31.2,0,0,1,3.52,1.23c-.62,1.11-1,2.66-1.91,3.25a21.8,21.8,0,0,1-7.85,3.43c-8.92,1.6-12.53,12.82-6.1,19.54a36.39,36.39,0,0,0,11,7.33,57.91,57.91,0,0,0,25.49,4.9c3-.06,5.23.92,6,3.83.94,3.76,3.32,5.43,6.83,6.77,7.21,2.73,14.21,6.13,19.7,11.71,1.49,1.51,1.83,4.14,2.73,6.25a13.57,13.57,0,0,0,1.46,3c1.53,2,3.61,3.73,4.76,5.94,2.86,5.51,7.66,8.7,12.86,11.38,3.41,1.76,7.15,2.85,10.6,4.55a10.37,10.37,0,0,1,4.1,3.56c.53.84-.29,2.52-.51,3.83-1.17-.3-2.84-.22-3.42-1a8.22,8.22,0,0,0-6.19-3.45c-2-.25-3.92-2.16-5.76-3.48-6.8-4.84-13.69-9.61-21.76-11.95a30.66,30.66,0,0,0-10.74-.65,8.16,8.16,0,0,0-7.08,5c-.94,2.25-2.48,2.77-4.72,2.49-3.92-.49-7.86-.86-11.79-1.22a6.69,6.69,0,0,0-2.78.11c-1.66.59-4.42,1.28-4.57,2.26a7.57,7.57,0,0,0,1.86,5.48c4.68,5.25,10.77,8.45,17.36,10.65,7.13,2.39,13.65,5.39,17.82,12.23,2.4,4,7.13,4.78,11,6.72a31.49,31.49,0,0,1,7.6,4.69c3.46,3.27,2.88,6.12-1.27,8.3-3.91,2.05-5.69,5.12-5.7,9.57a25.43,25.43,0,0,0,8.43,19.43c.92.85,1.88,1.65,2.76,2.54,2.44,2.47,2.41,3.09-.31,5.21-2.08,1.63-1.32,3.32-.07,4.86,3.41,4.2,8.12,6.41,13.07,8.15a66.1,66.1,0,0,0,27.32,3.72c.41,0,.93-.23,1.22-.05,1,.58,1.84,1.3,2.74,2-.8.94-1.5,2.55-2.42,2.68a25.87,25.87,0,0,1-7.14-.06c-22.79-3.1-42.79-11.85-58.6-29.06-8-8.66-15.83-17.39-24.06-25.77-3.08-3.13-7-5.44-10.68-8-.94-.65-2.3-.7-3.86-1.13l-.24,3,.06-.05c-.69-3.08-3.54-3.73-5.64-5.39-6.2-4.85-11.92-10.31-17.94-15.4a41,41,0,0,0-5.47-3.36l.93-1.39c-2.42-.81-4.47-1.83-6.64-2.16-3.68-.56-6.67,2.33-7,6.3-.25,3.66-1.62,4.79-5.22,4.18-4.58-.78-7.83-3.72-10.9-6.88-8.27-8.51-17.38-15.88-28.58-20.13-4.44-1.69-9.19-2.58-13.83-3.75a8.49,8.49,0,0,0-2.37,0,72.49,72.49,0,0,0,1.37,7.77,5.86,5.86,0,0,0,2.37,2.64c4,2.82,4.36,8.33,2.48,11-2,2.85-6.86,4.58-9.32.45-2.29-3.84-5.39-5.79-9.13-7.41A12.33,12.33,0,0,1,387,230L380.54,234l-.6,7.84,2.5-.56.35.46c-2.47,1.61-4.78,3.58-7.45,4.72a7.31,7.31,0,0,1-8-1c-2.39,0-4.48.59-5.74-.17-3.34-2-.53-5-.81-7.93l2.43,1a8.93,8.93,0,0,1,3.19-9c2.86-2.51,6.09-1,9.46-1.3-.14-3.29.45-6.16,4.48-6.37.31,0,.67-.22.92-.12,3.91,1.61,3.88-1.1,4.1-4.3-16.62,2.85-30.74,11.34-46.72,17.92,2.48,2,4.21,3.28,5.9,4.67a12.88,12.88,0,0,1,4.69,8.84,20.71,20.71,0,0,1,.11,3.43c-.11,2.17,1,3.14,3,3.71a24.44,24.44,0,0,1,4.32,2.14l-.59,1c-.84-.71-1.63-1.93-2.55-2-2.44-.28-4.78-2-7.26,1.43-2,2.74-4.67,5.74-8.79,6.54-5.25,1-9.44,0-12.53-4.55a7.07,7.07,0,0,0-1.39-1.17c-4.2,2.46-8.31,4.86-12.42,7.28a4.22,4.22,0,0,0-1.5,1.09c-1.93,3.05-3.82,5.74-8.23,5.39-1.64-.13-2,2.77-.47,4.61,4.64,5.74,9.6,11.18,16.18,14.78a63.25,63.25,0,0,0,6.5,2.74c.57.24,1.31.28,1.73.67,6.83,6.38,15.87,8.38,24,12.11,3.39,1.55,6.94,2.73,10.59,4.15,1-2.7,3.13-4.87,0-7.53-1.41-1.21-.92-3.22.85-4.2s3.1,0,4,1.69a25.87,25.87,0,0,1,2,3.26,8.68,8.68,0,0,1,.6,4.26c-.29,1.43-1.38,2.7-2.3,4.39,2.79,1,5.39,2,8,3,14,5.31,28.1,10.34,41.89,16.12a59.8,59.8,0,0,1,14.81,9.55c2.09,1.75,3.11,5.28,3.71,8.19.55,2.71-1.53,4-4.18,3a14.38,14.38,0,0,1-5.1-2.88c-9.67-10-21.36-17.12-33.46-23.66a249,249,0,0,0-41.6-17.53c-6.2-2-12.5-3.75-18.81-5.36a6.15,6.15,0,0,0-4.15.88c-2.81,1.68-4.41,1.37-6.8-1.06a9.78,9.78,0,0,0-4.81-2.74,98.67,98.67,0,0,0-11.76-1.22c-4.67-.27-4.68-.18-5,4.95a21.76,21.76,0,0,1,2.91-.07,5.72,5.72,0,0,1,1.59.67,7.3,7.3,0,0,1-1.11,1.53,14.23,14.23,0,0,1-2.29,1.44,6.19,6.19,0,0,1-1.62.6c-1.34-2.59-3.78-.87-5.6-1.47-3-1-4.44-3-5.11-7.66-3.53.43-7.14.64-10.65,1.33a69.67,69.67,0,0,0-12.24,3.28,10.67,10.67,0,0,0-4.86,4.83c-6.11,11.94-11.94,24-17.9,36a30.57,30.57,0,0,1-2,3.14l-1.32-.49a30.18,30.18,0,0,1,1-5.07,58.24,58.24,0,0,1,3.42-7.34c4.17-7.65,3.64-11-3.23-17.21-2,1.79-4.09,3.58-6.08,5.48-16.69,16-33.32,32-50.06,47.9-1.81,1.73-2,3.13-1.29,5.43a25.4,25.4,0,0,1-3.55,22.3c-3.47,5.06-11.55,5.3-16.28.66a72,72,0,0,1-4.92-6c-1.73,1.25-3.48,2.51-5.21,3.78-10,7.35-20.36,14.12-31.8,19.08-2,.86-4.34,2.27-5.61-.65-1.14-2.63.65-4.22,3-5.28a47.56,47.56,0,0,0,5.28-2.68c8.59-5.24,10.5-12.63,4.82-24-5.06,1.67-10.14,3.41-15.27,5-20.93,6.6-42.36,9.66-64.29,8.1-6.62-.47-13.18-1.91-19.71-3.17a8.07,8.07,0,0,1-6.25-5.95c-.66-2.16-.07-4.24,1.91-5.06,1.51-.62,3.48-.29,5.21-.08.69.09,1.36.93,1.91,1.54,6.16,6.85,14.28,9.49,23.06,10.48,13.83,1.54,26.89-1.28,39.21-7.64a19.78,19.78,0,0,0,3.92-2.54c2.84-2.48,3.69-3.87,1.64-7.44-3-5.16-1.09-9.25,4.62-11.16,1.67-.55,3.52-.58,5.14-1.22a57.87,57.87,0,0,0,7.81-3.67c1.63-.92,2.18-2.52,1.75-4.57-.72-3.35-.56-6.66-3.19-9.73-2.24-2.6-.08-5.94,1.91-8.46,1.48-1.86,3.45-3.07,3.35-6.18-.06-1.65,2.4-3.56,4-5.05,5.22-4.81,4-9.91.88-15.34-2.4.55-4.52,1.29-5.94,3.76-3.2,5.56-7.08,6.44-12.59,3.19a5.79,5.79,0,0,0-1.09-.6C99.94,317,96.4,313.67,93,309.19c-2.71-3.62-3-6.68-2.53-10.52.35-3.08,1.65-5.18,4.7-6.32s2.76-1.74,1.1-4.49a58.47,58.47,0,0,1-5-11c-.38-1.07.55-3.19,1.55-4,.8-.62,2.63,0,4,.2.52.08,1,.63,1.81,1.24a8.31,8.31,0,0,0,0-2.14c-2.09-6-1.67-12.06-1.33-18.2.4-7.35,4.43-13.14,7.94-19.1a55.77,55.77,0,0,1,7.14-9.39c3-3.2,6.9-4.4,11.33-4.19a50.51,50.51,0,0,0,9.61-.21c5.91-.86,8.37-4.86,7.16-10.77a9.18,9.18,0,0,1-.21-3.69c.74-3.33,1.49-6.53.85-10.07-.5-2.76,1.68-4.37,4.53-4.16a6.41,6.41,0,0,0,1.23.18c2.14-.27,4.66,0,6.28-1.08,1.43-.94-.59-6.81-2.54-8.23a38.75,38.75,0,0,1-11.25-12.77,11.64,11.64,0,0,0-2-2.25l-2.41-11c.55-.87,1.66-1.91-.55-3.36a5.75,5.75,0,0,1-2.34-2.35c-.61-1.66-1.29-3.68-.82-5.21.28-.9,2.71-1.13,4.81-1.9.08-1.83.24-4.28.28-6.73.14-8.45-.37-16.83-2.86-25A38.23,38.23,0,0,0,125.72,99c-1.15-1.35-1.61-3.34-2.13-5.11-.07-.22,1.79-1.48,2.08-1.28,1.61,1.11,3.9,2.28,4.35,3.88,2.44,8.68,4.82,17.42,6.39,26.28,1.08,6.09.88,12.41,1.12,18.64.07,1.78-.06,3.2,2.39,3.45,1.17.12,2.24,1.27,4.38,2.58-2.27,1.44-3.93,2.34-5.4,3.49a4.93,4.93,0,0,0-1.94,2.6c-.72,4.69-.26,9.25,2.52,13.32Zm294.48-8.3c-.82-1.37-1.16-1.88-1.44-2.42-1.56-3-1.37-3.09,1.87-4.33,1-.38,1.68-1.87,2.31-3s.76-2.4,1.5-3.32c1.08-1.35,1-2.28-.21-3.43-5.71-5.25-12.7-7.29-20.18-8a2.29,2.29,0,0,0-1.75,1.45c-.19,5.08-.23,10.16-.2,15.24,0,3,1.35,4.71,4.68,4.84,2,.09,4,1.05,6,1.51C428.67,157.51,430.87,157.88,433.89,158.47Zm-36.44-19.19.19-.68a16.62,16.62,0,0,0,2.67,2.92c3.64,2.48,4.95,6.29,5.7,10.24.3,1.61-.18,3.17,2.17,3.11s4.83.51,5.24-2.85c.48-3.9,1.07-7.81,1.34-11.73.55-8,.45-6.77-6.6-6.71-1.9,0-3.77-.19-4.29,2.42-.06.29-2.64.55-2.78.25-1.07-2.38-2.95-1.88-4.45-1.13-1.17.59-1.93,2-2.86,3.07ZM171.25,254.39,174,252.8l-3.5-5.06c-1.51,4.87-3,8.61-3.77,12.51s1,5.22,5,4.86a14.18,14.18,0,0,0,3.08-.34c1.19-.4,3.3-1.31,3.23-1.67a37,37,0,0,0-2.31-7.26c0-.1-2.19.66-3.65,1.1Zm374.68-55.7c-1.15-5.66-12.9-15.31-19-15.86C530.36,191.55,537.08,196.07,545.93,198.69ZM225.81,126.5c-3.64,3.69-7.65,6.12-13.17,2.43,3.31,5.65,13.84,8.2,19.7,5.27C232.74,129.73,228.7,128.92,225.81,126.5Zm-22.4,16c2.44-.87,4.36-1.44,6.17-2.24a18.94,18.94,0,0,0,2.91-2c-.77-1-1.48-2.1-2.32-3.05a4.2,4.2,0,0,0-1.74-1.23c-1.7-.54-3.7-1.65-4.12,1.55-.07.55-.85,1-1.34,1.48s-1.9,1.38-1.79,1.66a25.6,25.6,0,0,0,2.23,3.85Zm214.64,13.3-.75.9a49,49,0,0,0,2.38,5.2c.55.92,2.09,2.3,2.42,2.11a8,8,0,0,0,3.39-3.18c.3-.66-.82-2.57-1.75-3.09A29.8,29.8,0,0,0,418.05,155.83ZM266.37,116.49l-.14-1.12c-1.67-1.3-3.27-2.71-5.05-3.84a3.56,3.56,0,0,0-2.6-.11,2,2,0,0,0-.57,1.76c1.24,1.4,2.48,3,4.1,3.79C263.21,117.48,264.93,116.69,266.37,116.49Zm-25.68,4.37-7-4.23,1.14,8.54ZM293.9,140c.76,2.43,1.9,4.55,4.1,3.41,1-.53.81-3.4,1.17-5.21l-1-.4L293.9,140ZM125.76,291l-.17-.85c-.94,0-2.43-.41-2.72,0a17,17,0,0,0-1.51,4l1.07.51Z" transform="translate(-21.33 -1.71)"/></svg>