<svg id="Layer_1" data-name="Layer 1" xmlns="http://www.w3.org/2000/svg" viewBox="0 0 605 382.1"><defs><style>.cls-1{fill:#15331b;}</style></defs><title>about-splatter1</title><path id="Path_51" data-name="Path 51" class="cls-1" d="M460.32,302.63c.28-6.57-2.92-11.77-6.63-17.58-1.08,3.7-2.49,5.54-6.16,4.21-1-.37-3.31.84-4,2a86.19,86.19,0,0,0-5.68,10.7c-1.36,3-2.35,6.18-3.42,9.32-.62,1.83-1.53,3.76-1.4,5.58.08,1.09,1.82,2.18,3,3.06,3.78,2.91,7.18,6.06,8.77,10.78,3.53,10.53.49,19.72-7.42,26.48-12.13,10.37-26.5,14-42.07,9.08-7.38-2.33-12-8-13.94-15.66-.37-1.43-.64-2.89-1.08-4.94-3.27,2.37-7.65,1.85-9.78,5.76a2.17,2.17,0,0,1-2.06.32,47.31,47.31,0,0,0-5.92-3.2c0,4.26-2.2,8.4,1.34,12,.37.38-.14,1.74-.41,2.59-.49,1.54-1.45,3-1.62,4.55-.51,4.63-.66,9.29-1.08,13.93-.56,6.27-4.22,10.26-10.41,11.41-5,.92-9.95,1.63-14.88,2.63-4.14.84-8.09,2.2-10.82,5.81l-.8-.34c1.16-3.53,1.93-7.25,3.54-10.56,4.11-8.49,8.82-16.7,12.87-25.22,3.31-6.95,6-14.19,9-21.32a21.57,21.57,0,0,0,.77-3.27l-8.06,1.73a32.33,32.33,0,0,1-1.75,3.54,4.47,4.47,0,0,1-5.58,2c-1.77-.56-3.5-1.22-4.74-1.65l7.1-8.37a12.91,12.91,0,0,1,1.38-14.75l-.71-.48c-.84.46-1.69.89-2.5,1.39-1,.61-1.91,1.72-2.94,1.83-2.69.3-4,1.58-3.64,4.78l-2.66-4.82c-1.65,3.37-2.34,6.65-4.36,8.37-1.76,1.51-5,1.27-8.08,1.89-.7-3.77-1.82-6.78-1.63-9.71.13-2.21,1.09-4.37,0-6.57-.46-.95-.94-2.18-1.77-2.6-6.41-3.3-6.44-3.25-9-9l-10.45,14.3,3.14.73a78.55,78.55,0,0,1-2.3,8.47c-.24.65-2.09,1.06-3.15,1-3.5-.26-4.75-3.25-3.75-8.76l-7.27-.55c1.86,2.5-.35,6.38,4.2,7.71,1.83.53,1.47,2.91.27,4.43a14.22,14.22,0,0,1-2.58,1.93l5.71,8.22a10.12,10.12,0,0,1,.86-2.54,3.07,3.07,0,0,1,1.64-.9,35,35,0,0,1,3.76,5.21c.1.2-1.82,1.52-2.8,2.31l-2.54-3.55c-.36.86-1.31,2.09-1.3,3.31a13.44,13.44,0,0,1-3.09,8.9,10.64,10.64,0,0,1-15,1.49l-.19-.17c-7.65-6.47-6.49-20.26,4.35-23.17,1.87-.5,3.91-.35,6.4-.54a28.92,28.92,0,0,1-1.9-4.58c-.52-2.36-1.5-5.05-.82-7.13s3-3.93,4.84-5.63a15.26,15.26,0,0,1,4.07-2.51c2.64-1.2,5.56-2,4.62-6a11.15,11.15,0,0,1,3.31-1.2c.8-.15,2.06.66,2.5.29,3-2.53,5.87-5.24,8.75-7.93.15-.14,0-.6,0-1.4L293,302l-1.91-2.4,2.63,1.29-1.1.22L290,293l.65-.67a31.59,31.59,0,0,0-2.31,2.72c-3.53,5.24-7,10.5-10.52,15.76-1.34,2-2.92,3.75-2.72,6.59a3.68,3.68,0,0,1-3.52,3.91,5.28,5.28,0,0,0-2.82,1.69,41.79,41.79,0,0,0-4.48,5.44,38.25,38.25,0,0,0-2.48,5.36c-4.69-.39-5.84,5.28-9.3,7.95a1.76,1.76,0,0,0-.14,1.68c.93,1.55,2.06,3.32-.08,4.35-1.16.56-3-.23-5.06-.49-5.16,4.55-10.76,9.85-16.73,14.68-17.05,13.78-35.3,25.49-56.78,31.22A81.46,81.46,0,0,1,152,396.21c7.06-1.31,14.15-2.23,21-4,15.72-4,29.42-12.21,42.66-21.28A242.5,242.5,0,0,0,262,329.45c.83-1,1.58-2,1.87-2.37l-1.17-3.9,3.71-.26c1.88-.78,3.25-2.16,2.36-5-.82-2.56,1.05-4.41,4-4.34,1.58.05,2.55-.09,2.33-2a1.39,1.39,0,0,1,.54-1.1c2.91-1.74,11.18-13.63,12.29-17.83l-4.81-3.56-6.2,4.67,1,.39-1,5.38-4.23-2.83c-6,2.42-12.75,5.39-19.68,7.82a70.63,70.63,0,0,1-12.13,2.64,7.83,7.83,0,0,1-4.36-.77c-2.57-1.24-4.51-2.8-8-1.13-2.84,1.37-4.4-2-5.41-5.14-3.07.77-6,1.63-9,2.25-3.36.69-7,2.36-9.56-1.71-.18-.29-1-.06-1.45-.31-1-.6-2.53-1.19-2.76-2.07a5.77,5.77,0,0,1,.62-4.11c1.16-1.84,3.21-1.51,4.34.38,3.25,5.41,8.89,7.48,14.4,4.31,4.29-2.47,7.88-6.15,11.83-9.23,3-2.37,6-4.81,9.26-6.9,1.71-1.11,3.87-1.52,6.52-2.5-.28,2.14-.5,3.46-.61,4.78-.19,2.05.65,3.41,2.83,3.42a16.24,16.24,0,0,0,4.76-.5c11.33-3.49,21.15-9.8,30.64-16.69a8.36,8.36,0,0,0,1.11-1.54c-1.79-.77-3.34-1.53-5-2.1s-3.27-.95-4.91-1.43c-.3-.08-.64-.38-.89-.31a53.71,53.71,0,0,0-8.09,2.35c-5.93,2.67-9.9,3.05-13.85-1.05-4.27-4.42-9-2.35-12.72-1.21l-7,14.38a17.53,17.53,0,0,0-3.85-1c-6.75-.19-9.52-1.82-11.24-7.85-.71-2.47-1.74-2.51-3.68-1.94-.55,1.88-1,3.84-1.69,5.72-1.46,4-4.92,6.64-8.31,6.47s-7.69-3.37-7.6-7.51c.12-5.78-3.3-5.95-7.26-6.64-4.28-.75-8.48-2-13.1-3.06-1.21,8-1.72,15.62,3.36,22.5,1.51,2.05,3,4.13,4.61,6.07.56.66,1.7,1.43,2.39,1.28,2.91-.61,2.73,1,2.19,2.92,5.78-.19,7.37.89,7.32,4.78-.06,4.92-2,7.87-5,7.66-3.94-.27-6-3.46-5.58-8.9-7.7-1.72-9.6-8.09-10.35-14.51s-.37-13.22-.19-19.83c.06-2-.44-2.86-2.14-4-6-3.9-11.82-8.06-17.58-12.3-2.19-1.61-3.65-3.75-7.1-1.85-1.25.68-4.34-1.09-6.06-2.42-2.51-2-4.85-4.21-5.54-7.72-.16-.82-2.31-2.05-3.16-1.79a49.89,49.89,0,0,0-10.26,4.08c-3.33,1.88-6.15,4.64-9.37,6.75-4.11,2.69-6.33,2.22-10.15-.82-1.57-1.25-3.77-1.69-5.61-2.64a28.67,28.67,0,0,1-3.18-2.16c.91-.94,1.67-2.38,2.76-2.72a22.43,22.43,0,0,1,8.73-1.32c9.31.78,15.89-9.43,11.28-17.83a37.65,37.65,0,0,0-9-10.24,59.66,59.66,0,0,0-24.07-11.65c-3.06-.76-5-2.32-4.91-5.4.06-4-1.86-6.3-5-8.56-6.44-4.64-12.51-9.88-16.49-16.9-1.08-1.9-.71-4.62-1.05-6.95a14.47,14.47,0,0,0-.66-3.37c-1-2.42-2.6-4.68-3.16-7.18-1.38-6.25-5.3-10.7-9.77-14.75-2.93-2.66-6.36-4.75-9.34-7.35a10.62,10.62,0,0,1-3.13-4.64c-.3-1,1-2.43,1.52-3.67,1.09.61,2.78,1,3.15,1.88a8.49,8.49,0,0,0,5.24,5.08c2,.79,3.32,3.19,4.81,5,5.48,6.63,11.07,13.21,18.48,17.69a31.27,31.27,0,0,0,10.51,3.5,8.4,8.4,0,0,0,8.38-3.07c1.54-2,3.21-2.1,5.36-1.23,3.77,1.54,7.59,2.95,11.41,4.36a6.93,6.93,0,0,0,2.8.63c1.82-.15,4.75-.1,5.16-1a7.87,7.87,0,0,0-.39-6c-3.26-6.47-8.48-11.28-14.45-15.23-6.46-4.27-12.15-9-14.48-16.92-1.34-4.57-5.82-6.64-9.16-9.61-2.29-2-4.73-4.13-6.31-6.69-2.59-4.18-1.24-6.86,3.47-7.93,4.43-1,7-3.58,8.21-8A26.16,26.16,0,0,0,72.2,60c-.69-1.09-1.43-2.15-2.07-3.27-1.77-3.1-1.58-3.71,1.69-5.1,2.51-1.07,2.21-3,1.37-4.82-2.28-5.08-6.38-8.54-10.84-11.59a68.18,68.18,0,0,0-26.2-11c-.42-.07-1,0-1.23-.27-.8-.84-1.49-1.78-2.21-2.68,1-.72,2.17-2.14,3.12-2a26.48,26.48,0,0,1,7.1,2c21.85,9.15,39.43,23.18,50.58,44.52,5.61,10.74,11.13,21.53,17.1,32.06,2.23,3.94,5.53,7.29,8.5,10.77.77.9,2.11,1.31,3.55,2.16l1-2.93-.08,0c-.12,3.25,2.53,4.66,4.19,6.86,4.87,6.49,9.11,13.44,13.74,20.11a43.19,43.19,0,0,0,4.56,4.8l-1.3,1.14c2.19,1.45,4,3,6,3.91,3.52,1.55,7.26-.53,8.6-4.42,1.22-3.57,2.89-4.33,6.31-2.77,4.34,2,6.8,5.79,9,9.75,6,10.68,13.07,20.44,23.09,27.65,4,2.87,8.46,5,12.76,7.41a8.55,8.55,0,0,0,2.37.62,75.8,75.8,0,0,0,.71-8.09,6.08,6.08,0,0,0-1.66-3.26c-3.24-3.87-2.13-9.46.45-11.58,2.78-2.29,8-2.74,9.4,2,1.26,4.44,3.82,7.2,7.12,9.81a13.34,13.34,0,0,1,1.72,2l7.49-2.33,2.67-7.64-2.62-.11-.23-.56c2.89-.94,5.71-2.29,8.67-2.71a7.55,7.55,0,0,1,7.67,3.16c2.38.66,4.62.61,5.67,1.71,2.79,2.89-.81,5.16-1.3,8.1l-2.16-1.61a9.2,9.2,0,0,1-5.57,8.1c-3.52,1.73-6.32-.67-9.77-1.22-.74,3.31-2.09,6-6.16,5.14-.31-.07-.72,0-.94-.12-3.46-2.64-4.16,0-5.23,3.18,17.3,1.59,33.62-3.1,51.28-5.39-1.94-2.61-3.32-4.39-4.63-6.22a13.27,13.27,0,0,1-2.31-10.05,21.57,21.57,0,0,1,.8-3.45c.68-2.12-.13-3.37-2-4.48a25.56,25.56,0,0,1-3.73-3.28l.84-.79c.65.93,1.11,2.35,2,2.7,2.36.93,4.23,3.3,7.62.51,2.67-2.2,6.17-4.47,10.48-4.17,5.5.39,9.41,2.49,11.26,7.86a6.89,6.89,0,0,0,1.08,1.54c4.83-1.33,9.56-2.62,14.29-3.94a4.44,4.44,0,0,0,1.79-.68c2.73-2.52,5.33-4.7,9.62-3.18,1.61.56,2.69-2.24,1.7-4.47-3.09-7-6.57-13.68-12.17-19a68.79,68.79,0,0,0-5.73-4.47c-.51-.39-1.24-.62-1.55-1.13-5.11-8.16-13.57-12.56-20.69-18.44-3-2.44-6.18-4.57-9.44-7-1.69,2.43-4.41,4-2,7.5,1.08,1.57.06,3.45-2,4s-3.09-.84-3.54-2.75c-.31-1.28-1-2.5-1.12-3.77a8.87,8.87,0,0,1,.54-4.4c.66-1.35,2.08-2.33,3.46-3.76-2.5-1.77-4.84-3.4-7.15-5.07-12.51-9-25.22-17.77-37.4-27.2a61.58,61.58,0,0,1-12.2-13.45c-1.62-2.3-1.69-6.09-1.51-9.14.17-2.85,2.59-3.6,4.95-1.86a14.71,14.71,0,0,1,4.31,4.22c7,12.54,16.71,22.73,27,32.47a257.94,257.94,0,0,0,36.75,28.52c5.63,3.66,11.44,7.06,17.3,10.34a6.34,6.34,0,0,0,4.37.23c3.23-.92,4.75-.19,6.48,2.86a10,10,0,0,0,4.05,4,101.14,101.14,0,0,0,11.39,4.35c4.57,1.52,4.61,1.42,6.29-3.59a27,27,0,0,1-2.92-.71,5.72,5.72,0,0,1-1.4-1.1,8.49,8.49,0,0,1,1.51-1.22,14.47,14.47,0,0,1,2.67-.82,6.12,6.12,0,0,1,1.76-.17c.65,2.94,3.54,1.88,5.19,3,2.76,1.8,3.62,4.16,3,9,3.63.52,7.28,1.27,11,1.51a70.34,70.34,0,0,0,13.06,0,10.9,10.9,0,0,0,6.12-3.51c9.26-10.25,18.28-20.72,27.41-31.09a35,35,0,0,1,2.86-2.58l1.18.84a32.15,32.15,0,0,1-2.38,4.77,61.78,61.78,0,0,1-5.36,6.4c-6.2,6.5-6.57,10-1.37,18,2.46-1.26,5-2.48,7.51-3.84,20.87-11.46,41.69-23,62.6-34.36,2.26-1.23,2.77-2.58,2.72-5a26.14,26.14,0,0,1,9.47-21.25c4.8-4.12,12.91-2.21,16.39,3.68a75.52,75.52,0,0,1,3.3,7.27L510,69.16c11.92-4.65,24-8.63,36.73-10.52,2.22-.33,4.93-1.11,5.41,2.13.44,2.92-1.77,4-4.37,4.46a50.83,50.83,0,0,0-6,1.26c-9.94,2.93-13.81,9.78-11.19,22.63,5.48-.31,11-.69,16.53-.94,22.6-1,44.75,1.67,66.16,9.07,6.46,2.23,12.61,5.4,18.77,8.4a8.29,8.29,0,0,1,4.64,7.59c.08,2.32-1.06,4.23-3.25,4.52-1.66.22-3.54-.63-5.2-1.3-.67-.27-1.11-1.29-1.5-2C622.39,106,615,101.16,606.54,97.85,593.18,92.62,579.44,92,565.48,95a21,21,0,0,0-4.58,1.49c-3.48,1.71-4.7,2.87-3.62,7,1.57,5.92-1.37,9.5-7.56,9.88-1.81.1-3.66-.36-5.45-.16a62,62,0,0,0-8.75,1.57c-1.86.5-2.84,1.94-2.95,4.09-.18,3.53-1.22,6.79.58,10.54,1.53,3.18-1.51,5.93-4.16,7.91-2,1.46-4.25,2.14-5,5.26-.39,1.66-3.35,2.9-5.34,3.95-6.47,3.4-6.57,8.82-5,15,2.54.09,4.84-.08,6.92-2.16,4.65-4.68,8.75-4.52,13.37.18a6,6,0,0,0,.93.89c4.66,3.15,7.3,7.4,9.45,12.75,1.74,4.33,1.17,7.45-.28,11.16-1.16,3-3,4.71-6.36,5s-3.21,1-2.29,4.19a59.76,59.76,0,0,1,2,12.23c.09,1.17-1.4,3-2.6,3.53-1,.41-2.62-.67-3.9-1.25-.49-.22-.78-.88-1.47-1.71a8.47,8.47,0,0,0-.53,2.13c.5,6.48-1.55,12.45-3.52,18.47-2.36,7.21-7.91,11.9-13,16.9a56.75,56.75,0,0,1-9.61,7.44c-3.8,2.4-8,2.55-12.39,1.16a51.47,51.47,0,0,0-9.63-2.35c-6.1-.71-9.62,2.61-10,8.81a9.54,9.54,0,0,1-.77,3.73c-1.63,3.12-3.22,6.11-3.53,9.8-.24,2.88-2.83,3.91-5.61,2.93a7.59,7.59,0,0,0-1.18-.5c-2.2-.3-4.64-1.23-6.55-.59-1.66.55-1.22,6.93.34,8.87a39.87,39.87,0,0,1,7.81,15.7,12,12,0,0,0,1.33,2.77l-.53,11.57c-.77.73-2.15,1.46-.34,3.49a6,6,0,0,1,1.7,3c.17,1.82.31,4-.57,5.41-.51.82-3,.41-5.29.61-.57,1.8-1.38,4.2-2.08,6.63-2.38,8.37-4.11,16.85-3.8,25.63a39.56,39.56,0,0,0,4.1,15.75c.79,1.65.72,3.75.77,5.65,0,.25-2.18,1-2.41.73-1.32-1.54-3.28-3.31-3.31-5-.11-9.28-.15-18.62.64-27.86.55-6.35,2.43-12.59,3.85-18.85.4-1.79.91-3.17-1.46-4.07-1.13-.43-1.89-1.86-3.67-3.73,2.65-.84,4.54-1.29,6.3-2a5.06,5.06,0,0,0,2.62-2.07c2-4.48,2.73-9.14,1-13.93ZM165,232.49c.45,1.58.66,2.18.79,2.79.76,3.38.55,3.43-3,3.8-1.11.12-2.17,1.42-3.09,2.34s-1.4,2.19-2.37,2.91c-1.43,1-1.65,2-.71,3.46,4.29,6.75,10.7,10.65,17.94,13.39a2.41,2.41,0,0,0,2.14-1c1.53-5,2.93-10.05,4.26-15.11.78-3-.09-5.05-3.37-6.07-2-.63-3.71-2.11-5.6-3.11S167.84,233.88,165,232.49Zm31.17,28.81-.37.61a17.88,17.88,0,0,0-1.88-3.61c-3-3.45-3.26-7.58-3-11.71.13-1.69,1-3.11-1.34-3.67s-4.66-1.8-6,1.43c-1.52,3.76-3.14,7.49-4.45,11.32-2.69,7.85-2.26,6.62,4.78,8.44,1.9.49,3.7,1.19,4.92-1.27.13-.27,2.77.16,2.83.5.43,2.65,2.43,2.66,4.13,2.31,1.32-.28,2.45-1.5,3.67-2.3ZM452,206.94l-3.15.86,2.13,6c2.8-4.45,5.3-7.77,7.09-11.45s.36-5.47-3.69-6.17a14,14,0,0,0-3.16-.48c-1.28.07-3.63.42-3.66.8a38.82,38.82,0,0,0,.37,7.84c1.31,0,2.62,0,3.93-.13ZM64.16,162.62c-.36,5.93,8.77,18.67,14.68,20.84C77.76,173.87,72.28,167.58,64.16,162.62ZM363.6,319.71c4.6-2.7,9.24-4,13.75,1.09-1.79-6.51-11.59-11.84-18.2-10.49C357.56,314.65,361.36,316.53,363.6,319.71Zm26.56-10c-2.65.21-4.72.27-6.74.59a19,19,0,0,0-3.43,1.24c.49,1.22.92,2.48,1.5,3.65a4.31,4.31,0,0,0,1.4,1.68c1.55,1,3.24,2.63,4.52-.44.22-.53,1.12-.79,1.73-1.12.77-.42,2.25-.87,2.22-1.17a26.13,26.13,0,0,0-1.2-4.43ZM180.05,239.33l1-.7a48,48,0,0,0-1-5.81c-.29-1.06-1.46-2.84-1.84-2.74a8.21,8.21,0,0,0-4.22,2.27c-.48.57.13,2.77.92,3.54A30.8,30.8,0,0,0,180.05,239.33Zm140.51,79.55L320.4,320c1.32,1.74,2.53,3.57,4,5.17A3.65,3.65,0,0,0,327,326c.38,0,1.19-1.27,1-1.59-.85-1.73-1.66-3.68-3.06-4.86C324,318.73,322.05,319.06,320.56,318.88Zm26.73,2.49,5.86,6.08,1.14-8.8Zm-47.86-33.25c-.12-2.63-.68-5-3.18-4.49-1.15.26-1.72,3.17-2.55,4.88l.9.66ZM507,182.66l-.06.89c.93.27,2.3,1,2.71.71a17.32,17.32,0,0,0,2.56-3.55l-.93-.78Z" transform="translate(-31.65 -19.3)"/></svg>