<svg id="Layer_1" data-name="Layer 1" xmlns="http://www.w3.org/2000/svg" xmlns:xlink="http://www.w3.org/1999/xlink" viewBox="0 0 556.29 395.35"><defs><style>.cls-1{fill:url(#linear-gradient);}.cls-2{fill:url(#linear-gradient-2);}.cls-3{fill:url(#linear-gradient-3);}.cls-4{fill:url(#linear-gradient-4);}.cls-5{fill:url(#linear-gradient-5);}.cls-6{fill:url(#linear-gradient-6);}.cls-7{fill:url(#linear-gradient-7);}.cls-8{fill:url(#linear-gradient-8);}.cls-9{fill:url(#linear-gradient-9);}.cls-10{fill:url(#linear-gradient-10);}.cls-11{fill:url(#linear-gradient-11);}.cls-12{fill:url(#linear-gradient-12);}.cls-13{fill:url(#linear-gradient-13);}.cls-14{fill:url(#linear-gradient-14);}.cls-15{fill:url(#linear-gradient-15);}.cls-16{fill:url(#linear-gradient-16);}.cls-17{fill:url(#linear-gradient-17);}.cls-18{fill:url(#linear-gradient-18);}.cls-19{fill:url(#linear-gradient-19);}.cls-20{fill:url(#linear-gradient-20);}.cls-21{fill:url(#linear-gradient-21);}.cls-22{fill:url(#linear-gradient-22);}.cls-23{fill:url(#linear-gradient-23);}.cls-24{fill:url(#linear-gradient-24);}.cls-25{fill:url(#linear-gradient-25);}.cls-26{fill:url(#linear-gradient-26);}.cls-27{fill:url(#linear-gradient-27);}.cls-28{fill:url(#linear-gradient-28);}.cls-29{fill:url(#linear-gradient-29);}.cls-30{fill:url(#linear-gradient-30);}.cls-31{fill:url(#linear-gradient-31);}.cls-32{fill:url(#linear-gradient-32);}.cls-33{fill:url(#linear-gradient-33);}.cls-34{fill:url(#linear-gradient-34);}.cls-35{fill:url(#linear-gradient-35);}.cls-36{fill:url(#linear-gradient-36);}.cls-37{fill:url(#linear-gradient-37);}.cls-38{fill:url(#linear-gradient-38);}.cls-39{fill:url(#linear-gradient-39);}.cls-40{fill:url(#linear-gradient-40);}.cls-41{fill:url(#linear-gradient-41);}.cls-42{fill:url(#linear-gradient-42);}.cls-43{fill:url(#linear-gradient-43);}.cls-44{fill:url(#linear-gradient-44);}.cls-45{fill:url(#linear-gradient-45);}.cls-46{fill:url(#linear-gradient-46);}.cls-47{fill:url(#linear-gradient-47);}.cls-48{fill:url(#linear-gradient-48);}.cls-49{fill:url(#linear-gradient-49);}.cls-50{fill:url(#linear-gradient-50);}.cls-51{fill:url(#linear-gradient-51);}.cls-52{fill:url(#linear-gradient-52);}.cls-53{fill:url(#linear-gradient-53);}.cls-54{fill:url(#linear-gradient-54);}.cls-55{fill:url(#linear-gradient-55);}.cls-56{fill:url(#linear-gradient-56);}.cls-57{fill:url(#linear-gradient-57);}.cls-58{fill:url(#linear-gradient-58);}.cls-59{fill:url(#linear-gradient-59);}.cls-60{fill:url(#linear-gradient-60);}.cls-61{fill:url(#linear-gradient-61);}.cls-62{fill:url(#linear-gradient-62);}.cls-63{fill:url(#linear-gradient-63);}.cls-64{fill:url(#linear-gradient-64);}.cls-65{fill:url(#linear-gradient-65);}.cls-66{fill:url(#linear-gradient-66);}.cls-67{fill:url(#linear-gradient-67);}.cls-68{fill:url(#linear-gradient-68);}.cls-69{fill:url(#linear-gradient-69);}.cls-70{fill:url(#linear-gradient-70);}.cls-71{fill:url(#linear-gradient-71);}.cls-72{fill:url(#linear-gradient-72);}.cls-73{fill:url(#linear-gradient-73);}.cls-74{fill:url(#linear-gradient-74);}.cls-75{fill:url(#linear-gradient-75);}.cls-76{fill:url(#linear-gradient-76);}.cls-77{fill:url(#linear-gradient-77);}.cls-78{fill:url(#linear-gradient-78);}.cls-79{fill:url(#linear-gradient-79);}.cls-80{fill:url(#linear-gradient-80);}.cls-81{fill:url(#linear-gradient-81);}.cls-82{fill:url(#linear-gradient-82);}.cls-83{fill:url(#linear-gradient-83);}.cls-84{fill:url(#linear-gradient-84);}.cls-85{fill:url(#linear-gradient-85);}.cls-86{fill:url(#linear-gradient-86);}.cls-87{fill:url(#linear-gradient-87);}.cls-88{fill:url(#linear-gradient-88);}.cls-89{fill:url(#linear-gradient-89);}.cls-90{fill:url(#linear-gradient-90);}.cls-91{fill:url(#linear-gradient-91);}.cls-92{fill:url(#linear-gradient-92);}.cls-93{fill:url(#linear-gradient-93);}.cls-94{fill:url(#linear-gradient-94);}.cls-95{fill:url(#linear-gradient-95);}.cls-96{fill:url(#linear-gradient-96);}.cls-97{fill:url(#linear-gradient-97);}.cls-98{fill:url(#linear-gradient-98);}.cls-99{fill:url(#linear-gradient-99);}.cls-100{fill:url(#linear-gradient-100);}.cls-101{fill:url(#linear-gradient-101);}.cls-102{fill:url(#linear-gradient-102);}.cls-103{fill:url(#linear-gradient-103);}.cls-104{fill:url(#linear-gradient-104);}.cls-105{fill:url(#linear-gradient-105);}.cls-106{fill:url(#linear-gradient-106);}.cls-107{fill:url(#linear-gradient-107);}.cls-108{fill:url(#linear-gradient-108);}.cls-109{fill:url(#linear-gradient-109);}.cls-110{fill:url(#linear-gradient-110);}.cls-111{fill:url(#linear-gradient-111);}.cls-112{fill:url(#linear-gradient-112);}.cls-113{fill:url(#linear-gradient-113);}.cls-114{fill:url(#linear-gradient-114);}.cls-115{fill:url(#linear-gradient-115);}.cls-116{fill:url(#linear-gradient-116);}.cls-117{fill:url(#linear-gradient-117);}.cls-118{fill:url(#linear-gradient-118);}.cls-119{fill:url(#linear-gradient-119);}.cls-120{fill:url(#linear-gradient-120);}.cls-121{fill:url(#linear-gradient-121);}.cls-122{fill:url(#linear-gradient-122);}.cls-123{fill:url(#linear-gradient-123);}.cls-124{fill:url(#linear-gradient-124);}.cls-125{fill:url(#linear-gradient-125);}.cls-126{fill:url(#linear-gradient-126);}.cls-127{fill:url(#linear-gradient-127);}.cls-128{fill:url(#linear-gradient-128);}.cls-129{fill:url(#linear-gradient-129);}.cls-130{fill:url(#linear-gradient-130);}.cls-131{fill:url(#linear-gradient-131);}.cls-132{fill:url(#linear-gradient-132);}</style><linearGradient id="linear-gradient" x1="1.57" y1="420.07" x2="1.57" y2="419.68" gradientTransform="matrix(-638.53, -44.79, -43.45, 619.49, 19625.63, -259739.35)" gradientUnits="userSpaceOnUse"><stop offset="0" stop-color="#42b649"/><stop offset="1" stop-color="#00743f"/></linearGradient><linearGradient id="linear-gradient-2" x1="13.41" y1="415.97" x2="13.41" y2="415.59" gradientTransform="matrix(-71.4, -5.01, -6.7, 95.46, 4270.89, -39273.05)" xlink:href="#linear-gradient"/><linearGradient id="linear-gradient-3" x1="6.97" y1="411.11" x2="6.97" y2="410.72" gradientTransform="matrix(-57.6, -4.04, -3.87, 55.12, 2170.6, -22246.22)" xlink:href="#linear-gradient"/><linearGradient id="linear-gradient-4" x1="34.29" y1="416.08" x2="34.29" y2="415.69" gradientTransform="matrix(-25.12, -1.76, -2.24, 32, 2291.54, -13092.54)" xlink:href="#linear-gradient"/><linearGradient id="linear-gradient-5" x1="14.05" y1="401.78" x2="14.05" y2="401.39" gradientTransform="matrix(-22.7, -1.59, -1.8, 25.71, 1184.68, -9955.49)" xlink:href="#linear-gradient"/><linearGradient id="linear-gradient-6" x1="33.94" y1="395.73" x2="33.94" y2="395.35" gradientTransform="matrix(-15.39, -1.08, -1.51, 21.59, 1390.48, -8115.49)" xlink:href="#linear-gradient"/><linearGradient id="linear-gradient-7" x1="14.84" y1="395.33" x2="14.84" y2="394.95" gradientTransform="matrix(-17.37, -1.22, -1.35, 19.25, 896.19, -7245.28)" xlink:href="#linear-gradient"/><linearGradient id="linear-gradient-8" x1="52.77" y1="402.69" x2="52.77" y2="402.31" gradientTransform="matrix(-17.66, -1.24, -1.22, 17.38, 1958.25, -6666.51)" xlink:href="#linear-gradient"/><linearGradient id="linear-gradient-9" x1="27.68" y1="380.22" x2="27.68" y2="379.83" gradientTransform="matrix(-33.35, -2.34, -0.69, 9.87, 1708.02, -3369.62)" xlink:href="#linear-gradient"/><linearGradient id="linear-gradient-10" x1="67.76" y1="413.93" x2="67.76" y2="413.54" gradientTransform="matrix(-13.14, -0.92, -1.04, 14.83, 1841.49, -5944.72)" xlink:href="#linear-gradient"/><linearGradient id="linear-gradient-11" x1="34.83" y1="396.45" x2="34.83" y2="396.06" gradientTransform="matrix(-27.39, -1.92, -1.19, 16.9, 1965.99, -6304.3)" xlink:href="#linear-gradient"/><linearGradient id="linear-gradient-12" x1="87.73" y1="407.66" x2="87.73" y2="407.28" gradientTransform="matrix(-9.93, -0.7, -1.03, 14.67, 1795.38, -5729.68)" xlink:href="#linear-gradient"/><linearGradient id="linear-gradient-13" x1="57.21" y1="392.17" x2="57.21" y2="391.79" gradientTransform="matrix(-14.44, -1.01, -1.04, 14.8, 1698.88, -5414.33)" xlink:href="#linear-gradient"/><linearGradient id="linear-gradient-14" x1="73.63" y1="404.88" x2="73.63" y2="404.5" gradientTransform="matrix(-10.79, -0.76, -1.03, 14.76, 1668.83, -5707.55)" xlink:href="#linear-gradient"/><linearGradient id="linear-gradient-15" x1="96.04" y1="370.81" x2="96.04" y2="370.43" gradientTransform="matrix(-7.96, -0.56, -0.8, 11.34, 1481.95, -3733.93)" xlink:href="#linear-gradient"/><linearGradient id="linear-gradient-16" x1="67.41" y1="387.72" x2="67.41" y2="387.34" gradientTransform="matrix(-12.36, -0.87, -0.91, 12.96, 1655.79, -4633.39)" xlink:href="#linear-gradient"/><linearGradient id="linear-gradient-17" x1="27.86" y1="327.63" x2="27.86" y2="327.24" gradientTransform="matrix(-31.44, -2.21, -0.3, 4.23, 1466.15, -1011.22)" xlink:href="#linear-gradient"/><linearGradient id="linear-gradient-18" x1="96.29" y1="411.12" x2="96.29" y2="410.74" gradientTransform="matrix(-6.71, -0.47, -0.78, 11.09, 1335.22, -4391.73)" xlink:href="#linear-gradient"/><linearGradient id="linear-gradient-19" x1="36.81" y1="-39.76" x2="36.81" y2="-40.15" gradientTransform="matrix(-25.22, -1.77, -0.06, 0.88, 1453.2, 421.05)" xlink:href="#linear-gradient"/><linearGradient id="linear-gradient-20" x1="117.91" y1="346.02" x2="117.91" y2="345.64" gradientTransform="matrix(-7.43, -0.52, -0.45, 6.39, 1527.09, -1782.05)" xlink:href="#linear-gradient"/><linearGradient id="linear-gradient-21" x1="0.86" y1="420.93" x2="0.56" y2="420.94" gradientTransform="matrix(161.01, -913.11, -1114.92, -196.59, 469449.25, 83582.96)" gradientUnits="userSpaceOnUse"><stop offset="0" stop-color="#42b649"/><stop offset="1" stop-color="#97cc6d"/></linearGradient><linearGradient id="linear-gradient-22" x1="6.36" y1="424.75" x2="6.07" y2="424.75" gradientTransform="matrix(12.34, -69.96, -90.97, -16.04, 38731.17, 7567.27)" xlink:href="#linear-gradient-21"/><linearGradient id="linear-gradient-23" x1="1.17" y1="422.82" x2="0.88" y2="422.83" gradientTransform="matrix(34.08, -193.3, -119.41, -21.06, 50590.47, 9217.76)" xlink:href="#linear-gradient-21"/><linearGradient id="linear-gradient-24" x1="5.01" y1="427.85" x2="4.72" y2="427.85" gradientTransform="matrix(14.97, -84.88, -64.93, -11.45, 27936.65, 5621.69)" xlink:href="#linear-gradient-21"/><linearGradient id="linear-gradient-25" x1="6.56" y1="424.39" x2="6.27" y2="424.39" gradientTransform="matrix(10.16, -57.6, -52.89, -9.33, 22441.23, 4589.87)" xlink:href="#linear-gradient-21"/><linearGradient id="linear-gradient-26" x1="0.11" y1="424.98" x2="-0.19" y2="424.99" gradientTransform="matrix(8.74, -49.54, -130.56, -23.02, 55828.15, 9855.47)" xlink:href="#linear-gradient-21"/><linearGradient id="linear-gradient-27" x1="0.5" y1="431.35" x2="0.21" y2="431.35" gradientTransform="matrix(12.17, -69.02, -71.89, -12.68, 31465.99, 5597.21)" xlink:href="#linear-gradient-21"/><linearGradient id="linear-gradient-28" x1="1.95" y1="423.82" x2="1.66" y2="423.83" gradientTransform="matrix(9.9, -56.16, -57.91, -10.21, 24608.27, 4521.58)" xlink:href="#linear-gradient-21"/><linearGradient id="linear-gradient-29" x1="1.88" y1="432.54" x2="1.59" y2="432.54" gradientTransform="matrix(15.53, -88.1, -65.91, -11.62, 28937.75, 5360.18)" xlink:href="#linear-gradient-21"/><linearGradient id="linear-gradient-30" x1="7.5" y1="430.66" x2="7.21" y2="430.66" gradientTransform="matrix(10.09, -57.21, -43.62, -7.69, 18914.45, 4053.65)" xlink:href="#linear-gradient-21"/><linearGradient id="linear-gradient-31" x1="0.72" y1="432.27" x2="0.43" y2="432.27" gradientTransform="matrix(7.91, -44.86, -40.98, -7.23, 17982.71, 3230.59)" xlink:href="#linear-gradient-21"/><linearGradient id="linear-gradient-32" x1="2.9" y1="429.5" x2="2.61" y2="429.5" gradientTransform="matrix(10.27, -58.24, -43.74, -7.71, 18960.68, 3624.78)" xlink:href="#linear-gradient-21"/><linearGradient id="linear-gradient-33" x1="5.65" y1="439.36" x2="5.35" y2="439.36" gradientTransform="matrix(7.48, -42.4, -38.46, -6.78, 17261.04, 3452.39)" xlink:href="#linear-gradient-21"/><linearGradient id="linear-gradient-34" x1="5.17" y1="429.81" x2="4.87" y2="429.81" gradientTransform="matrix(7.01, -39.75, -40.48, -7.14, 17551.48, 3448.22)" xlink:href="#linear-gradient-21"/><linearGradient id="linear-gradient-35" x1="6.75" y1="432.1" x2="6.45" y2="432.11" gradientTransform="matrix(9.33, -52.93, -53.5, -9.43, 23378.37, 4722.5)" xlink:href="#linear-gradient-21"/><linearGradient id="linear-gradient-36" x1="8.72" y1="430.04" x2="8.43" y2="430.04" gradientTransform="matrix(7.46, -42.28, -37.76, -6.66, 16330.65, 3505.52)" xlink:href="#linear-gradient-21"/><linearGradient id="linear-gradient-37" x1="5.21" y1="447.97" x2="4.92" y2="447.97" gradientTransform="matrix(6.99, -39.67, -30.59, -5.39, 14145.65, 2849.71)" xlink:href="#linear-gradient-21"/><linearGradient id="linear-gradient-38" x1="9.53" y1="429.63" x2="9.23" y2="429.63" gradientTransform="matrix(6.41, -36.34, -32.89, -5.8, 14195.07, 3094.83)" xlink:href="#linear-gradient-21"/><linearGradient id="linear-gradient-39" x1="14.59" y1="427.11" x2="14.3" y2="427.12" gradientTransform="matrix(4.94, -28.03, -44.11, -7.78, 18876.5, 4030.41)" xlink:href="#linear-gradient-21"/><linearGradient id="linear-gradient-40" x1="12.2" y1="428.63" x2="11.91" y2="428.64" gradientTransform="matrix(5.8, -32.9, -31.33, -5.52, 13447.08, 3057.69)" xlink:href="#linear-gradient-21"/><linearGradient id="linear-gradient-41" x1="14.15" y1="429.13" x2="13.86" y2="429.13" gradientTransform="matrix(5.3, -30.06, -35.76, -6.3, 15388.56, 3441.68)" xlink:href="#linear-gradient-21"/><linearGradient id="linear-gradient-42" x1="7.24" y1="422.51" x2="6.95" y2="422.51" gradientTransform="matrix(11.7, -66.37, -141.66, -24.98, 59870.71, 11356.89)" xlink:href="#linear-gradient-21"/><linearGradient id="linear-gradient-43" x1="0.64" y1="451.69" x2="0.34" y2="451.69" gradientTransform="matrix(5.16, -29.28, -28.79, -5.08, 13536.28, 2432.74)" xlink:href="#linear-gradient-21"/><linearGradient id="linear-gradient-44" x1="10.67" y1="427.58" x2="10.37" y2="427.58" gradientTransform="matrix(5.32, -30.19, -25.42, -4.48, 10862.66, 2470.24)" xlink:href="#linear-gradient-21"/><linearGradient id="linear-gradient-45" x1="14.08" y1="435.95" x2="13.79" y2="435.96" gradientTransform="matrix(4.71, -26.72, -27.95, -4.93, 12318.6, 2819.93)" xlink:href="#linear-gradient-21"/><linearGradient id="linear-gradient-46" x1="1.24" y1="446.04" x2="0.95" y2="446.04" gradientTransform="matrix(6.23, -35.32, -17.27, -3.05, 7943.33, 1485.31)" xlink:href="#linear-gradient-21"/><linearGradient id="linear-gradient-47" x1="2.48" y1="439.19" x2="2.18" y2="439.2" gradientTransform="matrix(3.99, -22.63, -27.41, -4.83, 12314.94, 2284.21)" xlink:href="#linear-gradient-21"/><linearGradient id="linear-gradient-48" x1="9.21" y1="454.83" x2="8.91" y2="454.84" gradientTransform="matrix(4.08, -23.15, -21.93, -3.87, 10359.79, 2202.95)" xlink:href="#linear-gradient-21"/><linearGradient id="linear-gradient-49" x1="1.36" y1="452.62" x2="1.06" y2="452.62" gradientTransform="matrix(3.87, -21.94, -24.37, -4.3, 11487.67, 2094.58)" xlink:href="#linear-gradient-21"/><linearGradient id="linear-gradient-50" x1="2.41" y1="445.57" x2="2.12" y2="445.57" gradientTransform="matrix(6.31, -35.76, -17.6, -3.1, 8065.81, 1577.77)" xlink:href="#linear-gradient-21"/><linearGradient id="linear-gradient-51" x1="4.95" y1="438.17" x2="4.66" y2="438.17" gradientTransform="matrix(6.6, -37.46, -15.75, -2.78, 6998.5, 1555.23)" xlink:href="#linear-gradient-21"/><linearGradient id="linear-gradient-52" x1="4.81" y1="459.54" x2="4.52" y2="459.55" gradientTransform="matrix(3.72, -21.07, -19.86, -3.5, 9557.44, 1875.09)" xlink:href="#linear-gradient-21"/><linearGradient id="linear-gradient-53" x1="17.43" y1="437.59" x2="17.14" y2="437.6" gradientTransform="matrix(3.62, -20.54, -18.37, -3.24, 8106.72, 2050.41)" xlink:href="#linear-gradient-21"/><linearGradient id="linear-gradient-54" x1="6.07" y1="442.22" x2="5.78" y2="442.22" gradientTransform="matrix(3.46, -19.62, -19.29, -3.4, 8729.24, 1759.72)" xlink:href="#linear-gradient-21"/><linearGradient id="linear-gradient-55" x1="-6.76" y1="456.36" x2="-7.06" y2="456.37" gradientTransform="matrix(2.88, -16.31, -20.66, -3.64, 9897.7, 1582.42)" xlink:href="#linear-gradient-21"/><linearGradient id="linear-gradient-56" x1="7.58" y1="436.93" x2="7.29" y2="436.94" gradientTransform="matrix(2.73, -15.5, -23.99, -4.23, 10668.77, 2101.34)" xlink:href="#linear-gradient-21"/><linearGradient id="linear-gradient-57" x1="-0.79" y1="444.72" x2="-1.09" y2="444.73" gradientTransform="matrix(3.22, -18.28, -16.94, -2.99, 7767.66, 1366.44)" xlink:href="#linear-gradient-21"/><linearGradient id="linear-gradient-58" x1="4.77" y1="450.41" x2="4.48" y2="450.41" gradientTransform="matrix(3.2, -18.14, -16.42, -2.9, 7650.99, 1515.62)" xlink:href="#linear-gradient-21"/><linearGradient id="linear-gradient-59" x1="17.66" y1="456.84" x2="17.37" y2="456.84" gradientTransform="matrix(3.4, -19.26, -14.22, -2.51, 6694.06, 1771.89)" xlink:href="#linear-gradient-21"/><linearGradient id="linear-gradient-60" x1="0.51" y1="469.92" x2="0.22" y2="469.92" gradientTransform="matrix(2.83, -16.07, -16.75, -2.95, 8361.6, 1510.73)" xlink:href="#linear-gradient-21"/><linearGradient id="linear-gradient-61" x1="25.97" y1="433.35" x2="25.67" y2="433.35" gradientTransform="matrix(2.62, -14.83, -23.42, -4.13, 10200.68, 2468.55)" xlink:href="#linear-gradient-21"/><linearGradient id="linear-gradient-62" x1="14.91" y1="470.25" x2="14.62" y2="470.26" gradientTransform="matrix(2.79, -15.85, -15.26, -2.69, 7558.86, 1752.19)" xlink:href="#linear-gradient-21"/><linearGradient id="linear-gradient-63" x1="5.1" y1="431.74" x2="4.81" y2="431.74" gradientTransform="matrix(2.95, -16.73, -15.2, -2.68, 6615.3, 1331.92)" xlink:href="#linear-gradient-21"/><linearGradient id="linear-gradient-64" x1="2.67" y1="454.61" x2="2.37" y2="454.61" gradientTransform="matrix(2.65, -15.05, -15.51, -2.73, 7343.58, 1385.33)" xlink:href="#linear-gradient-21"/><linearGradient id="linear-gradient-65" x1="22.38" y1="460.82" x2="22.08" y2="460.82" gradientTransform="matrix(2.7, -15.3, -14.57, -2.57, 6955.72, 1824.3)" xlink:href="#linear-gradient-21"/><linearGradient id="linear-gradient-66" x1="43.41" y1="439.44" x2="43.12" y2="439.44" gradientTransform="matrix(1.67, -9.47, -35.73, -6.3, 15981.37, 3534.4)" xlink:href="#linear-gradient-21"/><linearGradient id="linear-gradient-67" x1="13.91" y1="432.33" x2="13.62" y2="432.33" gradientTransform="matrix(2.74, -15.57, -14.95, -2.64, 6482.76, 1529.47)" xlink:href="#linear-gradient-21"/><linearGradient id="linear-gradient-68" x1="4.76" y1="450.57" x2="4.47" y2="450.58" gradientTransform="matrix(2.59, -14.71, -13.87, -2.45, 6462.26, 1280.4)" xlink:href="#linear-gradient-21"/><linearGradient id="linear-gradient-69" x1="2.38" y1="452.26" x2="2.09" y2="452.27" gradientTransform="matrix(3.21, -18.21, -11.26, -1.98, 5274.77, 1024.24)" xlink:href="#linear-gradient-21"/><linearGradient id="linear-gradient-70" x1="4.21" y1="452.19" x2="3.92" y2="452.19" gradientTransform="matrix(2.45, -13.91, -12.57, -2.22, 5890.06, 1160.65)" xlink:href="#linear-gradient-21"/><linearGradient id="linear-gradient-71" x1="8.98" y1="448.71" x2="8.69" y2="448.72" gradientTransform="matrix(2.33, -13.23, -15.41, -2.72, 7124.48, 1479.91)" xlink:href="#linear-gradient-21"/><linearGradient id="linear-gradient-72" x1="16.44" y1="487.11" x2="16.15" y2="487.11" gradientTransform="matrix(2.4, -13.59, -12.24, -2.16, 6382, 1524.34)" xlink:href="#linear-gradient-21"/><linearGradient id="linear-gradient-73" x1="32.64" y1="460.02" x2="32.35" y2="460.03" gradientTransform="matrix(2.32, -13.17, -14.85, -2.62, 7045.63, 1988.28)" xlink:href="#linear-gradient-21"/><linearGradient id="linear-gradient-74" x1="8.98" y1="457.54" x2="8.69" y2="457.54" gradientTransform="matrix(2.32, -13.14, -12.21, -2.15, 5808.99, 1246.64)" xlink:href="#linear-gradient-21"/><linearGradient id="linear-gradient-75" x1="2.05" y1="473.24" x2="1.76" y2="473.25" gradientTransform="matrix(2.3, -13.05, -14.44, -2.55, 7275.28, 1352.1)" xlink:href="#linear-gradient-21"/><linearGradient id="linear-gradient-76" x1="13.1" y1="455.24" x2="12.81" y2="455.25" gradientTransform="matrix(2.43, -13.77, -11.76, -2.07, 5530.88, 1302.06)" xlink:href="#linear-gradient-21"/><linearGradient id="linear-gradient-77" x1="20.66" y1="481.21" x2="20.37" y2="481.22" gradientTransform="matrix(2.43, -13.8, -12.85, -2.27, 6562.96, 1659.91)" xlink:href="#linear-gradient-21"/><linearGradient id="linear-gradient-78" x1="12.78" y1="450.69" x2="12.49" y2="450.69" gradientTransform="matrix(2.4, -13.63, -10.99, -1.94, 5081.01, 1212.28)" xlink:href="#linear-gradient-21"/><linearGradient id="linear-gradient-79" x1="16.13" y1="449.06" x2="15.83" y2="449.07" gradientTransform="matrix(2.02, -11.46, -12.48, -2.2, 5744.97, 1348.62)" xlink:href="#linear-gradient-21"/><linearGradient id="linear-gradient-80" x1="-11.01" y1="470.98" x2="-11.3" y2="470.98" gradientTransform="matrix(1.89, -10.73, -13.87, -2.45, 6977.62, 1057.55)" xlink:href="#linear-gradient-21"/><linearGradient id="linear-gradient-81" x1="17.77" y1="483.46" x2="17.48" y2="483.46" gradientTransform="matrix(2.43, -13.78, -11.68, -2.06, 6007.59, 1494.32)" xlink:href="#linear-gradient-21"/><linearGradient id="linear-gradient-82" x1="4.3" y1="452.67" x2="4" y2="452.68" gradientTransform="matrix(1.94, -10.99, -12.61, -2.22, 5922.6, 1149.13)" xlink:href="#linear-gradient-21"/><linearGradient id="linear-gradient-83" x1="11.67" y1="461.69" x2="11.38" y2="461.7" gradientTransform="matrix(2.39, -13.57, -10.19, -1.8, 4892.87, 1152.64)" xlink:href="#linear-gradient-21"/><linearGradient id="linear-gradient-84" x1="-2.36" y1="496.08" x2="-2.66" y2="496.09" gradientTransform="matrix(2.11, -11.99, -10.79, -1.9, 5845.91, 1008.11)" xlink:href="#linear-gradient-21"/><linearGradient id="linear-gradient-85" x1="5.46" y1="474.49" x2="5.17" y2="474.49" gradientTransform="matrix(2.35, -13.35, -9.59, -1.69, 4826.31, 997.53)" xlink:href="#linear-gradient-21"/><linearGradient id="linear-gradient-86" x1="6.1" y1="471.18" x2="5.81" y2="471.18" gradientTransform="matrix(2.28, -12.91, -9.47, -1.67, 4714.39, 987.98)" xlink:href="#linear-gradient-21"/><linearGradient id="linear-gradient-87" x1="6.36" y1="504.78" x2="6.07" y2="504.79" gradientTransform="matrix(2.2, -12.47, -9.82, -1.73, 5424.42, 1114.36)" xlink:href="#linear-gradient-21"/><linearGradient id="linear-gradient-88" x1="9.41" y1="453.49" x2="9.11" y2="453.49" gradientTransform="matrix(1.8, -10.22, -12.22, -2.15, 5738.76, 1199.22)" xlink:href="#linear-gradient-21"/><linearGradient id="linear-gradient-89" x1="24.93" y1="450.75" x2="24.64" y2="450.75" gradientTransform="matrix(2.19, -12.43, -8.62, -1.52, 3932.72, 1238.31)" xlink:href="#linear-gradient-21"/><linearGradient id="linear-gradient-90" x1="34.77" y1="441.24" x2="34.47" y2="441.25" gradientTransform="matrix(1.51, -8.58, -12.7, -2.24, 5653.41, 1524.45)" xlink:href="#linear-gradient-21"/><linearGradient id="linear-gradient-91" x1="39.94" y1="475.72" x2="39.65" y2="475.72" gradientTransform="matrix(1.58, -8.93, -10.85, -1.91, 5405.3, 1579.03)" xlink:href="#linear-gradient-21"/><linearGradient id="linear-gradient-92" x1="9.56" y1="467.38" x2="9.27" y2="467.38" gradientTransform="matrix(1.91, -10.85, -7.7, -1.36, 3765.96, 863.87)" xlink:href="#linear-gradient-21"/><linearGradient id="linear-gradient-93" x1="3.51" y1="548.73" x2="3.22" y2="548.73" gradientTransform="matrix(2.75, -15.58, -4.17, -0.74, 2580.26, 569.51)" xlink:href="#linear-gradient-21"/><linearGradient id="linear-gradient-94" x1="41.35" y1="471.54" x2="41.06" y2="471.54" gradientTransform="matrix(1.57, -8.92, -9.87, -1.74, 4836.9, 1498.9)" xlink:href="#linear-gradient-21"/><linearGradient id="linear-gradient-95" x1="47.74" y1="458.44" x2="47.44" y2="458.44" gradientTransform="matrix(1.41, -8.02, -10.98, -1.94, 5155.41, 1579.22)" xlink:href="#linear-gradient-21"/><linearGradient id="linear-gradient-96" x1="15.41" y1="514.28" x2="15.12" y2="514.28" gradientTransform="matrix(1.91, -10.81, -8.31, -1.47, 4686.38, 1131.62)" xlink:href="#linear-gradient-21"/><linearGradient id="linear-gradient-97" x1="18.75" y1="527.29" x2="18.46" y2="527.29" gradientTransform="matrix(1.9, -10.77, -7.33, -1.29, 4269.37, 1117.51)" xlink:href="#linear-gradient-21"/><linearGradient id="linear-gradient-98" x1="21.97" y1="496.25" x2="21.67" y2="496.25" gradientTransform="matrix(1.52, -8.63, -9.79, -1.73, 5238.78, 1269.09)" xlink:href="#linear-gradient-21"/><linearGradient id="linear-gradient-99" x1="13.45" y1="482.58" x2="13.16" y2="482.59" gradientTransform="matrix(1.88, -10.65, -6.98, -1.23, 3570.95, 895.91)" xlink:href="#linear-gradient-21"/><linearGradient id="linear-gradient-100" x1="38.48" y1="481.09" x2="38.19" y2="481.09" gradientTransform="matrix(1.89, -10.69, -7.57, -1.33, 3780.22, 1383.23)" xlink:href="#linear-gradient-21"/><linearGradient id="linear-gradient-101" x1="4.21" y1="470.51" x2="3.92" y2="470.52" gradientTransform="matrix(2.26, -12.79, -8.29, -1.46, 4114.71, 840.47)" xlink:href="#linear-gradient-21"/><linearGradient id="linear-gradient-102" x1="13.59" y1="488.35" x2="13.3" y2="488.35" gradientTransform="matrix(1.73, -9.82, -7.38, -1.3, 3850.42, 929.3)" xlink:href="#linear-gradient-21"/><linearGradient id="linear-gradient-103" x1="49.46" y1="457.3" x2="49.16" y2="457.31" gradientTransform="matrix(1.32, -7.51, -8.62, -1.52, 4003.96, 1356.91)" xlink:href="#linear-gradient-21"/><linearGradient id="linear-gradient-104" x1="28.52" y1="506.85" x2="28.23" y2="506.85" gradientTransform="matrix(1.34, -7.63, -8.78, -1.55, 4834.9, 1245.17)" xlink:href="#linear-gradient-21"/><linearGradient id="linear-gradient-105" x1="34.13" y1="464.19" x2="33.84" y2="464.2" gradientTransform="matrix(1.58, -8.94, -6.52, -1.15, 3088.43, 1083.54)" xlink:href="#linear-gradient-21"/><linearGradient id="linear-gradient-106" x1="55.07" y1="499.29" x2="54.77" y2="499.3" gradientTransform="matrix(1.13, -6.39, -8.08, -1.42, 4301.33, 1377.88)" xlink:href="#linear-gradient-21"/><linearGradient id="linear-gradient-107" x1="-11.44" y1="512.73" x2="-11.73" y2="512.74" gradientTransform="matrix(1.21, -6.89, -7.83, -1.38, 4458.91, 681.83)" xlink:href="#linear-gradient-21"/><linearGradient id="linear-gradient-108" x1="24.49" y1="444.98" x2="24.2" y2="444.98" gradientTransform="matrix(1.28, -7.27, -7.49, -1.32, 3365.53, 919.89)" xlink:href="#linear-gradient-21"/><linearGradient id="linear-gradient-109" x1="34.67" y1="446.17" x2="34.38" y2="446.17" gradientTransform="matrix(1.47, -8.32, -9.56, -1.69, 4308.45, 1271.1)" xlink:href="#linear-gradient-21"/><linearGradient id="linear-gradient-110" x1="-9.89" y1="523.59" x2="-10.18" y2="523.59" gradientTransform="matrix(1.12, -6.34, -8.15, -1.44, 4786.15, 766.97)" xlink:href="#linear-gradient-21"/><linearGradient id="linear-gradient-111" x1="39.84" y1="514.25" x2="39.55" y2="514.26" gradientTransform="matrix(1.48, -8.41, -6.18, -1.09, 3415.82, 1192.06)" xlink:href="#linear-gradient-21"/><linearGradient id="linear-gradient-112" x1="44.15" y1="521.06" x2="43.86" y2="521.06" gradientTransform="matrix(1.59, -9.02, -5.61, -0.99, 3133.4, 1248.19)" xlink:href="#linear-gradient-21"/><linearGradient id="linear-gradient-113" x1="13.97" y1="495.17" x2="13.68" y2="495.18" gradientTransform="matrix(1.58, -8.94, -5.78, -1.02, 3070.29, 777.74)" xlink:href="#linear-gradient-21"/><linearGradient id="linear-gradient-114" x1="30.14" y1="444.23" x2="29.85" y2="444.24" gradientTransform="matrix(1.31, -7.45, -6.86, -1.21, 3054.41, 943.39)" xlink:href="#linear-gradient-21"/><linearGradient id="linear-gradient-115" x1="12.48" y1="483.3" x2="12.19" y2="483.31" gradientTransform="matrix(1.8, -10.21, -7.35, -1.3, 3777.36, 905.89)" xlink:href="#linear-gradient-21"/><linearGradient id="linear-gradient-116" x1="5.96" y1="519.51" x2="5.66" y2="519.52" gradientTransform="matrix(1.74, -9.84, -7.33, -1.29, 4217.98, 868.35)" xlink:href="#linear-gradient-21"/><linearGradient id="linear-gradient-117" x1="9.15" y1="414.5" x2="8.86" y2="414.5" gradientTransform="matrix(-36.8, 34.32, 90.46, 97, -36659.18, -40304.34)" xlink:href="#linear-gradient-21"/><linearGradient id="linear-gradient-118" x1="10.71" y1="398.87" x2="10.42" y2="398.87" gradientTransform="matrix(-33.32, 31.08, 28.39, 30.44, -10407.13, -12226.23)" xlink:href="#linear-gradient-21"/><linearGradient id="linear-gradient-119" x1="11.3" y1="370.89" x2="11.01" y2="370.89" gradientTransform="matrix(-26.23, 24.47, 11.97, 12.83, -3628.22, -4769)" xlink:href="#linear-gradient-21"/><linearGradient id="linear-gradient-120" x1="22.27" y1="389.25" x2="21.98" y2="389.26" gradientTransform="matrix(-16.81, 15.68, 18.99, 20.36, -6448.81, -8058.59)" xlink:href="#linear-gradient-21"/><linearGradient id="linear-gradient-121" x1="12.35" y1="371.79" x2="12.05" y2="371.79" gradientTransform="matrix(-26.56, 24.78, 12.19, 13.07, -3670.77, -4916.93)" xlink:href="#linear-gradient-21"/><linearGradient id="linear-gradient-122" x1="18.64" y1="368.09" x2="18.35" y2="368.1" gradientTransform="matrix(-13.58, 12.67, 11.74, 12.59, -3559.74, -4568.66)" xlink:href="#linear-gradient-21"/><linearGradient id="linear-gradient-123" x1="29.46" y1="367.05" x2="29.17" y2="367.05" gradientTransform="matrix(-13.48, 12.57, 11.38, 12.2, -3185.05, -4636.81)" xlink:href="#linear-gradient-21"/><linearGradient id="linear-gradient-124" x1="32.43" y1="366.37" x2="32.14" y2="366.37" gradientTransform="matrix(-11.18, 10.43, 10.75, 11.52, -3017.8, -4347.62)" xlink:href="#linear-gradient-21"/><linearGradient id="linear-gradient-125" x1="28.92" y1="356.97" x2="28.63" y2="356.97" gradientTransform="matrix(-10.93, 10.19, 9.61, 10.3, -2568.55, -3714.01)" xlink:href="#linear-gradient-21"/><linearGradient id="linear-gradient-126" x1="21.89" y1="336.94" x2="21.6" y2="336.94" gradientTransform="matrix(-13.53, 12.62, 7.8, 8.36, -1773.98, -2794.52)" xlink:href="#linear-gradient-21"/><linearGradient id="linear-gradient-127" x1="29.75" y1="348.94" x2="29.46" y2="348.94" gradientTransform="matrix(-10.33, 9.64, 8.71, 9.34, -2183.37, -3273.78)" xlink:href="#linear-gradient-21"/><linearGradient id="linear-gradient-128" x1="36.64" y1="349.76" x2="36.34" y2="349.77" gradientTransform="matrix(-8.16, 7.61, 8.74, 9.37, -2216.39, -3284.27)" xlink:href="#linear-gradient-21"/><linearGradient id="linear-gradient-129" x1="39.03" y1="331.78" x2="38.74" y2="331.78" gradientTransform="matrix(-9.91, 9.25, 6.65, 7.12, -1239.99, -2522.37)" xlink:href="#linear-gradient-21"/><linearGradient id="linear-gradient-130" x1="40.79" y1="326.75" x2="40.5" y2="326.76" gradientTransform="matrix(-9.59, 8.95, 6.57, 7.04, -1157.41, -2448.53)" xlink:href="#linear-gradient-21"/><linearGradient id="linear-gradient-131" x1="32.27" y1="220.54" x2="31.97" y2="220.55" gradientTransform="matrix(-11.57, 10.79, 2.89, 3.1, 296.97, -828.26)" xlink:href="#linear-gradient-21"/><linearGradient id="linear-gradient-132" x1="31.99" y1="313.93" x2="31.69" y2="313.94" gradientTransform="matrix(-9.5, 8.86, 5.75, 6.16, -959.71, -1951.44)" xlink:href="#linear-gradient-21"/></defs><title>front-splatter</title><g id="Group_3" data-name="Group 3"><path id="Path_31" data-name="Path 31" class="cls-1" d="M487.07,310.67a14.14,14.14,0,0,1-3.67-.49c-5.46-2.28-9.95-.89-13.95,3.19-2,2-4.23,3.78-6.19,5.82-2.35,2.43-2.26,2.91.19,5.77-.9,1.86.41,2.74,1.63,3.66a6.82,6.82,0,0,0-1.39-.79c-2.12-.63-2.77-.07-2.2,2.11a7.14,7.14,0,0,0,1.73,3.42c3,2.61,6.17,5,9.27,7.45.47.37.89.8,1.53,1.38-2.67,1.3-3.51-1.37-5.26-2.1-1.09,3.23-.49,5.89,1.77,8.08a53.81,53.81,0,0,0,5.23,4.44c4.65,3.47,7.81,8.21,11.26,12.72,2.8,3.66,5.64,7.3,8.55,10.87,1.83,2.23,2.37,9.81.5,12a4.1,4.1,0,0,1-2.84,1.07c-5.79-.11-9.94-3.4-13-7.83-4.55-6.62-8.39-13.73-13-20.31-3.06-4.39-6.28-8.87-11.19-11.54a14,14,0,0,0-3.79-1c-2.19-.47-2.93.41-1.87,2.83-1.91-1.7-3.47-3.1-5-4.46-2.7-2.34-7.83-.17-8.85,3.89a13.73,13.73,0,0,0-.46,5.64c.79,4.35,2,8.61,3,12.93.13.55-.34,1.23-.51,1.79l-5.42-4.36-.8,3.72-.33-1.77a3.2,3.2,0,0,0-.26.9c.22,2,.59,3.94.68,5.92s-.33,3.77-.16,5.62c.15,1.58.34,3.75,1.37,4.52,1.35,1,3.53,1,5.37,1.21.36,0,.84-1,1.57-1.88l1.43,5-1.65-2c-1.21,2.29-2.2,4.34-3.36,6.28a10.53,10.53,0,0,1-2,1.91c-.29-.7-.54-1.42-.87-2.1s-.58-1.61-1.1-1.81c-2.25-.84-2.29-2.78-2.41-4.85-3,1-2.85,3.39-3,5.83l-.5-1.39c-.74,3.91-1.07,7.3,1,10.87,2,3.3,3,7.14,4.43,10.76a8.66,8.66,0,0,1,.27,2.05l-.66.46c-1.13-1.25-2.35-2.44-3.37-3.78-2.54-3.35-4.29-7.31-8.29-9.48-2.13-1.16-2.86-1.12-3.28,1.24a2.71,2.71,0,0,1-.51,1.51c0-.42-.05-.84-.06-1.26a3.12,3.12,0,0,1,0-.54c-.68-.05-1.41.11-1.62-.15-2.74-3.36-5.47-6.73-8.05-10.22-1.42-1.91-3.11-3.55-4-6-1.15-3.32-4.4-.93-6.65-1.49-1.45-.36-3.21.52-4.29-1.23l-.48,1c-.08-1.05-.14-1.82-.26-3.45a23.11,23.11,0,0,0-4.77,9.38c-1.75,7.66-3.33,15.36-5.19,23a5.51,5.51,0,0,1-4.93,4.25,2.22,2.22,0,0,1-1.83-.62c-.81-1.33-1.19-2.92-2.05-4.2-1.22-1.81.06-2.87.74-4.31a120.39,120.39,0,0,0,5.29-12.39c3.37-9.92,5.61-20.1,4.64-30.67A116,116,0,0,0,381,354.48c-.35-1.72-1.54-1.85-3.11-1.72-1.15.09-2.34-.56-3.54-.73-2.22-.32-4.46-.53-6.69-1l5.8.4v-.95c-4.07.12-8.15.15-12.2.43a4.29,4.29,0,0,0-2.43,1.63c-3.68,4.34-7.39,8.67-10.88,13.17A80.89,80.89,0,0,0,340,377.12c-2,3.73-5.05,6.07-8.06,8.65-.34.29-.7.57-1,.87l-8.66,7.68c-1.74-2.71-.75-4.83.49-6.61,3.31-4.75,7-9.26,10.25-14,1.94-2.8,3.42-5.92,5.29-8.78a4.42,4.42,0,0,1,2.56-1.9,9.45,9.45,0,0,0,6.72-4.16c4.82-7.26,9.58-14.54,10.5-23.56.61-6-1.3-9.31-6.95-11.26-8.37-2.9-16.55-1.86-24.58,1.41-7.63,3.11-15.22,6.3-22.86,9.36-5.17,2.08-10.56,3.7-15.57,6.11-2.89,1.39-6.13,1.38-8.78,2.8-2.84,1.52-6.18.88-8.69,2.47-2,1.27-4.19,1-6.15,1.81a10.1,10.1,0,0,0-1.8,1.29,10.4,10.4,0,0,0-2.48-.28c-2.33.19-4.51-.08-5.5-2.47s-1-5.28,1-7.11a19.65,19.65,0,0,1,7.25-4.4c5.11-1.46,10.46-2,15.64-3.25a71.21,71.21,0,0,0,8.18-2.82c2.35-.85,4.6-2.11,7-2.61A91.11,91.11,0,0,0,332,308.46a147.71,147.71,0,0,0,15.27-13.78c3.86-4,2.15-8.27-3.29-9.31-2.27-.43-4.58-.64-7.52-1,3.81-3.88,4.24-7.93,2-12.25-1.3-2.5-2.26-3.14-5.38-3.75-.22.91-.45,1.83-.49,2-2.2.93-3.9,1.68-5.63,2.36a16.77,16.77,0,0,1-3.33,1.06,12.57,12.57,0,0,1-2.79-.15c.38-1.06.44-2.57,1.19-3.09,1.75-1.21,3.89-1.84,5.75-2.92,1.22-.7,2.94-1.62,3.18-2.72.39-1.8-1.19-3-3-3.49-1.24-.34-1.54-1.24-2.18-2.24-1.23-1.89-3.24-3.31-5.05-4.77-1.4-1.13-3.11-1.89-4.44-3.08a4.25,4.25,0,0,1-1.15-5.2,4.09,4.09,0,0,1,4.34-2.56c6.14.27,12.28.6,18.42.61a22.21,22.21,0,0,0,6.57-1.37c1.52-.48,1.94-1.61.5-2.83-1.15-1-2.33-1.9-3.5-2.85,3.91-3.37,10.18-1.43,11,2.43.72,3.51,3.25,5.27,6.74,4.58a9.79,9.79,0,0,0,3.33-1.12,12.63,12.63,0,0,1,7.85-2.37c1.88.13,3.37-1,4.13-3.54l-4.46.66.16-2.22c4-1.36,4.34-3,1.77-6.76-3.26-4.81-6.48-9.65-9.38-14.67-1.13-2-1.3-4.43-2-6.64-1.14-3.79-2.33-7.55-3.48-11.33a50.47,50.47,0,0,1-1.72-5.92,3.7,3.7,0,0,1,2.92-4.29,5,5,0,0,1,4.15,1.54c2.34,3.15,4.19,6.66,6.27,10,2.46,4,4.87,8,7.46,11.85,3.34,5,7,9.85,10.22,14.93,3.14,4.92,8.14,5.08,11.28-.08a15,15,0,0,0,1.81-5.89c.18-1.42-.52-2.95-.39-4.54l.57,2.63c.49-.9.71-1.3.79-1.46l2.18,1.9c.63-.88,1.28-1.75,1.88-2.65s.86-2.18,1.47-2.29c2.21-.42,2.21-2,2.12-3.51-.23-3.36-.71-6.7-1.12-10.26,1.5-.88,3-1.59,5.21-.4a6.71,6.71,0,0,0,8.18-1.72c2.24-2.81,4.11-5.92,6.14-8.91a9.89,9.89,0,0,1,1.65-2.46c1.22-.93,2.75-2.2,4-2.08,1.11.1,2.16,1.86,3.08,3,1.68,2.07.57,4.62,1,6.92a13.93,13.93,0,0,1,0,1.94l.67-1.42c0,2.14-.25,4.39-.09,6.61a7.1,7.1,0,0,0,4.21,6.1,5.45,5.45,0,0,1,2,2.9c.65,1.78.81,3.75,1.51,5.51.37,1,1.41,1.64,2,2.26.18.88.09,2.1.65,2.83,1.87,2.43,3.17-.51,5.07-.33,1.88,2.46,1.71,5.14-.77,7.57-4.18,4.09-5.07,8.58-2.9,14.13,1.56,4,5.44,5.28,10.86,4,4.38-1.05,8.58-2.82,12.86-4.29a13.65,13.65,0,0,1,3.06-1.08c4.07-.35,6.65-2.29,7.89-6.26.23-.7,1.76-1.22,2.77-1.42,3.5-.69,7.12-.92,10.56-1.85,4.17-1.14,8.19-2.83,12.67-4.41.07,1.15.49,2.34.11,2.71a15,15,0,0,1-4.28,3.13c-1.91.84-4.12,1-6.08,1.74-1,.38-1.67,1.49-2.52,2.24-4.14,3.67-8,7.7-12.51,10.85-3.25,2.28-4.68,5.65-7.08,8.38a94.49,94.49,0,0,1-9.53,9.13c-3.14,2.69-4,6.6-1.64,9,.26.25.54.61.85.65,5.74.65,7.06,7.31,12.12,9,.61.19,1,1.6,1.15,2.5.25,1.51.15,3.07.35,4.59.63,4.87,1.49,5.75,6.28,6.68a23.19,23.19,0,0,1,3.45.71,4.08,4.08,0,0,1,3,4c.05,2.29-1,3.35-3.07,3.68-2.56.4-5.12.76-8.68,1.29l5.55,5.32ZM408.51,362.2l-.16-.12a37,37,0,0,0,.25-4.33c0-.57-.7-1.11-1.08-1.67l-1.35,1c-1.32,1-2.58,2-4,2.9-2.18,1.37-4.79,2.24-6.59,4-4.19,4-2.06,11.41,3.5,12.77,1.16.29,2.13.59,3.05-1.12,1.29-2.36,3.45-4.24,5.13-6.41.84-1.09,1.91-2.3,2.09-3.57a37.42,37.42,0,0,0-.1-6.43l-.31,0Zm6.83-1.81a8.2,8.2,0,0,0-2.86,9.21,46.88,46.88,0,0,0,2.95,7.55c1.26,2.55,3.31,2.94,5.92,1.69a33.34,33.34,0,0,1,4.36-1.32c-.19-.71-.6-2.19-1.24-4.49l-1.24,2.76C423.27,369.24,421.84,363.51,415.34,360.39Z" transform="translate(-44.04 -23.51)"/><path id="Path_32" data-name="Path 32" class="cls-2" d="M543,352.1c-.1,1.45-.14,2.9-.32,4.34-.73,5.87-4.33,9.71-9.53,11.69a11.08,11.08,0,0,1-12.67-3.25,21.52,21.52,0,0,1-4.94-10.29c-.57-3.94.46-8.23,1.43-12.22.37-1.52,2.33-2.87,3.85-3.87,3.38-2.25,6.9-4.3,10.47-6.23a2.63,2.63,0,0,1,2.52.54,29,29,0,0,0,7.9,9.43c1.12.86,1.28,3.25,1.48,5a27.78,27.78,0,0,1-.28,4.88Z" transform="translate(-44.04 -23.51)"/><path id="Path_33" data-name="Path 33" class="cls-3" d="M169.28,376.58c1-1.94,1.51-3.72,2.59-5.09a16.5,16.5,0,0,1,14.68-6.63c2,.16,4.45,2.38,5.39,4.29.63,1.32-.93,3.76-1.64,5.65-.46,1.21-1.35,2.27-1.72,3.5-2,6.65-12,9.8-17,5C170.1,381.78,170,378.84,169.28,376.58Z" transform="translate(-44.04 -23.51)"/><path id="Path_34" data-name="Path 34" class="cls-4" d="M491.84,155.83c.15-3.54,1.78-5.32,4.77-5.19,2.42.1,5,3.83,4.84,7s-1.61,5.67-3.23,5.56A6.78,6.78,0,0,1,491.84,155.83Z" transform="translate(-44.04 -23.51)"/><path id="Path_35" data-name="Path 35" class="cls-5" d="M145.41,347.17l.56-1.28c-.05,2.62-2.07,5-4.25,5q-4.25-.06-4.46-5.64c-.09-2.61,1.26-4.18,3.74-4.34S144.93,342.86,145.41,347.17Z" transform="translate(-44.04 -23.51)"/><path id="Path_36" data-name="Path 36" class="cls-6" d="M271.33,392.38c-4.23-.58-5.49-2.07-4.9-5.55.3-1.81,1.25-3.09,3.2-2.94a2.75,2.75,0,0,1,2.68,3.36C272.12,389,271.66,390.69,271.33,392.38Z" transform="translate(-44.04 -23.51)"/><path id="Path_37" data-name="Path 37" class="cls-7" d="M101.43,343.52c.17-1.39.42-2.94,2.59-2.8,1.56.09,4.16,2.93,4,4.4-.16,1.95-1.86,3.15-4.29,3.05C102.1,348.09,101.22,346.43,101.43,343.52Z" transform="translate(-44.04 -23.51)"/><path id="Path_38" data-name="Path 38" class="cls-8" d="M539.32,263.88c-1.7,1.56-2.6,3-3.81,3.35-1.44.42-3.45-2.69-2.9-4.67.25-.89,1.95-2.23,2.45-2C536.42,261.09,537.49,262.35,539.32,263.88Z" transform="translate(-44.04 -23.51)"/><path id="Path_39" data-name="Path 39" class="cls-9" d="M515.74,315.45l4.75,1.22c2.23.59,4.46,1.15,6.69,1.78.35.1.62.47.94.72-.25.3-.53.89-.75.87-4-.3-8.18,0-11.53-2.84-.24-.2-.31-.61-.46-.92Z" transform="translate(-44.04 -23.51)"/><path id="Path_40" data-name="Path 40" class="cls-10" d="M518.06,130.39a44.57,44.57,0,0,1,2.06-4.64c.06-.11,2.31.47,2.56,1.11.5,1.29.32,2.84.43,4.29l-4.28.25Z" transform="translate(-44.04 -23.51)"/><path id="Path_41" data-name="Path 41" class="cls-11" d="M537.42,322l8.07,4.6,2,2.67c-3.09-1.4-6.29-2.76-9.38-4.34C537.69,324.66,537.75,323.4,537.42,322Z" transform="translate(-44.04 -23.51)"/><path id="Path_42" data-name="Path 42" class="cls-12" d="M503.78,187.43c.74-1.85-1.82-4.8,1.81-5.35.4-.07,1.59,2.24,1.68,3.5C507.44,187.88,505.8,188.06,503.78,187.43Z" transform="translate(-44.04 -23.51)"/><path id="Path_43" data-name="Path 43" class="cls-13" d="M465.08,328.62c-1.22-.92-2.53-1.8-1.63-3.66l5.09,4.12-.42,1.94Z" transform="translate(-44.04 -23.51)"/><path id="Path_44" data-name="Path 44" class="cls-14" d="M454.05,210.84c-1.44-2.07-1.27-2.34,3-5.51l.58.4Z" transform="translate(-44.04 -23.51)"/><path id="Path_45" data-name="Path 45" class="cls-15" d="M422.71,417.94c-.56-.85-1.46-1.67-1.54-2.56-.05-.55,1.16-1.21,1.81-1.82l1.15,3.61Z" transform="translate(-44.04 -23.51)"/><path id="Path_46" data-name="Path 46" class="cls-16" d="M468.12,331l.42-1.94,4.2,4.35-.57.93a7.66,7.66,0,0,1-1.84-.89A28.57,28.57,0,0,1,468.12,331Z" transform="translate(-44.04 -23.51)"/><path id="Path_47" data-name="Path 47" class="cls-17" d="M487,310.73l11.08,1.93a1.59,1.59,0,0,1,.95.49c-3.45-.43-6.92-.82-10.36-1.34-.58-.08-1.07-.74-1.6-1.14Z" transform="translate(-44.04 -23.51)"/><path id="Path_48" data-name="Path 48" class="cls-18" d="M368.7,119.54c.55,1.56,1,2.87,1.56,4.41C367.47,122.91,367.21,122.15,368.7,119.54Z" transform="translate(-44.04 -23.51)"/><path id="Path_49" data-name="Path 49" class="cls-19" d="M522.52,320.38l9.73.68,0,.34-9.73-.68Z" transform="translate(-44.04 -23.51)"/><path id="Path_50" data-name="Path 50" class="cls-20" d="M495.57,363.43l2.44,2.05-.51.57-2.25-2.27Z" transform="translate(-44.04 -23.51)"/></g><g id="Group_4" data-name="Group 4"><path id="Path_51" data-name="Path 51" class="cls-21" d="M409.63,236.55c-1.15-4.79-4.52-7.87-8.39-11.29,0,2.89-.65,4.5-3.57,4.3-.8-.06-2.2,1.28-2.49,2.24a63.71,63.71,0,0,0-1.87,8.86,73.43,73.43,0,0,0-.55,7.41c-.06,1.45-.32,3,.15,4.31.28.77,1.75,1.19,2.76,1.59,3.32,1.31,6.42,2.87,8.53,5.94,4.72,6.85,4.41,14.09.12,20.58-6.59,10-16.19,15.52-28.4,15.2-5.79-.15-10.28-3.31-13.25-8.39-.56-1-1.06-1.95-1.8-3.33-1.86,2.38-5.12,2.9-5.85,6.15-.07.33-1,.75-1.42.66a35.7,35.7,0,0,0-4.91-1.08c.84,3.07.15,6.49,3.43,8.34.34.19.26,1.28.24,1.95a18.5,18.5,0,0,0-.23,3.61c.59,3.43,1.43,6.81,2.09,10.24.89,4.62-.92,8.25-5.14,10.35-3.38,1.68-6.82,3.22-10.16,5-2.81,1.45-5.37,3.24-6.59,6.4l-.64-.07a60.62,60.62,0,0,1,.37-8.33c1.21-7,2.9-13.83,4.06-20.8.95-5.68,1.43-11.45,2.07-17.18a17.72,17.72,0,0,0-.12-2.52l-5.44,2.91a26.14,26.14,0,0,1-.54,2.91,3.33,3.33,0,0,1-3.61,2.55c-1.39,0-2.77-.16-3.75-.21l3.39-7.49a9.64,9.64,0,0,1-2.05-10.89l-.61-.2c-.51.5-1,1-1.51,1.51s-1,1.63-1.74,1.93c-1.87.77-2.53,1.95-1.64,4.18l-2.9-2.92c-.49,2.77-.31,5.27-1.41,6.93-1,1.44-3.35,1.94-5.43,3-1.28-2.57-2.7-4.5-3.17-6.65-.36-1.62-.12-3.37-1.34-4.73-.53-.58-1.13-1.37-1.81-1.51-5.29-1.05-5.3-1-8.3-4.59l-4.58,12.44,2.42-.12a62.39,62.39,0,0,1,.09,6.56c-.05.53-1.29,1.2-2.07,1.36-2.57.54-4.09-1.35-4.5-5.52l-5.35,1.1c1.86,1.41,1.07,4.66,4.62,4.68,1.42,0,1.65,1.8,1.1,3.13a10.28,10.28,0,0,1-1.46,1.93l5.8,4.74a7.39,7.39,0,0,1,.1-2,2.32,2.32,0,0,1,1-1,26,26,0,0,1,3.78,3,13.37,13.37,0,0,1-1.54,2.24l-2.56-2a6.91,6.91,0,0,0-.25,2.65,10.08,10.08,0,0,1-.39,7.05A8,8,0,0,1,282,317.73l-.18-.08c-6.83-3.09-8.83-13.24-1.64-17.57a28.69,28.69,0,0,1,4.5-1.7,21.67,21.67,0,0,1-2.31-2.91c-.87-1.59-2.12-3.33-2.07-5s1.37-3.45,2.33-5.05a11.42,11.42,0,0,1,2.41-2.64c1.65-1.41,3.58-2.61,2.08-5.3A8.15,8.15,0,0,1,289.2,276c.55-.27,1.62,0,1.86-.31,1.65-2.44,3.15-5,4.66-7.51.08-.13-.11-.43-.29-1l-6.3,3.43-1.87-1.33,2.16.38-.75.39-3.57-5.36.33-.62a24.26,24.26,0,0,0-1.1,2.44c-1.47,4.49-2.89,9-4.33,13.5-.55,1.72-1.33,3.3-.6,5.31a2.74,2.74,0,0,1-1.73,3.53,4.06,4.06,0,0,0-1.67,1.8,31.51,31.51,0,0,0-2.11,4.84,28.39,28.39,0,0,0-.67,4.36c-3.46.69-3.12,5-5.06,7.64a1.35,1.35,0,0,0,.25,1.24c1,.92,2.16,2,.83,3.15-.71.64-2.18.44-3.73.69-2.78,4.33-5.72,9.29-9,14-9.43,13.43-20.14,25.61-34.42,34.16a61,61,0,0,1-15,6.68c4.81-2.39,9.72-4.52,14.32-7.19,10.49-6.1,18.65-14.84,26.31-24.09a181.77,181.77,0,0,0,24.77-39.41c.4-.86.73-1.76.86-2.09L271.69,292l2.61-.94A2.69,2.69,0,0,0,275,287c-1.11-1.67-.15-3.39,2-3.94,1.15-.29,1.82-.59,1.27-1.91a1,1,0,0,1,.16-.9c1.74-1.85,5.23-12.11,5.17-15.36l-4.19-1.57-3.5,4.64.82.06.39,4.08L273.43,271c-3.82,3-8.06,6.49-12.55,9.67a53.11,53.11,0,0,1-8.18,4.4,5.88,5.88,0,0,1-3.29.35c-2.11-.37-3.83-1.09-6,.83-1.76,1.56-3.58-.56-5-2.59-2,1.19-4,2.41-6,3.47-2.28,1.19-4.53,3.14-7.23.74-.19-.17-.76.17-1.11.08-.85-.23-2.06-.34-2.41-.92a4.26,4.26,0,0,1-.4-3.09c.46-1.56,2-1.75,3.2-.62,3.45,3.23,7.93,3.55,11.24.13,2.58-2.66,4.41-6,6.62-9.07,1.69-2.33,3.34-4.71,5.23-6.87,1-1.15,2.48-1.89,4.18-3.14.24,1.59.36,2.58.55,3.56.29,1.51,1.17,2.32,2.74,1.88a12.44,12.44,0,0,0,3.32-1.34c7.43-4.85,13.2-11.41,18.61-18.32a6.91,6.91,0,0,0,.48-1.34c-1.44-.18-2.72-.41-4-.49s-2.55,0-3.83,0c-.23,0-.54-.15-.7-.05a41.08,41.08,0,0,0-5.34,3.36c-3.71,3.14-6.49,4.24-10.18,2.1-4-2.3-6.95.16-9.4,1.75L242,267.22a13.22,13.22,0,0,0-3,.06c-4.89,1.25-7.22.66-9.7-3.33-1-1.63-1.77-1.45-3.05-.64,0,1.47.07,3,0,4.47-.22,3.18-2.17,5.78-4.64,6.37s-6.23-.85-7-3.84c-1.11-4.19-3.6-3.61-6.59-3.29-3.23.34-6.5.34-10.06.5.78,6,2,11.59,7.06,15.5,1.5,1.16,3,2.36,4.57,3.41a2.44,2.44,0,0,0,2,.43c2-1,2.17.18,2.17,1.65,4.12-1.32,5.49-.88,6.26,1.93,1,3.55.2,6.07-2,6.53-2.89.62-5-1.25-5.85-5.25-5.89.35-8.57-3.84-10.43-8.31a104,104,0,0,1-4.22-14.23,2.83,2.83,0,0,0-2.36-2.41c-5.11-1.56-10.16-3.36-15.18-5.22-1.9-.71-3.4-1.94-5.49.13-.76.75-3.35.11-4.86-.49-2.2-.89-4.35-2-5.57-4.42a2.79,2.79,0,0,0-2.65-.63,37.4,37.4,0,0,0-6.54,5.05c-2,2-3.47,4.61-5.35,6.78-2.4,2.78-4.09,2.91-7.47,1.51-1.38-.58-3.06-.44-4.58-.74a23.61,23.61,0,0,1-2.73-.91c.46-.86.71-2.05,1.43-2.52a16.77,16.77,0,0,1,6-2.75c6.85-1.35,9.48-10.06,4.43-15.15a27.84,27.84,0,0,0-8.61-5.5,44.43,44.43,0,0,0-19.71-3.43c-2.36.08-4-.65-4.65-2.88-.78-2.89-2.63-4.14-5.36-5.13-5.59-2-11-4.53-15.35-8.76-1.17-1.15-1.46-3.18-2.18-4.79a11.42,11.42,0,0,0-1.17-2.28c-1.21-1.55-2.84-2.83-3.75-4.52-2.28-4.21-6-6.6-10.08-8.6-2.65-1.31-5.55-2.1-8.23-3.36a8.13,8.13,0,0,1-3.21-2.69c-.41-.64.19-1.95.34-3,.91.22,2.2.13,2.65.7A6.37,6.37,0,0,0,72,195.79c1.58.17,3,1.61,4.49,2.6,5.3,3.64,10.68,7.23,16.94,8.92a23.49,23.49,0,0,0,8.29.36,6.29,6.29,0,0,0,5.39-3.94c.7-1.75,1.87-2.17,3.6-2,3,.33,6.07.56,9.11.79a5.16,5.16,0,0,0,2.14-.12c1.28-.49,3.39-1,3.5-1.81a5.9,5.9,0,0,0-1.51-4.2c-3.68-4-8.42-6.37-13.53-8-5.53-1.74-10.6-4-13.9-9.19-1.91-3-5.56-3.58-8.57-5a24.17,24.17,0,0,1-5.92-3.51c-2.72-2.48-2.31-4.68.86-6.42a7.6,7.6,0,0,0,4.26-7.45A19.56,19.56,0,0,0,80.42,142c-.71-.65-1.46-1.25-2.15-1.93-1.92-1.86-1.91-2.34.16-4,1.59-1.28,1-2.57,0-3.74-2.69-3.19-6.35-4.83-10.19-6.11a50.91,50.91,0,0,0-21.11-2.5c-.32,0-.71.19-.94,0-.75-.43-1.43-1-2.14-1.47.6-.73,1.12-2,1.83-2.1a19.94,19.94,0,0,1,5.51,0c17.61,2.08,33.14,8.56,45.56,21.62,6.25,6.57,12.45,13.19,18.91,19.54,2.41,2.38,5.48,4.1,8.33,6a11.14,11.14,0,0,0,3,.82l.14-2.32,0,0c.57,2.37,2.78,2.83,4.42,4.07,4.84,3.67,9.33,7.79,14,11.64A32.7,32.7,0,0,0,150,184l-.7,1.08a33.77,33.77,0,0,0,5.14,1.58c2.85.38,5.12-1.89,5.28-5,.14-2.82,1.18-3.71,4-3.29,3.54.54,6.09,2.77,8.49,5.16,6.49,6.45,13.62,12,22.31,15.14a97,97,0,0,0,10.71,2.7,6.43,6.43,0,0,0,1.83,0,54.53,54.53,0,0,0-1.16-6,4.4,4.4,0,0,0-1.86-2c-3.12-2.13-3.47-6.37-2.06-8.43,1.53-2.22,5.23-3.63,7.18-.48a13.82,13.82,0,0,0,7.14,5.6,9.67,9.67,0,0,1,1.64,1l4.91-3.22.35-6-1.91.47L221,182a39.66,39.66,0,0,1,5.68-3.73,5.64,5.64,0,0,1,6.17.69c1.84,0,3.45-.51,4.43.06,2.6,1.51.48,3.88.73,6.1l-1.88-.72a6.9,6.9,0,0,1-2.34,7c-2.17,2-4.69.82-7.28,1.13.15,2.53-.27,4.75-3.37,5-.24,0-.51.18-.71.11-3-1.19-3,.89-3.1,3.36,12.77-2.42,23.55-9.15,35.78-14.44-1.93-1.47-3.29-2.47-4.61-3.52a9.94,9.94,0,0,1-3.73-6.75,16.75,16.75,0,0,1-.14-2.65c.06-1.67-.78-2.4-2.34-2.81a19.73,19.73,0,0,1-3.35-1.6l.43-.74c.67.54,1.29,1.46,2,1.53,1.89.18,3.72,1.51,5.58-1.2,1.47-2.13,3.52-4.49,6.69-5.16,4-.86,7.28-.14,9.72,3.34a5.13,5.13,0,0,0,1.09.88L275.9,162a3.4,3.4,0,0,0,1.15-.86c1.44-2.38,2.86-4.48,6.26-4.27,1.27.07,1.48-2.17.31-3.57C280,149,276.07,144.85,271,142.17a49.27,49.27,0,0,0-5.05-2,4.49,4.49,0,0,1-1.35-.49c-5.35-4.82-12.35-6.25-18.68-9-2.63-1.15-5.38-2-8.22-3.06-.72,2.09-2.35,3.8.09,5.81,1.1.91.75,2.47-.6,3.25s-2.39,0-3.11-1.26a17.84,17.84,0,0,1-1.58-2.48,6.62,6.62,0,0,1-.52-3.28,13.91,13.91,0,0,1,1.71-3.41c-2.16-.77-4.18-1.46-6.19-2.18-10.85-3.91-21.8-7.59-32.51-11.86A46.27,46.27,0,0,1,183.4,105c-1.64-1.32-2.47-4-3-6.26s1.12-3.12,3.18-2.36a11,11,0,0,1,4,2.15c7.59,7.58,16.7,12.91,26.11,17.79a192,192,0,0,0,32.32,13c4.8,1.48,9.68,2.72,14.57,3.88a4.7,4.7,0,0,0,3.19-.74c2.13-1.32,3.38-1.11,5.25.73a7.52,7.52,0,0,0,3.74,2.05,77.05,77.05,0,0,0,9.09.78c3.6.15,3.61.08,3.79-3.88a16.93,16.93,0,0,1-2.25.09,4.25,4.25,0,0,1-1.23-.5,5.82,5.82,0,0,1,.83-1.18,11.24,11.24,0,0,1,1.75-1.15,4.69,4.69,0,0,1,1.24-.48c1.07,2,2.93.62,4.34,1,2.35.73,3.46,2.25,4,5.84,2.72-.38,5.5-.59,8.19-1.17a52.72,52.72,0,0,0,9.4-2.69,8.25,8.25,0,0,0,3.68-3.79c4.55-9.29,8.88-18.67,13.31-28a27.93,27.93,0,0,1,1.53-2.45l1,.36a24.13,24.13,0,0,1-.73,3.93,47.58,47.58,0,0,1-2.54,5.7c-3.12,6-2.66,8.55,2.72,13.23,1.52-1.41,3.11-2.82,4.61-4.31C348.2,104,360.81,91.44,373.51,79c1.37-1.35,1.46-2.43.91-4.2a19.61,19.61,0,0,1,2.44-17.24c2.61-3.95,8.84-4.24,12.55-.72a52.69,52.69,0,0,1,3.87,4.55c1.31-1,2.65-2,4-3,7.61-5.8,15.51-11.16,24.26-15.13,1.52-.7,3.31-1.82,4.33.42.91,2-.45,3.26-2.23,4.11a36.26,36.26,0,0,0-4,2.14c-6.55,4.15-7.93,9.87-3.39,18.58,3.88-1.35,7.77-2.76,11.7-4.08a132.28,132.28,0,0,1,49.47-7.1,127.21,127.21,0,0,1,15.23,2.18,6.2,6.2,0,0,1,4.9,4.5c.54,1.65.11,3.27-1.41,3.92a8.42,8.42,0,0,1-4,.14c-.54-.06-1.06-.7-1.49-1.17-4.85-5.19-11.14-7.12-17.92-7.76a52.07,52.07,0,0,0-30.13,6.41,15.43,15.43,0,0,0-3,2c-2.16,2-2.8,3-1.18,5.76,2.35,3.94,1,7.12-3.41,8.66-1.27.45-2.7.5-3.94,1a46.56,46.56,0,0,0-6,2.94,3,3,0,0,0-1.29,3.55c.6,2.57.52,5.13,2.59,7.46,1.76,2,.14,4.58-1.36,6.55-1.11,1.45-2.62,2.41-2.5,4.81.07,1.27-1.8,2.77-3,3.94-4,3.78-2.91,7.7-.47,11.84,1.84-.46,3.47-1.05,4.53-3,2.39-4.33,5.37-5.06,9.66-2.62a6.25,6.25,0,0,0,.85.45c4,1.3,6.78,3.81,9.43,7.22,2.14,2.76,2.37,5.12,2.09,8.09a5.26,5.26,0,0,1-3.54,4.93c-2.34.92-2.1,1.38-.78,3.48a45.65,45.65,0,0,1,4,8.38,3.57,3.57,0,0,1-1.15,3.08c-.61.49-2,.05-3.07-.1-.39-.06-.74-.47-1.4-.93a6.17,6.17,0,0,0,.06,1.65c1.69,4.56,1.45,9.27,1.27,14-.22,5.67-3.24,10.19-5.87,14.84a42.91,42.91,0,0,1-5.38,7.33,10.65,10.65,0,0,1-8.68,3.39,39,39,0,0,0-7.41.28c-4.54.75-6.38,3.87-5.37,8.41a7.16,7.16,0,0,1,.21,2.84c-.53,2.58-1.06,5.05-.52,7.77.42,2.12-1.23,3.4-3.43,3.27a5.15,5.15,0,0,0-1-.12c-1.65.24-3.6.07-4.84.92-1.08.74.56,5.24,2.08,6.31a29.86,29.86,0,0,1,8.85,9.69,8.81,8.81,0,0,0,1.53,1.71l2,8.44c-.41.68-1.25,1.49.47,2.58a4.52,4.52,0,0,1,1.84,1.78c.49,1.27,1,2.83.7,4-.2.7-2.07.91-3.68,1.53,0,1.41-.13,3.3-.13,5.19,0,6.52.51,13,2.55,19.23a29.44,29.44,0,0,0,6.19,10.49,10.68,10.68,0,0,1,1.72,3.9c.05.18-1.36,1.17-1.59,1-1.26-.83-3-1.7-3.41-2.93-2-6.66-3.95-13.37-5.28-20.18-.92-4.68-.84-9.56-1.11-14.35-.08-1.38,0-2.47-1.89-2.63-.91-.08-1.75-.95-3.41-1.93,1.73-1.14,3-1.86,4.11-2.77a3.76,3.76,0,0,0,1.46-2,13.76,13.76,0,0,0-2.12-10.24ZM182.7,246.91c.65,1,.92,1.43,1.15,1.85,1.24,2.27,1.09,2.35-1.39,3.35-.77.31-1.27,1.47-1.74,2.32a20.66,20.66,0,0,1-1.11,2.58c-.81,1.05-.77,1.77.21,2.64,4.47,4,9.89,5.45,15.66,5.93a1.81,1.81,0,0,0,1.34-1.15c.07-3.91,0-7.83,0-11.75-.06-2.32-1.11-3.61-3.68-3.67-1.56,0-3.1-.75-4.67-1.08S185,247.32,182.7,246.91Zm28.36,14.3-.14.53a12.7,12.7,0,0,0-2.1-2.22c-2.84-1.86-3.9-4.78-4.53-7.82-.25-1.23.1-2.45-1.72-2.36s-3.72-.33-4,2.26c-.32,3-.72,6-.87,9.06-.32,6.2-.26,5.23,5.18,5.09,1.46,0,2.9.1,3.27-1.93a3.48,3.48,0,0,1,2.14-.22c.86,1.82,2.3,1.41,3.45.81.89-.47,1.45-1.58,2.16-2.41Zm172.85-91.79-2.1,1.26,2.77,3.86a97.91,97.91,0,0,0,2.74-9.7c.52-2.93-.86-4-3.92-3.68a10.75,10.75,0,0,0-2.37.31c-.92.32-2.53,1.05-2.47,1.33a28.64,28.64,0,0,0,1.87,5.56,27.53,27.53,0,0,0,2.81-.9Zm-288.13,48c1,4.34,10.15,11.63,14.85,12C107.88,222.7,102.64,219.31,95.78,217.41Zm247.78,51.34c2.76-2.89,5.81-4.82,10.12-2-2.62-4.32-10.78-6.14-15.25-3.81C338.18,266.35,341.3,266.92,343.56,268.75Zm17.05-12.66c-1.86.71-3.33,1.17-4.72,1.82a14.58,14.58,0,0,0-2.22,1.59c.61.78,1.17,1.6,1.83,2.32a3.17,3.17,0,0,0,1.36.92c1.32.39,2.87,1.23,3.16-1.25.05-.42.64-.79,1-1.16s1.45-1.08,1.36-1.3a19.7,19.7,0,0,0-1.78-2.94ZM195,248.73l.56-.71a37.11,37.11,0,0,0-1.9-4c-.44-.7-1.64-1.75-1.89-1.6a6.2,6.2,0,0,0-2.57,2.5c-.23.51.66,2,1.38,2.36A23.77,23.77,0,0,0,195,248.73ZM312.42,277l.13.86c1.31,1,2.56,2.05,3.94,2.89a2.77,2.77,0,0,0,2,.05c.27-.09.59-1.17.41-1.36a11,11,0,0,0-3.2-2.87c-.86-.38-2.17.25-3.28.43Zm19.75-3.72,5.46,3.17-1-6.57Zm-41.28-14.06c-.63-1.87-1.53-3.49-3.21-2.58-.78.43-.59,2.64-.83,4l.78.29ZM418.48,140.62l.15.65c.72,0,1.87.29,2.09,0a13,13,0,0,0,1.12-3.08l-.83-.38Z" transform="translate(-44.04 -23.51)"/><path id="Path_52" data-name="Path 52" class="cls-22" d="M158.26,309.35l3.33-1-1.28,3a7.34,7.34,0,0,0,2.25-.4c4.33-2.71,9.09-2.67,13.93-2.33,2,.14,4-.15,6,.14,3.59.52,5.09,2.86,4.77,6.5-.69,8-5.94,12.1-12.55,15a28.38,28.38,0,0,1-17.17,1.92c-3.53-.69-6.4-2.12-7.37-5.93-1.09-4.29.4-7.73,3.62-10.5a20.24,20.24,0,0,1,3.44-2.19C158.92,312.66,160.39,311.71,158.26,309.35Z" transform="translate(-44.04 -23.51)"/><path id="Path_53" data-name="Path 53" class="cls-23" d="M134.92,123.46c-5.3-.53-5.78-.15-5.61,4.42.4,11,4.23,20.46,12.18,28.17,1.9,1.83,3.91,3.33,6.86,2.4.44-.14,1.16.56,1.75.87-.54.44-1.26,1.38-1.57,1.25-2.5-1-5.21-1.75-7.3-3.33-6-4.51-10.15-10.67-13.88-17.05-6.76-11.58-11.69-23.88-13.74-37.22a15.08,15.08,0,0,1-.38-4,6.08,6.08,0,0,1,1.52-3.53c1.71-1.54,2.14-3.28,2.46-5.46a63.49,63.49,0,0,1,2.54-9.38c.21-.68,1-1.18,1.44-1.72.35.19.6.26.6.33a17.94,17.94,0,0,0,3.1,9.65,5.78,5.78,0,0,1,.77,2.75c.28,8.64,4,16.26,7,24.12C133.53,118.08,134.09,120.6,134.92,123.46Z" transform="translate(-44.04 -23.51)"/><path id="Path_54" data-name="Path 54" class="cls-24" d="M229.54,294.85c.31.17,1,.84,1.68.87,6.82.31,7.62.84,10,7.19,2.78,7.3-1.43,14-9.27,14.72-.86.09-1.7.27-2.9.46.56,1.18,1,2.09,1.43,3,1.22,2.55.51,5.41-1.63,6.52-2.31,1.21-5.37.06-6.7-2.48-1.06-2.05-1.33-4.05,0-6.11a1.46,1.46,0,0,0-.83-2.45c-3.55-1.31-5-3.95-4.93-7.62.07-7.08,3.41-11.18,10.33-12.72A13.66,13.66,0,0,0,229.54,294.85Z" transform="translate(-44.04 -23.51)"/><path id="Path_55" data-name="Path 55" class="cls-25" d="M60.54,251.65c7.72,1.39,13,12.33,9.32,19.22a7.53,7.53,0,0,1-10.15,3.21l-.58-.34a15.83,15.83,0,0,1-7.78-13.36C51.15,255.28,55.89,250.82,60.54,251.65Z" transform="translate(-44.04 -23.51)"/><path id="Path_56" data-name="Path 56" class="cls-26" d="M339.52,83.94c-2.45-.94-6.69-2.6-11-4.18A24.43,24.43,0,0,0,324,78.51c-2.41-.38-3.59-2.64-2-5.18s.45-4-1.14-5.57a34.29,34.29,0,0,1-3.81-4.29,2.69,2.69,0,0,1,0-2.57,2.61,2.61,0,0,1,2.51,0,25.58,25.58,0,0,1,5.46,4.6c3.29,4.14,7.67,6.45,12.39,8.4a34.22,34.22,0,0,1,4.9,2.5,3.58,3.58,0,0,1,1.5,2c.65,2.75,2.62,3.74,5.08,4,4.15.44,7.51-1.18,10.24-4.25a36.14,36.14,0,0,1,3.11-3.32c1-.89,2.29-1.36,3.39,0s.21,2.37-.85,3.22C358,83.46,350.24,85.69,339.52,83.94Z" transform="translate(-44.04 -23.51)"/><path id="Path_57" data-name="Path 57" class="cls-27" d="M465.18,103.71c-.21,1.84-.3,3.69-.65,5.5-.85,4.39-5.55,9-9.87,9.42a3.75,3.75,0,0,1-2.72-1.46c-1.27-1.58-2.3-2.83-4.74-2.39-1.81.33-1.87-1.41-1.54-2.72a19.5,19.5,0,0,1,7-10.39c6-4.86,13.21-6.75,20.81-7.08,1.11,0,2.29,1,3.36,1.72.17.1.07,1-.17,1.26a1.41,1.41,0,0,1-1.24.14C469.21,95.59,466.22,97.33,465.18,103.71Z" transform="translate(-44.04 -23.51)"/><path id="Path_58" data-name="Path 58" class="cls-28" d="M75.66,95c-.22-.29-.82-1-1.37-1.77a8.82,8.82,0,0,1-1.68-7.94c1-3.49,4.36-5,7.35-2.93a23.07,23.07,0,0,1,5.84,5.61c2.4,3.47,4.27,7.3,6.34,11a2.21,2.21,0,0,1,.35,1.14c-.16,1.76.22,4-.74,5.13-1.42,1.64-3.48.2-5-.84-2.67-1.88-5.19-4-7.36-5.66-.9,1-1.57,2.36-2.61,2.78-1.2.48-4-2-3.68-3.45C73.35,97,74.67,96.12,75.66,95Z" transform="translate(-44.04 -23.51)"/><path id="Path_59" data-name="Path 59" class="cls-29" d="M442.25,189.06c2.07-7.13,5.63-12.06,11.48-15.15,2.19-1.16,4.51-2.06,6.75-3.13,2.6-1.24,5.13-2.62,7.78-3.72a3.36,3.36,0,0,1,2.77.22,2.67,2.67,0,0,1,.84,2.43c-.23.67-1.4,1-2.19,1.46a1.23,1.23,0,0,1-.71,0c-8.08-1.63-12,3.77-15.61,9.41a6.62,6.62,0,0,0-.14,6.87c.4.79.73,1.61,1.07,2.42,1.45,3.44.22,6.38-3.25,7.76-3.2,1.27-6.9-.11-8-3.28A27.59,27.59,0,0,1,442.25,189.06Z" transform="translate(-44.04 -23.51)"/><path id="Path_60" data-name="Path 60" class="cls-30" d="M206.55,322c1,7-.39,10-4.45,10.4-3.43.31-6.47-2.81-6.59-6.76a5.86,5.86,0,0,1,6.09-6.3l.27-.59-2.69-1c-.35-.13-.85-.22-1-.48s.14-.7.27-1a15.74,15.74,0,0,0,.85-2.19c.39-1.83,1.16-3.59,3-4,1.27-.25,2.79.42,4.13.88s2.33,1.3,3.58,1.64a5.58,5.58,0,0,1,3.9,6.1c-.37,2.55-2.3,3.79-5.31,3.45C208,322.09,207.39,322.07,206.55,322Z" transform="translate(-44.04 -23.51)"/><path id="Path_61" data-name="Path 61" class="cls-31" d="M273.77,91c-8.94-1.65-11.44-9.88-7.18-15.29,3.15-4,8-3.47,11.14.25,3.47,4.09,3.61,8.28.38,12.61-.61.8-.71,2.29-1.43,2.62C275.8,91.54,274.52,91,273.77,91Z" transform="translate(-44.04 -23.51)"/><path id="Path_62" data-name="Path 62" class="cls-32" d="M195.28,144.52c.51-2.18,1-4.13,3.3-4.26s3.51,1.27,4.44,3.32c.53,1.18,1.84,2,2.92,2.9,1.49,1.18,3.42,2,4.54,3.39.73.93,1,3.45.37,4-2.6,2.34-.9,5.05-1.24,7.55a7.43,7.43,0,0,1-.79,3.18,2.65,2.65,0,0,1-2.52-.16,4.9,4.9,0,0,1-1-3.37c.5-2.67-1.13-4.81-3.88-4.6-1.41.11-4-1.93-4.32-3.27-.54-2.07-1.31-4.08-1.82-6.15A9.63,9.63,0,0,1,195.28,144.52Z" transform="translate(-44.04 -23.51)"/><path id="Path_63" data-name="Path 63" class="cls-33" d="M409.48,236.73c-.08,2.29.21,4.67-.32,6.86-1.1,4.59-6.36,6.21-10.17,3.45a7,7,0,0,0-2.41-.67q-.45-1.5-.75-3c-.32-2.33-1.23-4.85-.67-7,1.44-5.41,7.91-6.58,11.83-2.42.88.93,1.7,1.91,2.55,2.86Z" transform="translate(-44.04 -23.51)"/><path id="Path_64" data-name="Path 64" class="cls-34" d="M193.73,187.17l-2,2.67c-1.61-.28-3.31-.65-5-.87-7-.9-9.55-7.92-6.48-13.68,1.83-3.44,8.9-2.85,11.44.76a9,9,0,0,1,1.67,7.38C193.14,184.58,193.59,185.86,193.73,187.17Z" transform="translate(-44.04 -23.51)"/><path id="Path_65" data-name="Path 65" class="cls-35" d="M324,302.33c2.17-.7,4.32-1.48,6.53-2.06a2.54,2.54,0,0,1,3.39,2.63,8.33,8.33,0,0,1-2.1,4.26c-1.2,1.29-2.77,1.13-4.21-.27a19.34,19.34,0,0,0-3.63-2.17,6.52,6.52,0,0,0-.91.91c-1.84,2.52-4.14,2.69-6.4.49A3.76,3.76,0,0,0,315,305c-1.27-.22-2.46-.31-2.34-2,.11-1.55.58-2.77,2.34-3.18,2.94-.68,2.88-.71,1.9-3.71a5.38,5.38,0,0,1,.1-2.28c.1-.75.4-1.48.43-2.22.06-1.38,3.23-4.84,4.47-4.52.75.2,1.79,1.11,1.83,1.75,0,.81-.62,2.24-1.26,2.42-2.17.6-3.1,1.59-2.43,3.9.15.5-.44,1.18-.5,1.79a2.36,2.36,0,0,0,.27,1.68C321.19,299.93,322.7,301.18,324,302.33Z" transform="translate(-44.04 -23.51)"/><path id="Path_66" data-name="Path 66" class="cls-36" d="M152.76,280.26a16.32,16.32,0,0,1,.89-2.22c.7-1.22.73-2.06-.61-3-.63-.44-.71-1.76-.82-2.71,0-.26,1.05-.94,1.15-.86.69.58,1.7,1.26,1.78,2,.21,1.82,1.14,2.1,2.62,1.87,5.12-.78,9,6.44,6.79,10.77a5.91,5.91,0,0,1-10.41.12c-1-1.67-1.26-3.81-1.86-5.74Z" transform="translate(-44.04 -23.51)"/><path id="Path_67" data-name="Path 67" class="cls-37" d="M483.48,235.64a29.31,29.31,0,0,1-.72,2.94,4,4,0,0,1-5,2.43,3.86,3.86,0,0,1-1.68-1.13c-2.31-2.68-4.57-5.4-3.83-9.38.67-3.59,2.21-5.34,4.82-5.26a6.51,6.51,0,0,1,6.6,6A43,43,0,0,1,483.48,235.64Z" transform="translate(-44.04 -23.51)"/><path id="Path_68" data-name="Path 68" class="cls-38" d="M121.94,269.57c-3.65-.62-6.17-4.5-5.53-8.51.55-3.48,4-6.23,7.13-5.67,3.31.6,6.14,5.22,5.34,9.12C128.26,267.56,125.56,270.37,121.94,269.57Z" transform="translate(-44.04 -23.51)"/><path id="Path_69" data-name="Path 69" class="cls-39" d="M115.52,308.73,112,304.1c-.62,1.13-1,1.72-1.28,2.33-1.65,3.32-5.35,3.84-7.87,1.1a6.11,6.11,0,0,1-.79-7.14c1.93-3.05,5.45-2.87,8.15.56,1,1.26,1.75,1.9,2.92.33.85-1.12,2.1-2.08,3.23-1.08a6.89,6.89,0,0,1,2.15,3.94c.13,1-1,2.15-1.72,3.18A10.21,10.21,0,0,1,115.52,308.73Z" transform="translate(-44.04 -23.51)"/><path id="Path_70" data-name="Path 70" class="cls-40" d="M93.61,295.82A5.54,5.54,0,0,1,87.3,300c-3.45-.61-6.07-4.7-5.41-8.46a5.45,5.45,0,0,1,6.3-4.47C91.64,287.77,94.3,292.05,93.61,295.82Z" transform="translate(-44.04 -23.51)"/><path id="Path_71" data-name="Path 71" class="cls-41" d="M116,318.47a15.06,15.06,0,0,1-1.36,1.63c-1.19,1.06-2.67.6-2.8-1a25.24,25.24,0,0,1,.14-5.63c.06-.42,1.72-1.15,2-.91,1.24.9,1.84.63,2.7-.51,1.87-2.45,4.44-2.67,6.65-.75,2.52,2.18,3,5.9,1.11,8.17s-4.5,2.28-7,.19C117.11,319.32,116.67,319,116,318.47Z" transform="translate(-44.04 -23.51)"/><path id="Path_72" data-name="Path 72" class="cls-42" d="M125.3,350.52c-3.26-2.11-6.55-4.17-9.76-6.35-10.14-6.88-20.19-13.9-30.44-20.63-2-1.33-4.72-1.75-7.18-2.29-1.91-.41-3.29-1.61-3-3.29a2.62,2.62,0,0,1,3.86-2,25.34,25.34,0,0,1,5.52,3.31c10.59,8,21.09,16.21,31.7,24.23,3.09,2.34,6.41,4.37,9.63,6.54Z" transform="translate(-44.04 -23.51)"/><path id="Path_73" data-name="Path 73" class="cls-43" d="M539.65,127c-.84,4.74-4.31,6-7.5,3.25a12,12,0,0,1-2.23-2.79c-1.15-1.87-1.71-3.93-.33-5.87,1.24-1.74,3.21-2,5.2-1.61a5.2,5.2,0,0,1,4.56,4A18.58,18.58,0,0,1,539.65,127Z" transform="translate(-44.04 -23.51)"/><path id="Path_74" data-name="Path 74" class="cls-44" d="M54.18,237.53c-.39,2.35-2.49,4.75-4.31,4.93s-3.95-1.38-4.67-4.07a12.91,12.91,0,0,1-.41-4.91c.37-2.79,2.58-3.84,5.14-2.75C52.74,231.93,54.62,234.93,54.18,237.53Z" transform="translate(-44.04 -23.51)"/><path id="Path_75" data-name="Path 75" class="cls-45" d="M199.61,304.87c-2.92-.5-4.22-2.34-3.73-5.29.53-3.18,2.89-5.41,5.35-5.05,2.73.4,5.88,4.47,5.43,7S203.06,305.46,199.61,304.87Z" transform="translate(-44.04 -23.51)"/><path id="Path_76" data-name="Path 76" class="cls-46" d="M248.44,86.52c-.38,2.17-.63,4.37-1.2,6.49-.27,1-1.15,2.56-1.76,2.56A5.91,5.91,0,0,1,242,94c-.92-.78-.48-10.57.53-11.25a6.1,6.1,0,0,1,3.82-1.06,2.65,2.65,0,0,1,2.33,2.94,1.23,1.23,0,0,1,0,.19c-.08.55-.19,1.1-.29,1.65Z" transform="translate(-44.04 -23.51)"/><path id="Path_77" data-name="Path 77" class="cls-47" d="M292.21,111.56a7.86,7.86,0,0,1-1.73,1.89c-2.82,1.75-8.31-1.31-8.48-4.63-.19-3.82,1.86-5.23,5.48-3.77S292.67,108.5,292.21,111.56Z" transform="translate(-44.04 -23.51)"/><path id="Path_78" data-name="Path 78" class="cls-48" d="M420.15,238.93c-2.51-.55-3.9-3.05-3.23-5.79a3.86,3.86,0,0,1,4.62-3.16,5.08,5.08,0,0,1,3.59,6A4,4,0,0,1,420.15,238.93Z" transform="translate(-44.04 -23.51)"/><path id="Path_79" data-name="Path 79" class="cls-49" d="M463.3,119.24c1.64.4,2.43,1.25,1.57,3a8.54,8.54,0,0,1-6.77,4.8,3.52,3.52,0,0,1-2.66-1.49,2.94,2.94,0,0,1,0-2.78C457.59,120.68,460.11,119.11,463.3,119.24Z" transform="translate(-44.04 -23.51)"/><path id="Path_80" data-name="Path 80" class="cls-50" d="M239.91,122l-1.78-5.33-1.63,2c-.21-.48-.6-1-.49-1.16.76-1.37,1.7-2.42,1.81-4.31s2.58-1.58,4.23-1.69a4.61,4.61,0,0,0,.89-.36l-.93-3c1.79.19,2.53.81,2.19,2.48-.47,2.36-.81,4.73-1.28,7.09a4.32,4.32,0,0,1-.75,1.68C241.55,120.22,240.82,121,239.91,122Z" transform="translate(-44.04 -23.51)"/><path id="Path_81" data-name="Path 81" class="cls-51" d="M127.23,166c-.88-2.56-1.73-5.13-2.67-7.66a5.73,5.73,0,0,1,1.15-6c1.4-1.66,3.52-1.36,4.14.69.45,1.51.77,3.78,0,4.8-1.94,2.53-2.42,5.27-2.64,8.22Z" transform="translate(-44.04 -23.51)"/><path id="Path_82" data-name="Path 82" class="cls-52" d="M447.87,163.51a4.6,4.6,0,0,1,3.26,5.15,3.58,3.58,0,0,1-4.09,3.09,4.69,4.69,0,0,1-3.38-5.54A3.72,3.72,0,0,1,447.87,163.51Z" transform="translate(-44.04 -23.51)"/><path id="Path_83" data-name="Path 83" class="cls-53" d="M129,282.05c-2.71-.48-4.06-2.2-3.65-4.63.37-2.2,2.3-3.8,4.13-3.45s3.07,3.49,2.68,6.29C131.86,282.29,130.57,282.39,129,282.05Z" transform="translate(-44.04 -23.51)"/><path id="Path_84" data-name="Path 84" class="cls-54" d="M217.55,138.4c.23-.14.86-.31,1-.64.9-2.74,2.59-2,4.29-1a4.27,4.27,0,0,1,1.55,5.42,3.8,3.8,0,0,1-4.9,1,2.9,2.9,0,0,1-.89-1.49C218.18,140.68,217.9,139.59,217.55,138.4Z" transform="translate(-44.04 -23.51)"/><path id="Path_85" data-name="Path 85" class="cls-55" d="M450.09,36.17c-3.66-.59-5.56-2.65-5.16-4.81a2.36,2.36,0,0,1,3-2.06c2.28.33,5.42,3.47,4.68,5C452.1,35.32,450.58,35.83,450.09,36.17Z" transform="translate(-44.04 -23.51)"/><path id="Path_86" data-name="Path 86" class="cls-56" d="M202.73,134.19a44.68,44.68,0,0,1,6,3c.75.52.81,2,1.18,3.08-1,.29-2,1-2.91.82-2.7-.46-4.48-2.33-5.69-4.67a2.61,2.61,0,0,1,.22-2C201.71,134.17,202.54,134.23,202.73,134.19Z" transform="translate(-44.04 -23.51)"/><path id="Path_87" data-name="Path 87" class="cls-57" d="M233.73,56.44c-.2,2-1.61,2.67-3.33,2.58s-3.39-2.54-3.06-4.46A3.24,3.24,0,0,1,231,51.87l.17,0C232.85,52.21,234.08,54.42,233.73,56.44Z" transform="translate(-44.04 -23.51)"/><path id="Path_88" data-name="Path 88" class="cls-58" d="M267,126.87c.29-1.73,1.17-2.79,3.07-2.55a3.94,3.94,0,0,1,3.18,4.16c-.23,1.71-2,3.28-3.43,3A4,4,0,0,1,267,126.87Z" transform="translate(-44.04 -23.51)"/><path id="Path_89" data-name="Path 89" class="cls-59" d="M260.83,290.28c-.38,2-1.89,3.55-3.26,3.07a3.23,3.23,0,0,1-2.24-3.94c.35-2.06,2.08-3.74,3.58-3.47S261.24,288.13,260.83,290.28Z" transform="translate(-44.04 -23.51)"/><path id="Path_90" data-name="Path 90" class="cls-60" d="M487.24,115c.59-.31,1.62-1.28,2.68-1.31,1.94,0,3.8,2.34,3.5,4.07s-1.2,2.6-3,2.37C488.54,119.9,486.83,117.66,487.24,115Z" transform="translate(-44.04 -23.51)"/><path id="Path_91" data-name="Path 91" class="cls-61" d="M118.22,296.5c-.55.41-.88.63-1.17.89-.83.73-1.55,1.77-2.81.59s-1.95-2.41-1.22-4.05,2.69-1.83,3.84-.21c.85,1.19,1.37,2.56,3.32,1.86.32-.12,1.17.7,1.47,1.25.16.28-.32,1.32-.56,1.34a3.36,3.36,0,0,1-1.78-.52C118.92,297.44,118.66,297,118.22,296.5Z" transform="translate(-44.04 -23.51)"/><path id="Path_92" data-name="Path 92" class="cls-62" d="M422.07,249.61a3.51,3.51,0,0,1,2.76,4c-.45,1.64-1.58,2.6-3.38,2.16a3,3,0,0,1-2.4-3.75A2.59,2.59,0,0,1,422.07,249.61Z" transform="translate(-44.04 -23.51)"/><path id="Path_93" data-name="Path 93" class="cls-63" d="M71.42,94.54a6.71,6.71,0,0,1-2.6,1.08c-1.57,0-3.18-2.87-2.81-4.67a2.23,2.23,0,0,1,2.74-2C70.31,89.21,71.86,91.89,71.42,94.54Z" transform="translate(-44.04 -23.51)"/><path id="Path_94" data-name="Path 94" class="cls-64" d="M296,102.87c.37-1.45,1.46-1.89,3-1.56a3.34,3.34,0,0,1,2.73,3.85,2.44,2.44,0,0,1-3,2.09A3.94,3.94,0,0,1,296,102.87Z" transform="translate(-44.04 -23.51)"/><path id="Path_95" data-name="Path 95" class="cls-65" d="M299.16,300.44a3.43,3.43,0,0,1,3.76-2.74,2.43,2.43,0,0,1,1.93,3.28,3,3,0,0,1-3.53,2.52A2.48,2.48,0,0,1,299.16,300.44Z" transform="translate(-44.04 -23.51)"/><path id="Path_96" data-name="Path 96" class="cls-66" d="M343.66,353c3.88,2.24,7.34,3.17,11.19,2.54.68-.12,1.55.9,2.33,1.4-.73.56-1.47,1.6-2.21,1.6C350.61,358.57,347.17,356.45,343.66,353Z" transform="translate(-44.04 -23.51)"/><path id="Path_97" data-name="Path 97" class="cls-67" d="M57.85,172.78c1.92,1,3.41,1.53,3,3.56-.33,1.64-1.32,2.77-3.17,2.6-1.32-.12-3.1-2.87-2.46-4.13C55.68,173.92,57,173.44,57.85,172.78Z" transform="translate(-44.04 -23.51)"/><path id="Path_98" data-name="Path 98" class="cls-68" d="M222.5,110.1a2.28,2.28,0,0,1,2.89-2.17c1.93.35,2.5,2,2.36,3.64a2.26,2.26,0,0,1-2.9,2.11A3,3,0,0,1,222.5,110.1Z" transform="translate(-44.04 -23.51)"/><path id="Path_99" data-name="Path 99" class="cls-69" d="M192.68,88.77c-.4.24-1.12,1-1.63.91a2.79,2.79,0,0,1-1.76-1.58,9.22,9.22,0,0,1-.31-3.73c.08-.74.84-1.39,1.29-2.08.7.54,1.81,1,2,1.64A26.18,26.18,0,0,1,192.68,88.77Z" transform="translate(-44.04 -23.51)"/><path id="Path_100" data-name="Path 100" class="cls-70" d="M212.2,101.36c.45-2.06,1.47-2.54,2.94-2.19,2,.47,2.23,2.11,1.78,3.54a3.37,3.37,0,0,1-2.5,1.82C213,104.63,211.94,102.44,212.2,101.36Z" transform="translate(-44.04 -23.51)"/><path id="Path_101" data-name="Path 101" class="cls-71" d="M227.8,143.19c1.72-.85,2.72-1.79,3.59-1.68a2.51,2.51,0,0,1,2.23,3.28c-.28.88-2.09,2.15-2.56,1.91C229.94,146.15,229.2,144.81,227.8,143.19Z" transform="translate(-44.04 -23.51)"/><path id="Path_102" data-name="Path 102" class="cls-72" d="M457.89,249c2.41.71,3.21,2.06,2.75,3.63a3.22,3.22,0,0,1-2.47,1.8c-1.92,0-2.35-1.85-2.11-3.33C456.2,250.22,457.38,249.53,457.89,249Z" transform="translate(-44.04 -23.51)"/><path id="Path_103" data-name="Path 103" class="cls-73" d="M294.58,357.27c-1.68.79-3.07,1.87-3.5,1.57a5.33,5.33,0,0,1-2.11-3.17c-.1-.57,2-2.17,2.23-2A23.82,23.82,0,0,1,294.58,357.27Z" transform="translate(-44.04 -23.51)"/><path id="Path_104" data-name="Path 104" class="cls-74" d="M241.52,142.82c2.2.67,3.11,1.88,2.61,3.4a3.26,3.26,0,0,1-2.5,1.84c-1.81-.17-2.41-1.88-2-3.44C239.77,143.84,241,143.29,241.52,142.82Z" transform="translate(-44.04 -23.51)"/><path id="Path_105" data-name="Path 105" class="cls-75" d="M449.16,122.67l-3.74,2.25-1.78-3.53c1.14-.5,2.27-1.31,3.43-1.36C447.61,120,448.23,121.43,449.16,122.67Z" transform="translate(-44.04 -23.51)"/><path id="Path_106" data-name="Path 106" class="cls-76" d="M207.09,182.3c-2.54-.69-2.07-2.33-1.66-3.34s1.53-2.06,2.28-2a2.29,2.29,0,0,1,2.2,2.37,2.09,2.09,0,0,1-.15.71C209.44,181,208,181.56,207.09,182.3Z" transform="translate(-44.04 -23.51)"/><path id="Path_107" data-name="Path 107" class="cls-77" d="M431.88,287.16l-3.54,2c-.53-.94-1.68-2.09-1.44-2.75.36-1,1.67-1.71,2.58-2.55Z" transform="translate(-44.04 -23.51)"/><path id="Path_108" data-name="Path 108" class="cls-78" d="M161.73,168.82,160,170a27.67,27.67,0,0,1-2.07-4c-.11-.29,1.27-1.6,1.8-1.51C161.68,164.82,161.87,166.5,161.73,168.82Z" transform="translate(-44.04 -23.51)"/><path id="Path_109" data-name="Path 109" class="cls-79" d="M176.27,178.64c-.87.42-2.16,1.42-2.54,1.15a6.4,6.4,0,0,1-2-3c-.09-.27,1.64-1.72,2-1.54a11.57,11.57,0,0,1,2.76,2.38Z" transform="translate(-44.04 -23.51)"/><path id="Path_110" data-name="Path 110" class="cls-80" d="M426.6,24.32a26.56,26.56,0,0,1-3.47,2.86c-.61.34-1.61,0-2.44,0,.18-.89.05-2.1.59-2.59A4.3,4.3,0,0,1,426.6,24.32Z" transform="translate(-44.04 -23.51)"/><path id="Path_111" data-name="Path 111" class="cls-81" d="M405,253.47l2.52,4.88c-.84.22-2.3.8-2.42.6a17,17,0,0,1-1.61-4C403.42,254.67,404.24,254.18,405,253.47Z" transform="translate(-44.04 -23.51)"/><path id="Path_112" data-name="Path 112" class="cls-82" d="M217.92,96.14c1.42-.76,2.68-1.63,2.82-1.48a10.65,10.65,0,0,1,1.91,3.12c0,.14-1.65,1.42-2,1.22C219.71,98.5,219.09,97.45,217.92,96.14Z" transform="translate(-44.04 -23.51)"/><path id="Path_113" data-name="Path 113" class="cls-83" d="M217.22,164.44a27.12,27.12,0,0,1,1.39,4.31c0,.25-1.71,1.14-1.85,1a7.05,7.05,0,0,1-1.85-2.9C214.8,166.41,216,165.65,217.22,164.44Z" transform="translate(-44.04 -23.51)"/><path id="Path_114" data-name="Path 114" class="cls-84" d="M486.69,91.94a19.53,19.53,0,0,1,1.83,2.53,9.16,9.16,0,0,1-2.83,2.06c-.2.08-1.62-1.52-1.47-2.06C484.46,93.63,485.56,93,486.69,91.94Z" transform="translate(-44.04 -23.51)"/><path id="Path_115" data-name="Path 115" class="cls-85" d="M288.21,121.71c.78,1.55,1.65,2.5,1.57,3.36-.07.68-1.3,1.25-2,1.87-.59-.89-1.52-1.73-1.64-2.68C286.05,123.66,287.18,122.9,288.21,121.71Z" transform="translate(-44.04 -23.51)"/><path id="Path_116" data-name="Path 116" class="cls-86" d="M263.79,121.5c.84,1.63,1.68,2.54,1.62,3.39-.05.61-1.31,1.12-2,1.68-.56-.84-1.42-1.63-1.57-2.54C261.72,123.5,262.75,122.77,263.79,121.5Z" transform="translate(-44.04 -23.51)"/><path id="Path_117" data-name="Path 117" class="cls-87" d="M482.14,160.64c.81,1.32,1.84,2.5,1.64,2.77a11,11,0,0,1-2.64,2c-.43-.81-1.26-1.67-1.18-2.42S481.09,161.71,482.14,160.64Z" transform="translate(-44.04 -23.51)"/><path id="Path_118" data-name="Path 118" class="cls-88" d="M215.49,128c-1.31.72-2.48,1.65-2.71,1.46a12.34,12.34,0,0,1-1.94-2.68c.74-.48,1.67-1.5,2.18-1.33C213.85,125.73,214.41,126.8,215.49,128Z" transform="translate(-44.04 -23.51)"/><path id="Path_119" data-name="Path 119" class="cls-89" d="M100.63,242.73c.59,1.6,1.26,2.53,1.12,3.31-.12.6-1.26,1-2,1.49-.48-.77-1.34-1.55-1.33-2.33C98.48,244.57,99.51,244,100.63,242.73Z" transform="translate(-44.04 -23.51)"/><path id="Path_120" data-name="Path 120" class="cls-90" d="M100.25,239.78a28,28,0,0,1,3.61-1.55c.43-.13,1.06.43,1.6.67-.28.53-.46,1.43-.85,1.52a31.65,31.65,0,0,1-4.12.57Z" transform="translate(-44.04 -23.51)"/><path id="Path_121" data-name="Path 121" class="cls-91" d="M305.16,313.31c1.4-.69,2.39-1.54,2.87-1.32a3,3,0,0,1,1.28,2.22c0,.41-1.25,1.34-1.79,1.24S306.28,314.39,305.16,313.31Z" transform="translate(-44.04 -23.51)"/><path id="Path_122" data-name="Path 122" class="cls-92" d="M186,125.25c.61,1.34,1.27,2.14,1.2,2.86-.05.51-1.1.92-1.7,1.37a7.25,7.25,0,0,1-1.19-2.26C184.24,126.8,185.1,126.24,186,125.25Z" transform="translate(-44.04 -23.51)"/><path id="Path_123" data-name="Path 123" class="cls-93" d="M300.3,116.81c-1.32-2.4.64-4,1.32-6l.59.12-1.06,6Z" transform="translate(-44.04 -23.51)"/><path id="Path_124" data-name="Path 124" class="cls-94" d="M244.28,310.09c1.13-.6,2-1.35,2.3-1.17a3.36,3.36,0,0,1,1.46,2c.08.42-.88,1-1.38,1.55Z" transform="translate(-44.04 -23.51)"/><path id="Path_125" data-name="Path 125" class="cls-95" d="M191.75,310.48c-1.35.62-2.13,1.3-2.69,1.15s-1.07-1.09-1.59-1.68c.69-.5,1.35-1.31,2.09-1.4C190,308.49,190.65,309.47,191.75,310.48Z" transform="translate(-44.04 -23.51)"/><path id="Path_126" data-name="Path 126" class="cls-96" d="M443.37,213.7l-2,1.59a12.6,12.6,0,0,1-1-2.86c-.06-.41.74-.94,1.15-1.42Z" transform="translate(-44.04 -23.51)"/><path id="Path_127" data-name="Path 127" class="cls-97" d="M439.86,233.68c1.36,1.37,2,2.66,1,4.18a1.65,1.65,0,0,1-1.53-.12C438.19,236.39,438.3,235,439.86,233.68Z" transform="translate(-44.04 -23.51)"/><path id="Path_128" data-name="Path 128" class="cls-98" d="M417.09,224.86c-1.14.61-2.19,1.34-2.32,1.2a6,6,0,0,1-1.36-2.38c-.05-.18,1.3-1.15,1.66-1C415.77,223,416.23,223.87,417.09,224.86Z" transform="translate(-44.04 -23.51)"/><path id="Path_129" data-name="Path 129" class="cls-99" d="M226.72,162.38c-.32-1.2-.66-2.39-.87-3.61,0-.06,1.51-.67,1.72-.45,1.21,1.26.83,2.61.08,3.88Z" transform="translate(-44.04 -23.51)"/><path id="Path_130" data-name="Path 130" class="cls-100" d="M213.13,329.57c.58,1.41,1.12,2.18,1.15,3,0,.4-.88.83-1.37,1.25-.52-.66-1.3-1.26-1.48-2C211.33,331.36,212.21,330.71,213.13,329.57Z" transform="translate(-44.04 -23.51)"/><path id="Path_131" data-name="Path 131" class="cls-101" d="M224.89,103.66l-1-4.77,1.14-.31,1.39,4.68Z" transform="translate(-44.04 -23.51)"/><path id="Path_132" data-name="Path 132" class="cls-102" d="M270.42,160.05c.57,1.15,1.15,1.85,1.18,2.56,0,.43-.83.89-1.28,1.33a8.63,8.63,0,0,1-1.5-2.08C268.72,161.57,269.61,160.93,270.42,160.05Z" transform="translate(-44.04 -23.51)"/><path id="Path_133" data-name="Path 133" class="cls-103" d="M130.06,292.36c-1,.55-1.9,1.21-2.09,1.06a3.73,3.73,0,0,1-1.17-1.93c-.06-.26,1.07-1.14,1.33-1C128.77,290.77,129.21,291.48,130.06,292.36Z" transform="translate(-44.04 -23.51)"/><path id="Path_134" data-name="Path 134" class="cls-104" d="M424.31,244.8c-1.19.41-2,1-2.44.75a2.24,2.24,0,0,1-.86-1.85c0-.41,1.19-1.18,1.4-1.06A10.78,10.78,0,0,1,424.31,244.8Z" transform="translate(-44.04 -23.51)"/><path id="Path_135" data-name="Path 135" class="cls-105" d="M115.68,244.5a15.3,15.3,0,0,1,1,2.85c0,.16-1.12.78-1.43.62a2.08,2.08,0,0,1-1-1.52C114.24,246,114.92,245.47,115.68,244.5Z" transform="translate(-44.04 -23.51)"/><path id="Path_136" data-name="Path 136" class="cls-106" d="M329.48,315.62c1-.51,1.63-1.09,2.09-1a1.76,1.76,0,0,1,1.05,1.39,1.78,1.78,0,0,1-1.37,1.09C330.77,317.11,330.31,316.38,329.48,315.62Z" transform="translate(-44.04 -23.51)"/><path id="Path_137" data-name="Path 137" class="cls-107" d="M432.53,52.88l1.45,2c-.52.26-1.2.87-1.53.71-.59-.26-1-1-1.44-1.52Z" transform="translate(-44.04 -23.51)"/><path id="Path_138" data-name="Path 138" class="cls-108" d="M64.22,155.48l2-1c.29.6.87,1.24.79,1.78a1.74,1.74,0,0,1-1.45,1C65.16,157.14,64.83,156.3,64.22,155.48Z" transform="translate(-44.04 -23.51)"/><path id="Path_139" data-name="Path 139" class="cls-109" d="M94.51,231.55l-3.4,1.54-.5-1,3.22-1.83Z" transform="translate(-44.04 -23.51)"/><path id="Path_140" data-name="Path 140" class="cls-110" d="M506.28,79.22l-2.47-1.43,1-1.35L507,78.25Z" transform="translate(-44.04 -23.51)"/><path id="Path_141" data-name="Path 141" class="cls-111" d="M297,299.64c-.47-.95-1-1.53-1-2.1s.7-.82,1.09-1.23a6,6,0,0,1,1.26,1.74C298.51,298.34,297.73,298.88,297,299.64Z" transform="translate(-44.04 -23.51)"/><path id="Path_142" data-name="Path 142" class="cls-112" d="M280.48,334a11.64,11.64,0,0,1,1.17,2.61c0,.29-.64.67-1,1-.38-.5-1-.95-1.1-1.51C279.45,335.72,279.94,335.18,280.48,334Z" transform="translate(-44.04 -23.51)"/><path id="Path_143" data-name="Path 143" class="cls-113" d="M228,147.53c.52,1.06,1.08,1.68,1,2.2s-.82.87-1.28,1.3a5.41,5.41,0,0,1-.93-1.75C226.77,148.87,227.4,148.39,228,147.53Z" transform="translate(-44.04 -23.51)"/><path id="Path_144" data-name="Path 144" class="cls-114" d="M47.84,184.32a16.83,16.83,0,0,1-1.5-2c-.06-.12.63-.66,1-1l1.51,2.41Z" transform="translate(-44.04 -23.51)"/><path id="Path_145" data-name="Path 145" class="cls-115" d="M246.69,155.71l-1.36-3.86.76-.31,1.55,3.8Z" transform="translate(-44.04 -23.51)"/><path id="Path_146" data-name="Path 146" class="cls-116" d="M418.39,140.89l2.53-2.85.83.38a13,13,0,0,1-1.12,3.08c-.22.33-1.37,0-2.09,0Z" transform="translate(-44.04 -23.51)"/><path id="Path_164" data-name="Path 164" class="cls-117" d="M513.86,202.21c1.39,2.22,3.78,6.1,6.25,9.93a23.37,23.37,0,0,0,2.85,3.72c1.7,1.75,1.28,4.27-1.55,5.32s-2.74,2.88-2.44,5.14a34.47,34.47,0,0,1,.46,5.72,2.68,2.68,0,0,1-1.57,2c-.57.13-1.81-.78-2-1.47a25.1,25.1,0,0,1-1.6-7c-.14-5.29-2.25-9.77-4.84-14.17a33.77,33.77,0,0,1-2.41-4.95,3.64,3.64,0,0,1,0-2.52c1.14-2.59.16-4.56-1.65-6.25-3-2.85-6.71-3.57-10.74-2.77a33.84,33.84,0,0,1-4.48.78c-1.35.1-2.65-.29-2.72-2s1.26-2,2.61-2.06C498.81,191.46,506.36,194.35,513.86,202.21Z" transform="translate(-44.04 -23.51)"/><path id="Path_165" data-name="Path 165" class="cls-118" d="M570.6,236.17c6.15,6.7,3.2,14.78-3.46,16.54-4.93,1.31-8.47-2-8.75-6.91q-.48-8,7.29-10.29c1-.28,2-1.41,2.72-1.24C569.33,234.48,570.05,235.66,570.6,236.17Z" transform="translate(-44.04 -23.51)"/><path id="Path_166" data-name="Path 166" class="cls-119" d="M514.18,262.39c1.61-1.5,3.14-3.11,4.87-4.46.81-.63,2.46-1.35,2.94-1a5.91,5.91,0,0,1,1.83,3.3c.26,1.17-6,8.74-7.19,8.66a6,6,0,0,1-3.7-1.45,2.65,2.65,0,0,1-.09-3.75,1.59,1.59,0,0,1,.13-.13c.4-.4.82-.77,1.23-1.15Z" transform="translate(-44.04 -23.51)"/><path id="Path_167" data-name="Path 167" class="cls-120" d="M568.28,208.62a8,8,0,0,1,2.51-.47c3.31.31,5.86,6.06,4,8.81-2.14,3.16-4.63,3.06-6.65-.29S566.06,210.79,568.28,208.62Z" transform="translate(-44.04 -23.51)"/><path id="Path_168" data-name="Path 168" class="cls-121" d="M542.34,239.2l-1.79,5.34,2.49-.6c-.12.52-.1,1.14-.31,1.23-1.43.63-2.81.9-4,2.35s-3-.3-4.4-1.19a3.69,3.69,0,0,0-.92-.25l-1,2.92c-1.32-1.23-1.54-2.17-.26-3.31,1.8-1.59,3.5-3.28,5.29-4.88a4.42,4.42,0,0,1,1.61-.9C540,239.62,541,239.47,542.34,239.2Z" transform="translate(-44.04 -23.51)"/><path id="Path_169" data-name="Path 169" class="cls-122" d="M507.83,295.26c1.38-1.5,2.89-1.16,4.21-.05s1.18,4.07-.24,5.41a3.22,3.22,0,0,1-4.56-.08l-.12-.13C506,299.18,506.33,296.67,507.83,295.26Z" transform="translate(-44.04 -23.51)"/><path id="Path_170" data-name="Path 170" class="cls-123" d="M597.65,211.59c-1.27,1.22-2.61,1.53-4,.19a3.94,3.94,0,0,1,0-5.23c1.21-1.23,3.59-1.41,4.56-.35A4,4,0,0,1,597.65,211.59Z" transform="translate(-44.04 -23.51)"/><path id="Path_171" data-name="Path 171" class="cls-124" d="M560,213.27c-1.16.94-2.3.63-3.36-.58a3.35,3.35,0,0,1,.13-4.72,2.44,2.44,0,0,1,3.64.13A3.91,3.91,0,0,1,560,213.27Z" transform="translate(-44.04 -23.51)"/><path id="Path_172" data-name="Path 172" class="cls-125" d="M549.1,259.17a2.29,2.29,0,0,1-3.62,0c-1.34-1.44-.79-3.12.3-4.33a2.26,2.26,0,0,1,3.59.06A3,3,0,0,1,549.1,259.17Z" transform="translate(-44.04 -23.51)"/><path id="Path_173" data-name="Path 173" class="cls-126" d="M560.07,294.15c.47.05,1.51-.14,1.84.26a2.75,2.75,0,0,1,.46,2.32,9.29,9.29,0,0,1-2,3.17c-.51.53-1.51.6-2.29.88-.23-.85-.87-1.86-.61-2.52A26.58,26.58,0,0,1,560.07,294.15Z" transform="translate(-44.04 -23.51)"/><path id="Path_174" data-name="Path 174" class="cls-127" d="M552.06,272.35c-1.6,1.38-2.7,1.15-3.67,0-1.29-1.55-.51-3,.71-3.9a3.42,3.42,0,0,1,3.1.05C553.36,269.24,552.91,271.65,552.06,272.35Z" transform="translate(-44.04 -23.51)"/><path id="Path_175" data-name="Path 175" class="cls-128" d="M544.35,273.08c-1.6-.25-3.12-.31-3.14-.52a10.43,10.43,0,0,1,.35-3.64c0-.14,2.17-.14,2.35.25C544.35,270.11,544.2,271.33,544.35,273.08Z" transform="translate(-44.04 -23.51)"/><path id="Path_176" data-name="Path 176" class="cls-129" d="M577.58,202.93c.31-1.71.18-3,.77-3.63s1.79-.22,2.73-.29c-.07,1.07.17,2.3-.3,3.13C580.48,202.67,579.12,202.59,577.58,202.93Z" transform="translate(-44.04 -23.51)"/><path id="Path_177" data-name="Path 177" class="cls-130" d="M597,217.79c.31-1.8.18-3,.74-3.68.41-.46,1.72-.11,2.63-.13a7.8,7.8,0,0,1-.27,3C599.81,217.44,598.56,217.4,597,217.79Z" transform="translate(-44.04 -23.51)"/><path id="Path_178" data-name="Path 178" class="cls-131" d="M565,199.57c-.39,2.71-2.94,2.83-4.65,4l-.4-.44,4.46-4.16Z" transform="translate(-44.04 -23.51)"/><path id="Path_179" data-name="Path 179" class="cls-132" d="M543.31,262.88l-2,4.44-1.08-.44,1.69-4.57Z" transform="translate(-44.04 -23.51)"/></g></svg>