<?xml version="1.0" encoding="utf-8"?>
<!-- Generator: Adobe Illustrator 23.1.0, SVG Export Plug-In . SVG Version: 6.00 Build 0)  -->
<svg version="1.1" id="Layer_1" xmlns="http://www.w3.org/2000/svg" xmlns:xlink="http://www.w3.org/1999/xlink" x="0px" y="0px"
	 viewBox="0 0 348.4 342.1" style="enable-background:new 0 0 348.4 342.1;" xml:space="preserve">
<style type="text/css">
	.st0{fill:#00D600;}
</style>
<title>contact-icon</title>
<g id="Group_22">
	<g id="Group_21">
		<path id="Path_36" class="st0" d="M120.2,232.7c15.4,21.7,30.5,40.8,40.4,52.9c2.1,2.7,4.2,5.1,6,7.3l3,3.6c2.4,2.6,6.4,2.8,9,0.4
			c0.2-0.1,0.3-0.3,0.4-0.5l2.9-3.5c1.8-2.2,3.8-4.6,6-7.3c9.9-12.1,25-31.2,40.4-52.9c14.9-20.6,28.3-42.2,40.1-64.7
			c11.8-23.2,17.8-42,17.8-55.9c-0.1-29.6-11.9-58.1-32.9-79l-0.1-0.1l-0.1-0.1C210-10.7,139.4-11.1,95.7,32.1c0,0,0,0,0,0L95,32.8
			c-21.1,21-32.9,49.6-32.8,79.4c0,13.9,6,32.7,17.8,55.9C91.8,190.6,105.3,212.2,120.2,232.7z M130.2,61.7
			c11.6-11.7,27.5-18.3,44-18.2c3.4,0,6.2,2.8,6.2,6.2s-2.8,6.2-6.2,6.2c-27.5,0-49.8,22.3-49.8,49.8c0,27.5,22.3,49.8,49.8,49.8
			c27.5,0,49.8-22.3,49.8-49.8c0-13.2-5.2-25.9-14.6-35.2c-2.5-2.4-2.6-6.3-0.2-8.8c2.4-2.5,6.3-2.6,8.8-0.2l0,0l0.2,0.2
			c24.3,24.3,24.3,63.7,0,88s-63.7,24.3-88,0C105.9,125.4,105.9,86,130.2,61.7L130.2,61.7L130.2,61.7z"/>
		<path id="Path_37" class="st0" d="M347.6,333.1l-38.3-68.4c-1.2-2.2-3.6-3.5-6.1-3.4h-80.6c-9.8,12.9-18.7,24.1-25.2,32.2
			c-1.5,1.9-2.9,3.5-4.2,5.1h30.7c3.4,0,6.2,2.8,6.2,6.2s-2.8,6.2-6.2,6.2h-99.5c-3.4,0-6.2-2.8-6.2-6.2s2.8-6.2,6.2-6.2h30.7
			c-1.4-1.7-2.7-3.3-4.3-5.2c-6.6-8.1-15.4-19.2-25.2-32.1H45.1c-2.5-0.1-4.8,1.2-6.1,3.4L0.8,333.1c-1.1,1.8-1.1,3.9,0,5.7
			c1.3,2.1,3.5,3.4,6,3.4h334.8c2.5,0,4.7-1.2,6-3.3C348.6,337.1,348.7,334.9,347.6,333.1z M87.1,329.7H37.3c-3.4-0.1-6.1-3-6-6.5
			c0.1-3.2,2.7-5.8,6-6h49.8c3.4,0.1,6.1,3,6,6.5C92.9,327,90.3,329.6,87.1,329.7L87.1,329.7z M104.7,302c-1.9,2.9-5.8,3.6-8.6,1.7
			L79,292.4H56c-3.4,0-6.2-2.8-6.2-6.2s2.8-6.2,6.2-6.2h24.9c1.2,0,2.4,0.3,3.4,1l18.7,12.5C105.9,295.3,106.7,299.2,104.7,302
			L104.7,302z M248.8,304.8c-3.4,0-6.2-2.8-6.2-6.2c0-2.1,1-4.1,2.8-5.2L264,281c1-0.7,2.2-1,3.5-1h24.9c3.4,0,6.2,2.8,6.2,6.2
			s-2.8,6.2-6.2,6.2h-23l-17.1,11.4C251.3,304.5,250.1,304.8,248.8,304.8L248.8,304.8z M311,329.7h-49.8c-3.4,0-6.2-2.8-6.2-6.2
			s2.8-6.2,6.2-6.2h49.8c3.4,0,6.2,2.8,6.2,6.2S314.5,329.7,311,329.7L311,329.7z"/>
	</g>
</g>
</svg>
