<?xml version="1.0" encoding="utf-8"?>
<!-- Generator: Adobe Illustrator 23.1.0, SVG Export Plug-In . SVG Version: 6.00 Build 0)  -->
<svg version="1.1" id="Layer_1" xmlns="http://www.w3.org/2000/svg" xmlns:xlink="http://www.w3.org/1999/xlink" x="0px" y="0px"
	 viewBox="0 0 125.5 125.5" style="enable-background:new 0 0 125.5 125.5;" xml:space="preserve">
<style type="text/css">
	.st0{fill:#00D600;}
</style>
<title>facebook-icon</title>
<path id="Path_53" class="st0" d="M125.5,62.8C125.5,28.1,97.4,0,62.8,0S0,28.1,0,62.7s28.1,62.8,62.7,62.8h0c0.4,0,0.7,0,1.1,0
	V76.6H50.4V60.9h13.5V49.3c0-13.4,8.2-20.7,20.2-20.7c4,0,8.1,0.2,12.1,0.6v14h-8.2c-6.5,0-7.8,3.1-7.8,7.6v10h15.6l-2,15.7H80.1
	V123C107,115.3,125.5,90.7,125.5,62.8z"/>
</svg>
