<?xml version="1.0" encoding="utf-8"?>
<!-- Generator: Adobe Illustrator 23.1.0, SVG Export Plug-In . SVG Version: 6.00 Build 0)  -->
<svg version="1.1" id="Layer_1" xmlns="http://www.w3.org/2000/svg" xmlns:xlink="http://www.w3.org/1999/xlink" x="0px" y="0px"
	 viewBox="0 0 616.6 305.5" style="enable-background:new 0 0 616.6 305.5;" xml:space="preserve">
<style type="text/css">
	.st0{fill:#1A8D44;}
	.st1{fill:#71F78E;}
	.st2{fill:#00D600;}
</style>
<title>front-logo</title>
<path id="Path_21" class="st0" d="M152.8,119.3c-18.5,0-33.5,15-33.5,33.5s15,33.5,33.5,33.5s33.5-15,33.5-33.5l0,0l0,0
	C186.2,134.3,171.3,119.3,152.8,119.3z M152.8,171.9c-10.6,0-19.1-8.6-19.1-19.1c0-10.6,8.6-19.1,19.1-19.1
	c10.6,0,19.1,8.6,19.1,19.1c0,5.1-2,9.9-5.6,13.5S157.8,171.9,152.8,171.9z"/>
<path id="Path_22" class="st1" d="M143,247.9c-44.8-4.4-81-40.6-85.4-85.4C55,137,62.7,111.4,79.2,91.7c3.2-3.8,3-9.5-0.5-13
	L61.5,61.5c-26.8,26.8-40.5,64-37.4,101.8c5,62.6,55.7,113.3,118.3,118.3c37.8,3.1,75-10.6,101.8-37.4L227,227
	c-3.6-3.5-9.2-3.7-13-0.5C194.1,242.8,168.6,250.6,143,247.9z"/>
<path id="Path_23" class="st2" d="M152.8,205.1c28.9,0,52.3-23.4,52.4-52.3s-23.4-52.3-52.3-52.4s-52.3,23.4-52.4,52.3l0,0l0,0
	C100.5,181.6,123.9,205.1,152.8,205.1z M109.6,157.3h20c1.8,9.5,9.2,16.9,18.7,18.7v19.9C127.9,193.8,111.8,177.6,109.6,157.3
	L109.6,157.3z M152.8,138.1c6.4,0,12,4.1,14,10.2h-28C140.7,142.2,146.4,138.1,152.8,138.1z M166.8,157.3c-2.5,7.7-10.7,12-18.4,9.5
	c-4.5-1.4-8-5-9.5-9.5H166.8z M157.3,195.9v-20c9.5-1.8,16.9-9.2,18.7-18.7h20C193.8,177.6,177.7,193.8,157.3,195.9L157.3,195.9z
	 M195.9,148.3h-20c-1.8-9.5-9.2-16.9-18.7-18.7v-20C177.6,111.7,193.7,127.9,195.9,148.3L195.9,148.3z M148.3,109.6v20
	c-9.5,1.8-16.9,9.2-18.7,18.7h-20C111.8,127.9,127.9,111.8,148.3,109.6L148.3,109.6z"/>
<path id="Path_24" class="st2" d="M301,148.3h-14.7c-2.4-70.3-58.8-126.7-129-129.1V4.5c0-2.5-2-4.5-4.5-4.5s-4.5,2-4.5,4.5v14.7
	C78,21.6,21.6,78,19.3,148.3H4.5c-2.5,0-4.5,2-4.5,4.5s2,4.5,4.5,4.5h14.7c2.4,70.3,58.8,126.6,129.1,129V301c0,2.5,2,4.5,4.5,4.5
	s4.5-2,4.5-4.5v-14.7c70.3-2.4,126.6-58.8,129-129.1H301c2.5,0,4.5-2,4.5-4.5S303.5,148.2,301,148.3L301,148.3z M148.3,28.2v10.2
	h-0.2C88.5,40.8,40.8,88.5,38.4,148.1v0.2H28.2C30.6,83,83,30.6,148.3,28.2z M28.2,157.3h10.2c1,25.4,10.4,49.7,26.7,69.1
	c1.6,1.9,4.4,2.2,6.3,0.6c1.9-1.6,2.2-4.4,0.6-6.3l0,0c-15-17.8-23.6-40.1-24.6-63.4H81c2.5,0,4.5-2,4.5-4.5s-2-4.5-4.5-4.5H47.3
	c2.3-54.8,46.2-98.7,101-101v33.8c0,2.5,2,4.5,4.5,4.5s4.5-2,4.5-4.5V47.3c23.3,1,45.5,9.6,63.4,24.6c1.8,1.7,4.7,1.6,6.3-0.3
	c1.7-1.8,1.6-4.7-0.3-6.3c-0.1-0.1-0.2-0.2-0.3-0.2l0,0c-19.4-16.3-43.7-25.7-69.1-26.7V28.2C222.6,30.6,275,83,277.4,148.3h-10.2
	c-1-25.4-10.4-49.7-26.8-69.1c-1.6-1.9-4.4-2.1-6.3-0.5c-1.9,1.6-2.1,4.4-0.5,6.3c15,17.8,23.6,40.1,24.6,63.4h-33.8
	c-2.5,0-4.5,2-4.5,4.5s2,4.5,4.5,4.5h33.7c-2.3,54.8-46.2,98.7-101,101v-33.8c0.1-2.5-1.8-4.6-4.2-4.7s-4.6,1.8-4.7,4.2
	c0,0,0,0,0,0.1s0,0.3,0,0.4v33.7c-23.3-1-45.5-9.6-63.4-24.6c-2-1.5-4.8-1.1-6.3,0.8c-1.4,1.8-1.2,4.4,0.5,6
	c19.4,16.4,43.7,25.8,69.1,26.7v10.2C83,274.9,30.6,222.5,28.2,157.3z M157.3,277.4v-10.2h0.2c59.6-2.4,107.3-50.1,109.7-109.7v-0.2
	h10.2C274.9,222.6,222.6,274.9,157.3,277.4L157.3,277.4z"/>
<g>
	<polygon class="st0" points="337.7,108 356.2,108 356.2,99.1 337.7,99.1 337.7,68.8 358,68.8 358,60.1 328,60.1 328,148.4 
		358.4,148.4 358.4,139.6 337.7,139.6 	"/>
	<polygon class="st0" points="397.8,94.2 397.8,92.7 389,92.7 381.2,110.9 373.6,92.7 363.9,92.7 376.1,119.8 363.7,147 
		363.7,148.4 372.6,148.4 381.1,128.7 389.5,148.4 399.1,148.4 386.2,119.6 	"/>
	<path class="st0" d="M416.8,76h-9.2v16.7h-6.5v8.5h6.5v40c0,4.7,2.5,7.2,7.2,7.2h11.4v-8.5h-9.4v-38.8h9.4v-8.5h-9.4V76z"/>
	<path class="st0" d="M456.6,92.4c-2,0-4.5,0.2-7.5,0.7c-2.1,0.3-4.1,0.7-6.2,1v-1.3h-9.3v55.7h9.3v-46.7l11.5-0.4v11.1h9.2v-13
		C463.6,94.8,461.2,92.4,456.6,92.4z"/>
	<path class="st0" d="M495.8,92.7h-17.7c-4.7,0-7.2,2.5-7.2,7.2v41.2c0,4.7,2.5,7.2,7.2,7.2h17.7c4.7,0,7.2-2.5,7.2-7.2v-10.7h-9.1
		v9.8h-13.8v-17.4h19.8l3.1-3.2V99.9C503,95.2,500.5,92.7,495.8,92.7z M480.1,115v-14.2h13.8V115H480.1z"/>
	<path class="st0" d="M562,92.4c-2.1,0-5.2,0.3-9.2,0.8c-2.9,0.4-5.8,0.8-8.7,1.2c-1.3-1.3-3.1-2-5.4-2c-2.3,0-5.3,0.2-8.8,0.7
		c-2.5,0.4-5,0.7-7.5,1v-1.4h-9.3v55.7h9.3v-46.7l14-0.4v47.1h9.3v-46.7l14-0.4v47.1h9.3v-49C569.1,94.8,566.6,92.4,562,92.4z"/>
	<path class="st0" d="M608,122.9l3.1-3.2V99.9c0-4.7-2.5-7.2-7.2-7.2h-17.7c-4.7,0-7.2,2.5-7.2,7.2v41.2c0,4.7,2.5,7.2,7.2,7.2h17.7
		c4.7,0,7.2-2.5,7.2-7.2v-10.7h-9.1v9.8h-13.8v-17.4H608z M588.1,115v-14.2h13.8V115H588.1z"/>
</g>
<g>
	<path class="st2" d="M352.3,213.5c0.3,0,0.5,0,0.8,0c1.1,0.1,1.9,0.1,2.5,0.1c7.8,0,9.4-3.9,9.4-7.2v-32.8c0-2.1-0.7-3.8-2-5.1
		c-1.3-1.3-3.1-2-5.1-2H328v88.3h9.7v-79.6h17.7v29.8h-13.2l-1.6,2.4l16.5,47.4h10.2l-0.5-1.3C361.9,240.2,357.1,226.7,352.3,213.5z
		"/>
	<path class="st2" d="M400.5,199.2h-17.7c-4.7,0-7.2,2.5-7.2,7.2v10h9.1v-9.2h13.8v14.2h-16.3c-4.7,0-7.2,2.5-7.2,7.2v19.6
		c0,4.6,2.4,7,7,7c2.2,0,5.2-0.2,8.8-0.7c2.5-0.3,5.1-0.7,7.6-1v1.3h9.2v-48.5C407.7,201.7,405.2,199.2,400.5,199.2z M398.6,229.2
		v17l-14.4,0.3v-17.3H398.6z"/>
	<path class="st2" d="M440.9,200.5c-9.6-1.5-11.5-1.7-12.1-1.7c-3.4,0-6.2,1.2-8.3,3.5c-2.1,2.3-3.1,5.2-3.1,8.6v31.4
		c0,3.6,1.2,6.6,3.5,9c2.4,2.4,5.3,3.6,8.9,3.6h11.1V267h-13.3v-7.1h-9.2v1c0,0.5,0,1.4-0.1,2.6c-0.1,1.3-0.1,2.2-0.1,2.8
		c0,7.3,4,8.9,7.3,8.9H443c4.7,0,7.2-2.5,7.2-7.2v-68.8h-9.3V200.5z M431.8,207.3c0.9,0,3.9,0.2,9.2,0.5v38.6h-9.2
		c-3.5,0-5.1-1.6-5.1-5.2v-28.7C426.7,208.9,428.3,207.3,431.8,207.3z"/>
	<path class="st2" d="M489.3,229.3l3.1-3.2v-19.7c0-4.7-2.5-7.2-7.2-7.2h-17.7c-4.7,0-7.2,2.5-7.2,7.2v41.2c0,4.7,2.5,7.2,7.2,7.2
		h17.7c4.7,0,7.2-2.5,7.2-7.2v-10.7h-9.1v9.8h-13.8v-17.4H489.3z M469.4,221.5v-14.2h13.8v14.2H469.4z"/>
</g>
</svg>
