<?xml version="1.0" encoding="utf-8"?>
<!-- Generator: Adobe Illustrator 23.1.0, SVG Export Plug-In . SVG Version: 6.00 Build 0)  -->
<svg version="1.1" id="Layer_1" xmlns="http://www.w3.org/2000/svg" xmlns:xlink="http://www.w3.org/1999/xlink" x="0px" y="0px"
	 viewBox="0 0 322 322" style="enable-background:new 0 0 322 322;" xml:space="preserve">
<style type="text/css">
	.st0{fill:#00D600;}
</style>
<title>hours-icon</title>
<path id="clock" class="st0" d="M161,0C72.1,0,0,72.1,0,161s72.1,161,161,161s161-72.1,161-161l0,0l0,0C321.9,72.1,249.9,0.1,161,0z
	 M237.6,244.3c-5.2,5.2-13.7,5.3-19,0c0,0,0,0,0,0l0,0l-67.1-67.1c-2.5-2.5-3.9-5.9-3.9-9.5V80.5c0.2-7.4,6.4-13.3,13.8-13
	c7.1,0.2,12.9,5.9,13,13v81.6l63.2,63.1C242.8,230.5,242.8,239,237.6,244.3C237.6,244.3,237.5,244.3,237.6,244.3L237.6,244.3
	L237.6,244.3z"/>
</svg>
