<svg id="Layer_1" data-name="Layer 1" xmlns="http://www.w3.org/2000/svg" viewBox="0 0 187.81 187.78"><defs><style>.cls-1{fill:#fff;}</style></defs><title>nav-cart-icon</title><path id="Path_330" data-name="Path 330" class="cls-1" d="M257.3,172.44a18.78,18.78,0,1,0,18.77,18.79h0a18.7,18.7,0,0,0-18.61-18.78ZM201,22.22V41h18.78l33.76,71.22-12.68,23a19.26,19.26,0,0,0-2.3,9.06,18.79,18.79,0,0,0,18.77,18.79H370V144.27H261.29a2.31,2.31,0,0,1-2.35-2.29v0a2.19,2.19,0,0,1,.28-1.12l8.41-15.31h69.94A18.84,18.84,0,0,0,354,115.83L387.59,54.9a9.15,9.15,0,0,0,1.18-4.51A9.4,9.4,0,0,0,379.39,41H240.54l-8.93-18.78ZM351.18,172.44A18.78,18.78,0,1,0,370,191.22h0a18.7,18.7,0,0,0-18.61-18.78Z" transform="translate(-200.96 -22.22)"/></svg>