<?xml version="1.0" encoding="utf-8"?>
<!-- Generator: Adobe Illustrator 23.1.0, SVG Export Plug-In . SVG Version: 6.00 Build 0)  -->
<svg version="1.1" id="Layer_1" xmlns="http://www.w3.org/2000/svg" xmlns:xlink="http://www.w3.org/1999/xlink" x="0px" y="0px"
	 viewBox="0 0 526.9 162.5" style="enable-background:new 0 0 526.9 162.5;" xml:space="preserve">
<style type="text/css">
	.st0{fill:#00D600;}
	.st1{fill:#1A8D44;}
	.st2{fill:#71F78E;}
</style>
<title>nav-logo</title>
<g>
	<path class="st0" d="M210.6,132.6h-37.5V18.5h37v9h-26.9V70h24.5v9.1h-24.5v44.5h27.3V132.6z"/>
	<path class="st0" d="M274.9,132.6h-10.6l-21.2-61.1l1.4-2h18.1v-42h-26v105.1h-10.1V18.5h38.2c2.4,0,4.3,0.8,5.8,2.3
		c1.5,1.5,2.3,3.5,2.3,5.8v43.3c0,5.5-3.7,8.2-11.1,8.2c-0.7,0-1.8,0-3.2-0.1c-1.4-0.1-2.4-0.1-3.1-0.1
		C261.9,96.1,268.4,114.3,274.9,132.6z"/>
	<path class="st0" d="M364.5,79.1c0,2.4-0.8,4.3-2.3,5.9c-1.5,1.5-3.5,2.3-5.9,2.3h-26.9v45.3h-10.1V18.5h37c2.4,0,4.3,0.8,5.9,2.3
		c1.5,1.5,2.3,3.5,2.3,5.8V79.1z M354.4,78.3V27.4h-24.9v50.8H354.4z"/>
	<path class="st0" d="M419.5,132.6H410v-2c-3.8,0.5-7.7,1-11.5,1.5c-4.8,0.6-8.6,0.9-11.4,0.9c-5.3,0-7.9-2.6-7.9-7.9V99.3
		c0-5.4,2.7-8.2,8.2-8.2h22.8V69.7h-20.8v12.1h-9.4v-12c0-5.5,2.7-8.2,8.2-8.2h23.3c5.4,0,8.2,2.7,8.2,8.2V132.6z M410.1,123.7V98.7
		h-21.7v25.5L410.1,123.7z"/>
	<path class="st0" d="M472.5,85H463V70.3l-17.9,0.6v61.7h-9.7V61.6h9.7v2c3.2-0.5,6.4-1,9.7-1.5c3.9-0.6,7.1-0.9,9.7-0.9
		c5.3,0,8,2.6,8,7.9V85z"/>
	<path class="st0" d="M524.6,132.6h-10.6l-19.5-36.2v36.2h-9.7V18.5h9.7v72.5l18.2-29.3h10.4v0.3l-20.6,31.3L524.6,132.6z"/>
</g>
<path id="Path_21" class="st1" d="M82.3,63.8c-9.5,0-17.2,7.7-17.2,17.2s7.7,17.2,17.2,17.2S99.5,90.5,99.5,81l0,0l0,0
	C99.5,71.5,91.8,63.8,82.3,63.8z M82.3,90.8c-5.4,0-9.8-4.4-9.8-9.8c0-5.4,4.4-9.8,9.8-9.8c5.4,0,9.8,4.4,9.8,9.8
	c0,2.6-1,5.1-2.9,6.9S84.9,90.8,82.3,90.8z"/>
<path id="Path_22" class="st2" d="M77.3,129.9c-23-2.3-41.6-20.9-43.9-43.9C32.1,72.9,36,59.8,44.5,49.6c1.6-2,1.5-4.9-0.3-6.7
	l-8.8-8.8C21.7,47.9,14.6,67,16.2,86.4c2.6,32.2,28.6,58.2,60.8,60.8c19.4,1.6,38.5-5.4,52.3-19.2l-8.8-8.8
	c-1.8-1.8-4.7-1.9-6.7-0.3C103.5,127.3,90.4,131.3,77.3,129.9z"/>
<path id="Path_23" class="st0" d="M82.3,107.9c14.8,0,26.9-12,26.9-26.9s-12-26.9-26.9-26.9c-14.8-0.1-26.9,12-26.9,26.9l0,0l0,0
	C55.5,95.8,67.5,107.9,82.3,107.9z M60.1,83.3h10.3c0.9,4.9,4.7,8.7,9.6,9.6v10.2C69.5,102.1,61.3,93.8,60.1,83.3L60.1,83.3z
	 M82.3,73.5c3.3,0,6.2,2.1,7.2,5.2H75.1C76.1,75.6,79,73.5,82.3,73.5z M89.5,83.3c-1.3,4-5.5,6.2-9.5,4.9c-2.3-0.7-4.1-2.6-4.9-4.9
	H89.5z M84.6,103.2V92.9c4.9-0.9,8.7-4.7,9.6-9.6h10.3C103.4,93.8,95.1,102.1,84.6,103.2L84.6,103.2z M104.5,78.7H94.2
	c-0.9-4.9-4.7-8.7-9.6-9.6V58.8C95.1,59.9,103.3,68.2,104.5,78.7L104.5,78.7z M80,58.8v10.3c-4.9,0.9-8.7,4.7-9.6,9.6H60.1
	C61.3,68.2,69.5,60,80,58.8L80,58.8z"/>
<path id="Path_24" class="st0" d="M158.5,78.7h-7.6c-1.2-36.1-30.2-65.1-66.3-66.3V4.8c0-1.3-1-2.3-2.3-2.3c-1.3,0-2.3,1-2.3,2.3
	v7.6c-36.1,1.2-65.1,30.2-66.3,66.3H6.2c-1.3,0-2.3,1-2.3,2.3c0,1.3,1,2.3,2.3,2.3h7.6c1.2,36.1,30.2,65,66.3,66.3v7.6
	c0,1.3,1,2.3,2.3,2.3c1.3,0,2.3-1,2.3-2.3v-7.6c36.1-1.2,65-30.2,66.3-66.3h7.6c1.3,0,2.3-1,2.3-2.3
	C160.8,79.7,159.7,78.7,158.5,78.7L158.5,78.7z M80,17v5.2h-0.1C49.3,23.5,24.8,48,23.6,78.6v0.1h-5.2C19.6,45.2,46.5,18.3,80,17z
	 M18.3,83.3h5.2c0.5,13,5.3,25.5,13.7,35.5c0.8,1,2.3,1.1,3.2,0.3c1-0.8,1.1-2.3,0.3-3.2l0,0c-7.7-9.1-12.1-20.6-12.6-32.6h17.3
	c1.3,0,2.3-1,2.3-2.3c0-1.3-1-2.3-2.3-2.3H28.1C29.3,50.6,51.9,28,80,26.8v17.4c0,1.3,1,2.3,2.3,2.3c1.3,0,2.3-1,2.3-2.3V26.8
	c12,0.5,23.4,4.9,32.6,12.6c0.9,0.9,2.4,0.8,3.2-0.2c0.9-0.9,0.8-2.4-0.2-3.2c-0.1-0.1-0.1-0.1-0.2-0.1l0,0
	c-10-8.4-22.4-13.2-35.5-13.7V17c33.5,1.2,60.5,28.1,61.7,61.7h-5.2c-0.5-13-5.3-25.5-13.8-35.5c-0.8-1-2.3-1.1-3.2-0.3
	c-1,0.8-1.1,2.3-0.3,3.2c7.7,9.1,12.1,20.6,12.6,32.6h-17.4c-1.3,0-2.3,1-2.3,2.3c0,1.3,1,2.3,2.3,2.3h17.3
	c-1.2,28.1-23.7,50.7-51.9,51.9v-17.4c0.1-1.3-0.9-2.4-2.2-2.4c-1.2-0.1-2.4,0.9-2.4,2.2c0,0,0,0,0,0.1s0,0.2,0,0.2v17.3
	c-12-0.5-23.4-4.9-32.6-12.6c-1-0.8-2.5-0.6-3.2,0.4c-0.7,0.9-0.6,2.3,0.3,3.1c10,8.4,22.4,13.3,35.5,13.7v5.2
	C46.5,143.7,19.6,116.8,18.3,83.3z M84.6,145v-5.2h0.1c30.6-1.2,55.1-25.7,56.3-56.3v-0.1h5.2C145,116.9,118.2,143.7,84.6,145
	L84.6,145z"/>
</svg>
