<?xml version="1.0" encoding="utf-8"?>
<!-- Generator: Adobe Illustrator 23.1.0, SVG Export Plug-In . SVG Version: 6.00 Build 0)  -->
<svg version="1.1" id="Layer_1" xmlns="http://www.w3.org/2000/svg" xmlns:xlink="http://www.w3.org/1999/xlink" x="0px" y="0px"
	 viewBox="0 0 381.9 366.1" style="enable-background:new 0 0 381.9 366.1;" xml:space="preserve">
<style type="text/css">
	.st0{fill:#00D600;}
</style>
<title>paintball-icon2</title>
<g id="Group_2">
	<g id="Group_1">
		<path id="Path_25" class="st0" d="M3.7,169.2h18.6c1.9,0,3.5,1.5,3.7,3.4h93.6c-7.5,1.9-13.4,7.8-15.3,15.3l-1-1.8h-1
			c-1.6,2.5-1,5.9,1.4,7.6c0.1,3.5,1.1,6.9,2.9,9.9c-8-0.2-14.2-6.9-14-14.8c0-0.9,0.1-1.8,0.3-2.7H26c-0.2,1.9-1.8,3.4-3.7,3.4H3.7
			c-2,0-3.7-1.6-3.7-3.7c0,0,0,0,0,0v-12.9C0,170.8,1.7,169.2,3.7,169.2L3.7,169.2z"/>
	</g>
</g>
<g id="Group_4">
	<g id="Group_3">
		<path id="Path_26" class="st0" d="M107,136.4h42.6c2.3,0,4.5,0.7,6.4,2c-3.1,7.4-3.6,15.6-1.5,23.3c-1.5,0.8-3.2,1.2-4.9,1.2H135
			v9.6h24.5c4.1,6,10,10.6,16.8,13.1l-3.5,6.1l-39.4-18c-3.7-1.7-7.8-2.3-11.9-1.6v-9.2H107c-6.1,0-11.1-4.9-11.1-11l0,0v-4.4
			C95.8,141.4,100.8,136.4,107,136.4C106.9,136.4,106.9,136.4,107,136.4z"/>
	</g>
</g>
<g id="Group_6">
	<g id="Group_5">
		<path id="Path_27" class="st0" d="M147.3,226.2c0.7,2,1.6,3.9,2.8,5.7c-1,1.2-2.4,1.9-4,1.9h-12.6c-1.8,0-3.5-1-4.4-2.5l-10.3-18
			L147.3,226.2z"/>
	</g>
</g>
<g id="Group_8">
	<g id="Group_7">
		<path id="Path_28" class="st0" d="M184.7,125.7c14.7-2.3,28.5,7.8,30.7,22.6c2.3,14.7-7.8,28.5-22.6,30.7
			c-14.7,2.3-28.5-7.8-30.7-22.6c0,0,0,0,0,0C160,141.7,170,127.9,184.7,125.7z"/>
	</g>
</g>
<g id="Group_10">
	<g id="Group_9">
		<path id="Path_29" class="st0" d="M113.8,187.3c3.1-5.8,10.2-8.2,16.2-5.4l44.2,20.1l9.4-5.3l25.2-15c5-3.4,9-8.1,11.7-13.5h3.5
			c11.3-0.1,20.5,9,20.6,20.3v0.2c-0.1,41.5-0.1,60.4-0.1,69.1c0,4.9-0.6,9.7-1.8,14.4l-12.4,47.4h37.4c-1,30.3-0.9,28.3-0.9,29.3
			h-55c-8.1,0-14.7-6.6-14.7-14.7c0-1.1,0.1-2.2,0.4-3.3l12.3-52.5l-40.3-4L179,332c1.3,8-4.2,15.5-12.2,16.8l-0.5,0.1
			c-7.9,0.8-15.1-4.7-16.3-12.6l-12.1-76c-1.3-8,4.2-15.5,12.2-16.8c1.2-0.2,2.5-0.2,3.7-0.1l31.8,3.2l-0.1-9.8
			c1-0.8-1.4,1.4,32.4-31.2l-37.2,20.8c-3.4,1.8-7.4,2-10.9,0.4l-50.2-22.9c-6.1-2.8-8.8-10-6-16.2L113.8,187.3z"/>
	</g>
</g>
<g id="Group_12">
	<g id="Group_11">
		<path id="Path_30" class="st0" d="M266.6,140.8c-1,0.6-2.2,0.9-3.4,0.9l-15.6-0.7c-2.2-0.1-4.3-1.4-5.3-3.4l-7.8-15.3L266.6,140.8
			z"/>
	</g>
</g>
<g id="Group_14">
	<g id="Group_13">
		<path id="Path_31" class="st0" d="M86.1,58.6c0.1-2.4,2.1-4.4,4.6-4.4h0.2l23,1c2.4,0.1,4.3,2,4.4,4.4l88.9,3.9
			c-6.1,3.4-10.5,9.3-12,16.1l-77.7-3.4c-0.3,2.3-2.2,4-4.5,4h-0.2l-23-1c-2.5-0.1-4.5-2.2-4.4-4.8c0,0,0,0,0,0l0,0L86.1,58.6z"/>
	</g>
</g>
<g id="Group_16">
	<g id="Group_15">
		<path id="Path_32" class="st0" d="M205.7,35.1c0.4-8.8,7.6-15.7,16.3-15.7h0.7l47.2,2.1c1.4,0.1,2.9,0.3,4.3,0.8
			c-2.3,9.9-0.9,20.4,3.9,29.4c-2.9,1.9-6.2,2.8-9.6,2.6l-15.3-0.7l-0.5,11.9l49.5,2.2c3.4,0.1,6.1,3,6,6.5c0,0,0,0,0,0
			c0,1.1-0.4,2.1-1,3l-8.9,14.1l-11,4.2l-51.3-30.7l0.5-11.8l-15.3-0.7C212.3,51.8,205.3,44.2,205.7,35.1
			C205.7,35.1,205.7,35.1,205.7,35.1z"/>
	</g>
</g>
<g id="Group_18">
	<g id="Group_17">
		<path id="Path_33" class="st0" d="M207.2,78c3.9-6.8,12.5-9.1,19.3-5.2l0,0l57.4,33l31-20.8l-0.1,0.1c1.6-2.6,3.5-5.1,3.9-9.5
			c11.1-0.6,2.9,0.1,16.1-0.7c13.8-0.9,25.6,9.6,26.5,23.4c0,0,0,0.1,0,0.1c8.6,143.9,5.2,76.5,9.7,178.3l10.7,69
			c1.5,9.6-5.1,18.7-14.7,20.2c-9.6,1.5-18.7-5.1-20.2-14.7l0,0l-10.9-70c-0.1-0.6-0.2-1.3-0.2-1.9c-0.4-8.2-2.9-65.4-3.2-72.4
			l-3.7,0.2l-13.3,69.2l-2.3,72.7c-0.3,9.8-8.5,17.4-18.2,17.1c-9.8-0.3-17.4-8.5-17.1-18.2l0,0l0,0l2.4-74.1c0-0.9,0.1-1.9,0.3-2.8
			l12.7-66.3c-0.3-5.6-3-50.3-3.4-56.7c3.2-0.9,6.1-2.6,8.4-5l32.4-34.5l-38.3,25.7c-4.5,3-10.2,3.2-14.9,0.5l-65-37.4
			C205.6,93.5,203.3,84.8,207.2,78C207.1,78,207.1,78,207.2,78z"/>
	</g>
</g>
<g id="Group_20">
	<g id="Group_19">
		<path id="Path_34" class="st0" d="M284,28L284,28c2.3-17.4,18.2-29.7,35.6-27.4c17.1,2.2,29.3,17.7,27.5,34.8
			c-0.9,7.8-4.6,15-10.5,20.1c-13.1,11.6-33.2,10.4-44.8-2.8C285.7,46,282.9,37,284,28z"/>
	</g>
</g>
</svg>
