<?xml version="1.0" encoding="utf-8"?>
<!-- Generator: Adobe Illustrator 23.1.0, SVG Export Plug-In . SVG Version: 6.00 Build 0)  -->
<svg version="1.1" id="Layer_1" xmlns="http://www.w3.org/2000/svg" xmlns:xlink="http://www.w3.org/1999/xlink" x="0px" y="0px"
	 viewBox="0 0 403.8 403.8" style="enable-background:new 0 0 403.8 403.8;" xml:space="preserve">
<style type="text/css">
	.st0{fill:#00D600;}
</style>
<title>paintball-icon1</title>
<g id="Group_23">
	<path id="Path_38" class="st0" d="M384.3,208.4h-32.6v-6.5c0-10.8-8.8-19.5-19.5-19.5h-7.8C335.1,93.1,271.5,12.1,182.2,1.3
		S11.9,54.2,1.2,143.4S54,313.8,143.3,324.5c6.5,0.8,13,1.2,19.5,1.2c0.5,0,1,0,1.4,0l-7.1,46.2c-1.4,9,4.8,17.4,13.8,18.8
		c0,0,0,0,0,0c0.8,0.1,1.7,0.2,2.5,0.2h18.1c4,0,7.9-1.5,10.9-4.1l1.8-1.6c3-2.6,4.9-6.2,5.5-10.1l10.8-75.5h13.9v19.6
		c0,18,14.6,32.5,32.6,32.6h32.5v19.5c0,18,14.6,32.5,32.5,32.6h26c18,0,32.5-14.6,32.6-32.6v-98.9c7.8-2.7,13-10.1,13-18.3V228
		C403.8,217.2,395.1,208.5,384.3,208.4z M338.7,201.9v6.5h-13.1v-13h6.5C335.8,195.4,338.7,198.3,338.7,201.9
		C338.7,201.9,338.7,201.9,338.7,201.9z M117.2,247.5H65.1v-13h52.1V247.5z M118.4,221.5H69c-9.8-15.7-15.6-33.6-16.6-52.1h52.3
		c1.9,16.4,10.6,31.3,24,41C123.9,212.6,120.2,216.6,118.4,221.5L118.4,221.5z M221.1,156.4c-3.1-27.2-24.5-48.6-51.7-51.7V52.4
		c55.9,3.3,100.5,48,103.9,103.9L221.1,156.4z M169.3,208v-38.6h38.6C205,189.3,189.3,205,169.3,208L169.3,208z M169.3,156.4v-38.6
		c20,2.9,35.7,18.6,38.6,38.6L169.3,156.4z M156.3,156.4h-38.6c2.9-20,18.6-35.7,38.6-38.6L156.3,156.4z M156.3,169.4V208
		c-20-2.9-35.6-18.6-38.6-38.6H156.3z M221.1,169.4h52.1c-0.3,4.4-0.8,8.7-1.5,13H254c-10.8,0-19.5,8.8-19.5,19.5v6.5h-34.8
		C211.7,198.7,219.4,184.7,221.1,169.4L221.1,169.4z M247.5,202c0-3.6,2.9-6.5,6.5-6.5l0,0h6.5v13h-13L247.5,202z M273.6,195.4h13
		v13h-13V195.4z M299.6,195.4h13v13h-13L299.6,195.4z M285.1,182.4c0.7-4.3,1.1-8.6,1.4-13h26c-0.2,4.4-0.6,8.7-1.1,13H285.1z
		 M312.5,156.4h-26.2c-3.3-63.2-53.8-113.6-116.9-117V13.2c77.6,3.5,139.7,65.6,143.1,143.1L312.5,156.4z M156.3,13.2v26.1
		C103.8,42.3,58.7,78,43.9,128.5l12.5,3.6c13.2-45,53.1-76.8,99.9-79.7v52.2c-27.2,3.1-48.6,24.6-51.7,51.7H52.4c0.2-4,0.6-8,1.3-12
		l-12.8-2.2c-0.7,4.7-1.2,9.4-1.4,14.1H13.2C16.7,78.7,78.8,16.7,156.3,13.2z M162.8,312.6c-80.2-0.1-146.1-63.2-149.6-143.3h26.1
		c0.9,18.2,5.9,36,14.6,52.1h-1.8v39.1h66.3c2.8,7.8,10.1,13,18.3,13h6.5v6.5c0,10.8,8.8,19.5,19.5,19.5h5.4l-2,12.9
		C165.1,312.6,164,312.6,162.8,312.6L162.8,312.6z M196.9,373.2c-0.1,0.8-0.5,1.6-1.2,2.1l-1.8,1.6c-0.6,0.6-1.5,0.9-2.3,0.9h-18.2
		c-1.9,0-3.5-1.5-3.5-3.5c0-0.2,0-0.4,0-0.5l11.4-74.1h26L196.9,373.2z M267,338.7c-10.8,0-19.5-8.8-19.5-19.5v-19.6h26l0,0
		c0,8.9-6,16.7-14.6,18.9l3.2,12.6c14.4-3.7,24.4-16.7,24.4-31.5l0,0h13v39.1H267z M390.8,254c0,3.6-2.9,6.5-6.5,6.5h-19.5v13h13
		v97.7c0,10.8-8.7,19.6-19.5,19.6c0,0,0,0,0,0h-26c-10.8,0-19.6-8.8-19.5-19.6l0,0v-84.7H162.8c-3.6,0-6.5-2.9-6.5-6.5v-6.5h195.4
		v-13H136.8c-3.6,0-6.5-2.9-6.5-6.5c0,0,0,0,0,0V228c0-3.6,2.9-6.5,6.5-6.5c0,0,0,0,0,0h247.5c3.6,0,6.5,2.9,6.5,6.5V254z"/>
	<path id="Path_39" class="st0" d="M345.2,338.7c-10.8,0-19.5,8.7-19.5,19.5c0,10.8,8.7,19.5,19.5,19.5c10.8,0,19.5-8.7,19.5-19.5
		l0,0C364.7,347.5,356,338.7,345.2,338.7z M345.2,364.8c-3.6,0-6.5-2.9-6.5-6.5c0-3.6,2.9-6.5,6.5-6.5c3.6,0,6.5,2.9,6.5,6.5
		c0,0,0,0,0,0l0,0C351.7,361.8,348.8,364.8,345.2,364.8C345.2,364.8,345.2,364.8,345.2,364.8L345.2,364.8z"/>
</g>
</svg>
