<?xml version="1.0" encoding="utf-8"?>
<!-- Generator: Adobe Illustrator 23.1.0, SVG Export Plug-In . SVG Version: 6.00 Build 0)  -->
<svg version="1.1" id="Layer_1" xmlns="http://www.w3.org/2000/svg" xmlns:xlink="http://www.w3.org/1999/xlink" x="0px" y="0px"
	 viewBox="0 0 398.1 335.4" style="enable-background:new 0 0 398.1 335.4;" xml:space="preserve">
<style type="text/css">
	.st0{fill:#00D600;}
</style>
<title>people-icon2</title>
<path class="st0" d="M89,65.4c18.1,0,32.7-14.7,32.7-32.7S107.1,0,89,0C71,0,56.3,14.6,56.3,32.7l0,0l0,0C56.3,50.8,71,65.4,89,65.4
	z"/>
<path class="st0" d="M176.8,30.1l-17.6,24.1l-44.4,17.7c-0.2,0-0.4-0.2-0.7-0.2c0,0-51.4,0.3-52,0.4c-5.9-0.6-11.5,2.6-14,8
	L1.3,182.4c-3.2,7-0.2,15.3,6.9,18.6c6.9,3.2,15.1,0.2,18.5-6.6l0.1-0.3l22.5-49.4v53.3c0,0.1,0,120.9,0,120.9
	c0.2,9.3,7.9,16.6,17.2,16.4c9-0.2,16.2-7.4,16.4-16.4V218.7h12.2v100.1c0.2,9.3,7.9,16.6,17.2,16.4c9-0.2,16.2-7.4,16.4-16.4
	l-0.1-222.3l44.5-17.8c2.4-1,4.6-2.6,6.1-4.7l12.8-17.5l-10.8-14.8C178.9,38.3,177.3,34.3,176.8,30.1z"/>
<path class="st0" d="M309.2,65.4c18.1,0,32.7-14.7,32.7-32.7c0-18.1-14.7-32.7-32.7-32.7c-18.1,0-32.7,14.7-32.7,32.7c0,0,0,0,0,0
	C276.4,50.8,291.1,65.4,309.2,65.4C309.2,65.4,309.2,65.4,309.2,65.4L309.2,65.4z"/>
<path class="st0" d="M396.9,182.4L350.2,80.1c-2.5-5.4-8.1-8.6-14-8c-0.7-0.1-52.5-0.3-52.7-0.3L239,54.2L213,18.6
	c-4.4-6.4-13.1-8-19.5-3.7c-6.4,4.4-8,13.1-3.7,19.5c0.2,0.2,0.3,0.5,0.5,0.7l28.4,38.9c1.5,2.1,3.7,3.8,6.1,4.7l44.6,17.8
	c0,20.2,0,198.2,0,222.3c0,9.3,7.5,16.8,16.8,16.8c9.3,0,16.8-7.5,16.8-16.8l0,0V218.7h12.2v100.1c0.2,9.3,7.9,16.6,17.2,16.4
	c9-0.2,16.2-7.4,16.4-16.4V144.6l22.5,49.4c3,7.1,11.3,10.4,18.4,7.4c7.1-3,10.4-11.3,7.4-18.4C397.1,182.8,397,182.6,396.9,182.4
	L396.9,182.4z"/>
</svg>
