<?xml version="1.0" encoding="utf-8"?>
<!-- Generator: Adobe Illustrator 23.1.0, SVG Export Plug-In . SVG Version: 6.00 Build 0)  -->
<svg version="1.1" id="Layer_1" xmlns="http://www.w3.org/2000/svg" xmlns:xlink="http://www.w3.org/1999/xlink" x="0px" y="0px"
	 viewBox="0 0 354.1 372.3" style="enable-background:new 0 0 354.1 372.3;" xml:space="preserve">
<style type="text/css">
	.st0{fill:#00D600;}
</style>
<title>people-icon1</title>
<g id="together">
	<g id="Group_33">
		<g id="Group_32">
			<path id="Path_82" class="st0" d="M263.9,37.2c-17.1,0-31,13.9-31,31s13.9,31,31,31s31-13.9,31-31l0,0
				C294.9,51,281,37.2,263.9,37.2z M263.9,86.8c-10.3,0-18.6-8.3-18.6-18.6s8.3-18.6,18.6-18.6c10.3,0,18.6,8.3,18.6,18.6
				c0,0,0,0,0,0C282.4,78.4,274.1,86.8,263.9,86.8C263.9,86.8,263.8,86.8,263.9,86.8L263.9,86.8z"/>
		</g>
	</g>
	<g id="Group_35">
		<g id="Group_34">
			<path id="Path_83" class="st0" d="M329,135.5c1.5-0.9,2.5-2.4,2.9-4.1l21.8-109.2c2.1-10-4.3-19.9-14.4-22
				c-9.9-2.1-19.6,4.1-21.9,13.9l-21.6,86.5l-32,10.7l-32-10.7l-21.7-86.5c-2.5-10-12.6-16-22.6-13.5c-3.9,1-7.3,3.2-9.9,6.3
				c-0.3,0.4-0.5,0.8-0.7,1.1c-0.3-0.4-0.4-0.8-0.7-1.1c-6.5-7.9-18.3-9.1-26.2-2.5c-3.1,2.5-5.2,6-6.2,9.8l-21.6,86.5l-32,10.7
				l-32-10.7L36.6,14.1c-2.7-9.9-13-15.7-22.9-13C4.4,3.7-1.4,12.8,0.3,22.2l21.8,109.2c0.3,1.7,1.4,3.2,2.9,4.1l28,16.8v45.4
				L20.9,342.4c-3.1,13.1,5.1,26.2,18.2,29.3s26.2-5.1,29.3-18.2l0.1-0.4l21.7-95.7l21.6,95.7c3,13.1,16.1,21.4,29.2,18.4
				c12.9-2.9,21.2-15.7,18.5-28.7l-0.1-0.4l-32.1-144.6v-45.4l28-16.8c1.5-0.9,2.5-2.4,2.9-4.1L177,37.8l18.7,93.6
				c0.3,1.7,1.4,3.2,2.9,4.1l28,16.8v45.4l-32.2,144.6c-3.1,13.1,5.1,26.2,18.2,29.3s26.2-5.1,29.3-18.2l0.1-0.4l21.8-95.7
				l21.7,95.7c3,13.1,16.1,21.4,29.2,18.4c12.9-2.9,21.2-15.7,18.5-28.7l-0.1-0.4l-32.2-144.6v-45.4L329,135.5z M168,19.8
				l-21.3,106.5L118,143.5c-1.9,1.1-3,3.1-3,5.3v49.6c0,0.5,0,0.9,0.1,1.4l32.3,145.3c1.3,6.5-3,12.8-9.5,14.1
				c-6.1,1.2-12.2-2.5-13.9-8.6l-0.1-0.3L96.3,228.1c-0.8-3.3-4.1-5.4-7.5-4.6c-2.3,0.5-4.1,2.3-4.6,4.6L56.4,350.3
				c-1.6,6.4-8.1,10.4-14.5,8.8c-6.1-1.5-10-7.5-8.9-13.8l0.1-0.3l32.3-145.3c0.1-0.4,0.2-0.9,0.2-1.4v-49.6c0-2.2-1.1-4.2-3-5.3
				l-28.7-17.2L12.4,19.8c-0.5-3.4,1.9-6.5,5.3-7c3-0.4,5.9,1.4,6.8,4.3L47,106.9c0.5,2.1,2,3.7,4.1,4.4l37.2,12.4
				c1.3,0.4,2.7,0.4,3.9,0l37.2-12.4c2-0.7,3.5-2.3,4-4.4l22.5-89.8c1-3.3,4.4-5.2,7.7-4.2C166.6,13.8,168.4,16.7,168,19.8L168,19.8
				z M288.8,199.8l32.3,145.3c1.2,6.5-3.1,12.8-9.6,14c-6.2,1.2-12.2-2.7-13.8-8.7l-27.8-122.3c-0.8-3.3-4.1-5.4-7.5-4.6
				c-2.3,0.5-4.1,2.3-4.6,4.6L230,350.3c-1.2,6.5-7.4,10.9-13.9,9.7c-6.5-1.2-10.9-7.4-9.7-13.9c0-0.3,0.1-0.5,0.2-0.8
				c0-0.1,0-0.2,0.1-0.3l32.3-145.3c0.1-0.4,0.2-0.9,0.2-1.4v-49.6c0-2.2-1.1-4.2-3-5.3l-28.7-17.2L186.1,19.8
				c-0.5-3.4,1.9-6.5,5.3-7c3-0.4,5.9,1.4,6.8,4.3l22.5,89.8c0.5,2.1,2,3.7,4,4.4l37.2,12.4c1.3,0.4,2.6,0.4,3.9,0l37.2-12.4
				c2-0.7,3.5-2.3,4.1-4.4l22.5-89.8c0.9-3.3,4.4-5.2,7.7-4.3c3.1,0.9,5,3.9,4.4,7l-21.3,106.5l-28.7,17.2c-1.9,1.1-3,3.1-3,5.3
				v49.6C288.6,198.9,288.7,199.3,288.8,199.8L288.8,199.8z"/>
		</g>
	</g>
	<g id="Group_37">
		<g id="Group_36">
			<path id="Path_84" class="st0" d="M90.2,37.2c-17.1,0-31,13.9-31,31s13.9,31,31,31s31-13.9,31-31S107.3,37.2,90.2,37.2z
				 M90.2,86.8c-10.3,0-18.6-8.3-18.6-18.6c0-10.3,8.3-18.6,18.6-18.6c10.3,0,18.6,8.3,18.6,18.6c0,0,0,0,0,0l0,0
				C108.8,78.4,100.5,86.8,90.2,86.8C90.2,86.8,90.2,86.8,90.2,86.8L90.2,86.8z"/>
		</g>
	</g>
</g>
</svg>
