<?xml version="1.0" encoding="utf-8"?>
<!-- Generator: Adobe Illustrator 23.1.0, SVG Export Plug-In . SVG Version: 6.00 Build 0)  -->
<svg version="1.1" id="Layer_1" xmlns="http://www.w3.org/2000/svg" xmlns:xlink="http://www.w3.org/1999/xlink" x="0px" y="0px"
	 viewBox="0 0 397.2 355.3" style="enable-background:new 0 0 397.2 355.3;" xml:space="preserve">
<style type="text/css">
	.st0{fill:#00D600;}
</style>
<title>people-icon3</title>
<g id="Group_42">
	<path id="Path_87" class="st0" d="M373.9,133.8c-12.8,0-23.3,10.4-23.3,23.3v3.9c0,32.1-23.1,59.5-54.7,65
		c4.2-6.2,6.4-13.5,6.4-20.9v-5.4c0-20.7-16.8-37.4-37.4-37.4c-20.6,0-37.4,16.7-37.4,37.4v5.4c0,7.3,2.2,14.4,6.2,20.4
		c-30.5-6.5-52.2-33.4-52.3-64.5v-3.9c-0.3-12.9-10.9-23.1-23.8-22.8c-12.5,0.3-22.5,10.3-22.8,22.8v3.9c0,15.5,3.2,30.8,9.4,45
		H91.5v-78.1c0-3.5-2.3-6.5-5.6-7.5c-41.5-12-70.2-50-70.4-93.2v-3.9c-0.2-4.3,3.2-7.9,7.5-8c4.3-0.2,7.9,3.2,8,7.5
		c0,0.2,0,0.4,0,0.6v3.9c0.1,45,36.5,81.4,81.5,81.4h37.3c45,0,81.4-36.5,81.5-81.4v-3.9c0-4.3,3.5-7.8,7.8-7.8
		c4.3,0,7.8,3.5,7.8,7.8c0,0,0,0,0,0l0,0v3.9c0,11.8-2.2,23.6-6.4,34.6c-1.5,4,0.6,8.5,4.6,10c3.9,1.4,8.2-0.4,9.8-4.2l0.1-0.2
		c4.9-12.8,7.4-26.4,7.4-40.2v-3.9C262.3,10.4,251.9,0,239,0c-12.9,0-23.3,10.4-23.3,23.3v3.9c0,32.1-23.1,59.5-54.7,65
		c4.2-6.2,6.4-13.5,6.4-20.9v-5.4c0.3-20.7-16.1-37.7-36.8-38S93,44,92.7,64.6c0,0.4,0,0.8,0,1.2v5.4c0,7.3,2.1,14.4,6.1,20.5
		c-30.5-6.5-52.2-33.4-52.2-64.5v-3.9C46.3,10.4,35.6,0.2,22.8,0.5C10.3,0.7,0.3,10.8,0,23.3v3.9c-0.1,24.7,8.1,48.7,23.2,68.3
		C36.7,113,55,126.3,76,133.6v80.2c0,4.3,3.5,7.8,7.8,7.8l0,0h1.4v126c0.2,4.3,3.8,7.6,8,7.5c4.1-0.1,7.3-3.4,7.5-7.5l0,0v-126h52
		c1.7,2.6,3.5,5.2,5.4,7.7c0.5,0.7,1.1,1.3,1.6,2v116.3c-0.2,4.3,3.2,7.9,7.5,8s7.9-3.2,8-7.5c0-0.2,0-0.4,0-0.6V247.1
		c10.6,8.9,22.7,15.7,35.7,20.3v80.2c-0.2,4.3,3.2,7.9,7.5,8c4.3,0.2,7.9-3.2,8-7.5c0-0.2,0-0.4,0-0.6v-85.9c0-3.5-2.3-6.5-5.6-7.5
		c-41.5-12-70.2-50-70.3-93.3v-3.9c0.2-4.3,3.8-7.6,8-7.5c4.1,0.1,7.3,3.4,7.5,7.5v3.9c0,45,36.5,81.4,81.5,81.5h37.3
		c45,0,81.4-36.5,81.5-81.5v-3.9c0-4.3,3.5-7.8,7.8-7.8c4.3,0,7.7,3.5,7.8,7.8v3.9c-0.1,43.9-29.6,82.3-72,93.7
		c-3.4,0.9-5.8,4-5.8,7.5v56.2c0.2,4.3,3.8,7.6,8,7.5c4.1-0.1,7.3-3.4,7.5-7.5v-50.4c46.3-15.1,77.7-58.3,77.7-107v-3.9
		C397.2,144.2,386.8,133.8,373.9,133.8C373.9,133.8,373.9,133.8,373.9,133.8z M108.2,65.8c-0.1-12.1,9.6-22,21.7-22.1
		c12.1-0.1,22,9.6,22.1,21.7c0,0.1,0,0.3,0,0.4v5.4c0,12.1-9.8,21.9-21.9,21.9c-12.1,0-21.9-9.8-21.9-21.9V65.8z M286.8,205
		c0,12.1-9.8,21.9-21.9,21.9s-21.9-9.8-21.9-21.9l0,0v-5.4c0-12.1,9.8-21.9,21.9-21.9s21.9,9.8,21.9,21.9V205z"/>
</g>
</svg>
