<svg id="Layer_1" data-name="Layer 1" xmlns="http://www.w3.org/2000/svg" viewBox="0 0 145.44 371.62"><defs><style>.cls-1{fill:#fff;}</style></defs><title>products-person</title><path id="Path_329" data-name="Path 329" class="cls-1" d="M117.12,26.05a30.41,30.41,0,1,0,30.4,30.44,30.4,30.4,0,0,0-30.4-30.44h0ZM83.53,94.67a39.11,39.11,0,0,0-39.14,39v94.28a13.17,13.17,0,0,0,13,13.28h.1A13.29,13.29,0,0,0,70.85,228V142.89h6.78s.15,222,.15,236.6a17.84,17.84,0,1,0,35.67.67c0-.22,0-.45,0-.67V242.1h7.32V379.49a17.88,17.88,0,0,0,35.75,0V142.89h6.86v85A13.33,13.33,0,0,0,176.7,241.2,13.16,13.16,0,0,0,189.84,228V133.64A39.12,39.12,0,0,0,150.71,94.7Z" transform="translate(-44.39 -26.05)"/></svg>