<?xml version="1.0" encoding="utf-8"?>
<!-- Generator: Adobe Illustrator 23.1.0, SVG Export Plug-In . SVG Version: 6.00 Build 0)  -->
<svg version="1.1" id="Layer_1" xmlns="http://www.w3.org/2000/svg" xmlns:xlink="http://www.w3.org/1999/xlink" x="0px" y="0px"
	 viewBox="0 0 299.8 383.1" style="enable-background:new 0 0 299.8 383.1;" xml:space="preserve">
<style type="text/css">
	.st0{fill:#00D600;}
</style>
<title>ribbon-icon</title>
<g id="medal">
	<g id="Group_25">
		<g id="Group_24">
			<path id="Path_40" class="st0" d="M128.1,299.2c-14.5,13.7-36,17-53.9,8.1c-6.4-3-12-7.4-16.5-12.9l-25,55.2
				c-1.1,2.4,0,5.3,2.4,6.4c1,0.5,2.2,0.6,3.3,0.3l18.2-5c10.8-3,22.1,2.2,27,12.2l8.2,17c1.1,2.4,4,3.4,6.4,2.2
				c1-0.5,1.8-1.3,2.3-2.3l39.7-87.8C135.6,293.8,131.5,296.1,128.1,299.2z"/>
		</g>
	</g>
	<g id="Group_27">
		<g id="Group_26">
			<path id="Path_41" class="st0" d="M267.1,349.6l-25-55.2c-4.5,5.4-10.2,9.8-16.6,12.9c-17.9,8.9-39.4,5.7-53.9-8.1
				c-3.4-3.2-7.5-5.5-12-6.8l39.7,87.8c1.1,2.4,3.9,3.5,6.3,2.4c1-0.5,1.9-1.3,2.4-2.3l8.2-17c4.9-10.1,16.2-15.2,27-12.2l18.2,5.1
				c2.6,0.7,5.2-0.8,5.9-3.4C267.6,351.7,267.5,350.6,267.1,349.6L267.1,349.6z"/>
		</g>
	</g>
	<g id="Group_29">
		<g id="Group_28">
			<path id="Path_42" class="st0" d="M286.7,155.5c-20.8-14.4-27.1-42.2-14.6-64.1c8.3-14.4,3.3-32.8-11.1-41.1
				c-7.2-4.1-15.8-5.1-23.8-2.7c-24.2,7.3-49.9-5.1-59.3-28.5c-6.1-15.5-23.6-23.1-39-17c-7.8,3.1-13.9,9.2-17,17
				c-9.4,23.4-35.1,35.7-59.2,28.5c-15.9-4.9-32.7,4.1-37.6,20c-2.4,8-1.5,16.6,2.7,23.8c12.5,21.9,6.1,49.8-14.6,64.1
				c-13.7,9.4-17.3,28.1-7.9,41.8c4.7,6.9,12.1,11.6,20.3,12.8c24.9,3.9,42.7,26.2,41,51.4c-1.2,16.6,11.3,31,27.8,32.2
				c8.3,0.6,16.5-2.3,22.6-7.9c18.6-17,47.2-17,65.8,0c12.2,11.3,31.3,10.5,42.5-1.7c5.6-6.1,8.5-14.3,7.9-22.6
				c-1.7-25.2,16.1-47.5,41-51.4c16.4-2.5,27.8-17.8,25.3-34.2C298.2,167.6,293.6,160.2,286.7,155.5z M149.9,251.3
				c-54.4,0-98.5-44.1-98.5-98.5s44.1-98.5,98.5-98.5c54.4,0,98.5,44.1,98.5,98.5v0C248.4,207.2,204.3,251.3,149.9,251.3
				C149.9,251.3,149.9,251.3,149.9,251.3z"/>
		</g>
	</g>
	<g id="Group_31">
		<g id="Group_30">
			<path id="Path_43" class="st0" d="M149.9,72.7c-44.2,0-80.1,35.9-80.1,80.1c0,44.2,35.9,80.1,80.1,80.1
				c44.2,0,80.1-35.9,80.1-80.1c0,0,0,0,0,0l0,0C229.9,108.6,194.1,72.8,149.9,72.7z M190.9,145.1l-49.9,36.4c-4.1,3-9.8,2.1-12.8-2
				c0,0,0,0,0,0l-0.1-0.1l-14.9-21.2c-3-4.1-2-9.9,2.1-12.8c4.1-3,9.9-2,12.8,2.1l0.1,0.1l9.5,13.6l42.3-30.9c4.1-3,9.8-2.1,12.8,2
				C195.9,136.3,195,142.1,190.9,145.1z"/>
		</g>
	</g>
</g>
</svg>
