<?xml version="1.0" encoding="utf-8"?>
<!-- Generator: Adobe Illustrator 23.1.0, SVG Export Plug-In . SVG Version: 6.00 Build 0)  -->
<svg version="1.1" id="Layer_1" xmlns="http://www.w3.org/2000/svg" xmlns:xlink="http://www.w3.org/1999/xlink" x="0px" y="0px"
	 viewBox="0 0 371.3 371.3" style="enable-background:new 0 0 371.3 371.3;" xml:space="preserve">
<style type="text/css">
	.st0{fill:#00D600;}
</style>
<title>vip-icon</title>
<path id="Path_98" class="st0" d="M315.6,113.6V0H55.7v113.6L0,138.3v233h371.3v-233L315.6,113.6z M315.6,127.1l37.6,16.7
	l-37.6,29.8V127.1z M68.1,12.4h235.1v171.1l-12.4,9.8V49.5h-6.2c-10.3,0-18.6-8.3-18.6-18.5c0,0,0,0,0,0l0,0v-6.2H105.2v6.2
	c0,10.2-8.3,18.5-18.5,18.6h-6.2v143.8l-12.4-9.8L68.1,12.4z M278.5,203.1l-81.3,64.5c-6.8,5.4-16.3,5.4-23.1,0l-81.3-64.5V61.3
	c12.1-2.5,21.6-12,24.1-24.1h137.4c2.5,12.1,12,21.6,24.1,24.1V203.1z M55.7,127.1v46.6L18,143.8L55.7,127.1z M12.4,155.1
	l122.8,97.3L12.4,352.3L12.4,155.1z M23.9,358.9l121.1-98.5l21.4,16.9c11.2,9,27.2,9,38.4,0l21.4-16.9l121.1,98.5H23.9z
	 M358.9,309.4v42.9l-122.8-99.8l122.8-97.4L358.9,309.4z"/>
<path id="Path_99" class="st0" d="M179.4,55.7h12.4v61.9h-12.4V55.7z"/>
<path id="Path_100" class="st0" d="M222.8,55.7h-18.6v61.9h12.4V99h6.2c10.3,0,18.6-8.3,18.6-18.5c0,0,0,0,0,0v-6.2
	C241.3,64,233,55.7,222.8,55.7C222.8,55.7,222.8,55.7,222.8,55.7z M228.9,80.5c0,3.4-2.8,6.2-6.2,6.2h-6.2V68.1h6.2
	c3.4,0,6.2,2.8,6.2,6.2c0,0,0,0,0,0V80.5z"/>
<path id="Path_101" class="st0" d="M166.9,57l-12.1-2.7l-9.4,42.4L136,54.4L123.9,57l13.5,60.5h16.1L166.9,57z"/>
<path id="Path_102" class="st0" d="M223.7,173.3h-24.6l-7.6-23.4c-1.1-3.2-4.6-5-7.8-3.9c-1.9,0.6-3.3,2.1-3.9,3.9l-7.6,23.4h-24.6
	c-3.4,0-6.2,2.8-6.2,6.2c0,2,0.9,3.8,2.6,5l19.9,14.5l-7.6,23.4c-1,3.3,0.7,6.7,4,7.8c1.9,0.6,3.9,0.3,5.5-0.9l19.9-14.5l19.9,14.5
	c2.8,2,6.6,1.4,8.6-1.4c1.2-1.6,1.5-3.7,0.9-5.5l-7.6-23.4l19.9-14.5c2.8-2,3.4-5.9,1.4-8.6C227.6,174.2,225.7,173.3,223.7,173.3
	L223.7,173.3z M194.3,198.5l3.1,9.6l-8.1-5.9c-2.2-1.6-5.1-1.6-7.3,0l-8.1,5.9l3.1-9.6c0.8-2.5-0.1-5.3-2.3-6.9l-8.1-5.9h10.1
	c2.7,0,5.1-1.7,5.9-4.3l3.1-9.6l3.1,9.6c0.8,2.6,3.2,4.3,5.9,4.3h10l-8.1,5.9C194.4,193.1,193.5,195.9,194.3,198.5L194.3,198.5z"/>
</svg>
