<?xml version="1.0" encoding="utf-8"?>
<!-- Generator: Adobe Illustrator 23.1.0, SVG Export Plug-In . SVG Version: 6.00 Build 0)  -->
<svg version="1.1" id="Layer_1" xmlns="http://www.w3.org/2000/svg" xmlns:xlink="http://www.w3.org/1999/xlink" x="0px" y="0px"
	 viewBox="0 0 144.3 144.3" style="enable-background:new 0 0 144.3 144.3;" xml:space="preserve">
<style type="text/css">
	.st0{fill:#00D600;}
</style>
<title>youtube-icon</title>
<path id="Path_56" class="st0" d="M63.2,85.7l23.5-13.5L63.2,58.6V85.7z"/>
<path id="Path_57" class="st0" d="M72.2,0C32.3,0,0,32.3,0,72.2s32.3,72.2,72.2,72.1c39.9,0,72.1-32.3,72.1-72.2
	C144.4,32.3,112.1,0,72.2,0C72.2,0,72.2,0,72.2,0z M117.3,72.2c0,7.3-0.6,14.5-1.9,21.7c-1.1,3.9-4.1,6.9-7.9,8
	c-7.1,1.9-35.3,1.9-35.3,1.9s-28.2,0-35.3-1.9c-3.9-1-7-4.1-8-8c-1.3-7.1-1.8-14.4-1.8-21.6c0-7.3,0.6-14.5,1.8-21.7
	c1.1-3.9,4.1-6.9,8-8c7-1.9,35.2-1.9,35.2-1.9s28.2,0,35.3,2c3.9,1.1,6.9,4.1,7.9,8C116.7,57.7,117.3,65,117.3,72.2L117.3,72.2z"/>
</svg>
